<?xml version="1.0" standalone="no"?>
<!DOCTYPE svg PUBLIC "-//W3C//DTD SVG 1.1//EN" "http://www.w3.org/Graphics/SVG/1.1/DTD/svg11.dtd" >
<svg xmlns="http://www.w3.org/2000/svg">
<metadata>
This is a custom SVG webfont generated by Font Squirrel.
Copyright   : Copyright c 2011 by Brian J Bonislawsky DBA Astigmatic AOETI astigmaastigmaticcom with ReservedFont Name Ribeye
Designer    : Astigmatic AOETI
Foundry     : Astigmatic AOETI
Foundry URL : httpwwwastigmaticcom
</metadata>
<defs>
<font id="RibeyeRegular" horiz-adv-x="1231" >
<font-face units-per-em="2048" ascent="1638" descent="-410" />
<missing-glyph horiz-adv-x="614" />
<glyph unicode=" "  horiz-adv-x="614" />
<glyph unicode="&#x09;" horiz-adv-x="614" />
<glyph unicode="&#xa0;" horiz-adv-x="614" />
<glyph unicode="!" horiz-adv-x="578" d="M117 1284q0 36 13.5 67.5t37.5 55.5t55.5 37.5t67.5 13.5t68 -13.5t56 -37.5t38 -55.5t14 -67.5q0 -64 -7.5 -145.5t-20 -173.5t-28.5 -191.5t-32 -198.5q-9 -58 -18 -113t-17 -108q-3 -20 -18 -32.5t-35 -12.5q-19 0 -33.5 12.5t-17.5 32.5q-8 54 -18 112t-19 120 q-16 97 -31.5 194.5t-27.5 188t-19.5 171t-7.5 144.5zM137 109q0 31 12 59t33 48t49 32t60 12t60 -12t48.5 -32t32.5 -48t12 -59q0 -32 -12 -60t-32.5 -49t-48.5 -33t-60 -12t-60 12t-49 33t-33 49t-12 60z" />
<glyph unicode="&#x22;" horiz-adv-x="834" d="M80 1300q0 31 12 59t32 49t47.5 33.5t59.5 12.5q31 0 59 -12.5t49 -33.5t33.5 -49t12.5 -59q0 -24 -7 -56.5t-17.5 -68t-23.5 -71.5t-24.5 -65.5t-20.5 -50.5t-11 -27q-14 -33 -50 -33q-15 0 -27.5 8.5t-19.5 24.5q-3 6 -11.5 27t-20 51t-24.5 66t-23.5 71.5t-17.5 68 t-7 55.5zM449 1300q0 31 12 59t32 49t47.5 33.5t59.5 12.5q31 0 59 -12.5t49 -33.5t33.5 -49t12.5 -59q0 -24 -7 -56.5t-18 -68t-24 -71.5t-24.5 -65.5t-20.5 -50.5t-11 -27q-13 -33 -49 -33q-15 0 -28 8.5t-19 24.5q-3 6 -11.5 27t-20 51t-24.5 66t-23.5 71.5t-17.5 68 t-7 55.5z" />
<glyph unicode="#" horiz-adv-x="1190" d="M88 522q0 20 12.5 35t32.5 18q32 5 64.5 8.5t64.5 6.5l55 284q-31 4 -61 8t-61 9q-20 2 -32.5 16.5t-12.5 34.5v8q3 19 18 32t35 13q4 0 6 -2q32 -5 64.5 -8t64.5 -6l59 307q3 19 18 31t34 12h135q23 0 41 -20q12 -14 12 -33q0 -6 -2 -10l-57 -301h49h55l63 321 q4 19 18 31t34 12h135q24 0 41 -20q12 -14 12 -33q0 -3 -1 -5t-1 -5l-55 -287q29 3 59.5 7t59.5 7q2 2 4 2h4q23 0 37 -16.5t14 -36.5t-12.5 -34.5t-32.5 -16.5q-38 -6 -77 -10.5t-77 -8.5l-53 -280q37 -3 73.5 -7.5t71.5 -9.5q23 -3 34 -21t11 -38q-3 -20 -17.5 -32.5 t-33.5 -12.5h-8q-37 5 -75 9t-76 7l-60 -309q-3 -18 -17.5 -29.5t-33.5 -11.5h-139q-23 0 -37.5 15.5t-14.5 35.5v11l60 301h-29h-76l-61 -322q-3 -18 -18 -29.5t-33 -11.5h-137q-23 0 -38.5 15.5t-15.5 35.5v11l56 282q-23 -2 -46.5 -4.5t-46.5 -5.5h-6q-23 0 -38 15.5 t-15 35.5zM508 604q17 0 32.5 1t30.5 1h21q9 0 20 -2l50 256q-8 0 -16.5 -1t-16.5 -1q-19 0 -36 1t-36 1z" />
<glyph unicode="$" horiz-adv-x="1165" d="M98 294v42q0 37 1.5 70t3 58.5t3.5 41.5t3 18q2 20 16.5 33.5t34.5 13.5q25 0 39 -16t14 -35v-6l-6 -47q72 -79 157.5 -122.5t182.5 -57.5v2q1 25 0 59q-1 29 -4 71.5t-11 98.5q-80 12 -156.5 38.5t-136.5 69t-96.5 103t-36.5 141.5q0 86 34.5 150t91 107t129.5 65 t151 25q0 63 3.5 136t12.5 138q2 20 17 32.5t35 12.5q21 0 37 -15t16 -38q0 -2 -1 -3t-1 -3q-10 -69 -13.5 -139.5t-5.5 -127.5q160 -15 283 -98q9 22 21 44l24 44q8 13 20.5 19t24.5 6q23 0 38 -15.5t15 -35.5q0 -16 -8 -27q-38 -68 -59 -129t-27 -98q-3 -19 -18 -32.5 t-35 -13.5q-22 0 -36.5 17t-14.5 37v8q5 31 10.5 50t5.5 24q-56 43 -117.5 65.5t-126.5 30.5v-10q-1 -27 0 -63q1 -31 4 -75.5t11 -103.5l47 -8q70 -14 143.5 -36.5t134 -60.5t99.5 -94t39 -137q0 -85 -43 -149.5t-108.5 -107.5t-143.5 -65t-148 -22q-2 -65 -4.5 -138.5 t-11.5 -141.5q-2 -20 -16.5 -33t-34.5 -13q-22 0 -38 15.5t-16 38.5q0 2 1 3t1 3q10 69 13.5 141t5.5 129q-97 13 -184.5 50t-159.5 100v-34q0 -16 2 -32v-4q0 -20 -13.5 -35.5t-33.5 -15.5q-23 0 -39.5 13.5t-18.5 33.5t-2 40zM336 1020q0 -28 16 -50t41.5 -39.5 t58.5 -30.5t68 -23q-5 46 -7 86t-2 71q0 35 1 66v12q-29 -2 -60.5 -8t-57 -17.5t-42 -28t-16.5 -38.5zM639 504q5 -46 6 -85.5t2 -69.5v-64v-4q24 0 64 4t79 15.5t67 32t28 52.5q0 25 -25 44.5t-62.5 34t-80.5 24.5t-78 16z" />
<glyph unicode="%" horiz-adv-x="1825" d="M72 1018q0 97 28.5 177.5t80.5 138.5t124 90t158 32q93 0 162.5 -38t116 -100t69.5 -140.5t23 -159.5q0 -86 -24.5 -165t-72 -139t-116.5 -96t-158 -36q-86 0 -158 32t-124 90t-80.5 138t-28.5 176zM336 1026q0 -52 5 -110.5t23.5 -107.5t55 -81.5t98.5 -32.5 q58 0 98 33.5t65 82.5t36.5 105.5t11.5 102.5q0 43 -10.5 97.5t-33 103t-59 81.5t-87.5 33q-41 0 -72 -14t-53.5 -38t-37.5 -55t-24 -65t-12.5 -69t-3.5 -66zM440 12q0 16 9 29q245 382 439 735.5t343 691.5q8 16 21 24.5t28 8.5h6q23 0 38 -16.5t15 -36.5q0 -14 -8 -29 q-68 -143 -126.5 -263t-114.5 -228.5t-113 -212.5t-123 -216.5t-144 -238.5t-175 -280q-21 -21 -41 -21q-23 0 -38.5 16.5t-15.5 36.5zM993 408q0 97 29 177.5t80.5 138.5t123.5 90t158 32q93 0 162.5 -38t116 -100t69.5 -140.5t23 -159.5q0 -86 -24.5 -165t-72 -139.5 t-116.5 -96.5t-158 -36q-86 0 -158 32.5t-123.5 90t-80.5 138t-29 176.5zM1257 416q0 -53 5 -111t24 -107.5t55.5 -81.5t98.5 -32q57 0 97.5 33.5t65.5 82.5t36.5 105.5t11.5 102.5q0 43 -10.5 97.5t-33.5 103t-59.5 81.5t-87.5 33q-41 0 -72 -14t-53.5 -38t-37.5 -55 t-24 -65t-12.5 -69t-3.5 -66z" />
<glyph unicode="&#x26;" horiz-adv-x="1997" d="M92 430q0 81 20.5 151.5t59 127.5t94.5 99t127 66q-49 33 -83 87t-34 126q0 79 37.5 134.5t98.5 91t138.5 51.5t158.5 16q85 0 148 -14.5t106.5 -37.5t71 -52t43 -58.5t21 -57t5.5 -46.5q0 -37 -14 -69.5t-38 -56.5t-56.5 -38t-69.5 -14t-69.5 14t-56.5 38t-38 56.5 t-14 69.5q0 47 21 86t56 62q-48 12 -116 12q-59 0 -117.5 -9t-105 -31t-75 -58t-28.5 -91q0 -39 16.5 -67.5t43.5 -49.5t61.5 -34t70.5 -21t71 -11t63 -3h2h2q20 0 34.5 -14.5t16.5 -36.5v-2q0 -20 -13.5 -35t-33.5 -18q-3 0 -25 -4t-53 -16.5t-67 -37t-66 -65t-50 -100.5 t-20 -144q0 -87 29 -152.5t79.5 -109.5t118.5 -66t146 -22q60 0 113.5 18.5t94 53t64 85t23.5 115.5q0 11 -1 22t-3 23q-23 -5 -46 -6.5t-46 -1.5q-64 0 -120.5 11.5t-99.5 26t-69 27.5t-29 15q-12 6 -19 18.5t-7 26.5q0 25 17 39t36 14q3 0 6 -1t6 -1q2 -2 17.5 -4t41.5 -2 q28 0 68.5 6.5t87.5 27t99 57.5t104 97q47 54 101 96.5t111.5 71.5t117 44.5t116.5 15.5q83 0 150 -32.5t114.5 -85.5t73 -122.5t25.5 -142.5q0 -69 -24 -125t-66 -95t-98.5 -60t-120.5 -21q-39 0 -73.5 14t-60 38t-40.5 56.5t-15 69.5t14.5 70t39 57.5t57 38.5t69.5 14 t69.5 -14t56.5 -38t38 -56.5t15 -69.5q34 51 34 121q-3 34 -15 64t-32 52.5t-48 36t-62 13.5q-30 0 -56.5 -10.5t-51 -28t-48 -39t-47.5 -43.5q-23 -23 -56 -52t-71.5 -59t-80 -56.5t-81.5 -43.5q6 -38 6 -74q0 -94 -41 -169t-107.5 -128t-150.5 -81.5t-170 -28.5 q-131 0 -248.5 24t-206 81t-140.5 151t-52 233z" />
<glyph unicode="'" horiz-adv-x="465" d="M80 1300q0 31 12 59t32 49t47.5 33.5t59.5 12.5q31 0 59 -12.5t49 -33.5t33.5 -49t12.5 -59q0 -24 -7 -56.5t-17.5 -68t-23.5 -71.5t-24.5 -65.5t-20.5 -50.5t-11 -27q-14 -33 -50 -33q-15 0 -27.5 8.5t-19.5 24.5q-3 6 -11.5 27t-20 51t-24.5 66t-23.5 71.5t-17.5 68 t-7 55.5z" />
<glyph unicode="(" horiz-adv-x="823" d="M61 782q0 196 32.5 349.5t84 271t114 201.5t122.5 141q66 61 129.5 100.5t113.5 62.5t82 32t35 10q3 2 6 2h4q23 0 38.5 -17t15.5 -37q0 -15 -10 -28.5t-25 -20.5q-28 -13 -61 -38q-28 -21 -63.5 -57t-72.5 -91q-34 -52 -69.5 -130t-64.5 -186t-47.5 -249t-18.5 -320 q0 -181 19 -328t48.5 -263.5t65.5 -204t71 -148.5q38 -67 74 -113.5t65 -75.5q33 -34 64 -55q25 -16 25 -45q0 -23 -17.5 -38t-36.5 -15q-5 0 -9 1t-9 3q-2 1 -33.5 16t-81.5 46.5t-113 81.5t-128 122q-59 67 -121 161.5t-112.5 220.5t-83 284.5t-32.5 353.5z" />
<glyph unicode=")" horiz-adv-x="823" d="M-14 -455q0 30 24 45q1 0 18.5 13t46 42t64.5 75.5t74 113.5q34 61 70.5 148.5t66.5 204t49 263.5t19 328q0 179 -19 320t-48 249t-64.5 186t-69.5 130q-37 55 -72 91t-63 57q-33 25 -62 38q-15 7 -24.5 20.5t-9.5 28.5q0 25 17 39.5t36 14.5h5q2 0 5 -2q3 -1 35 -10 t82 -32t114 -62.5t130 -100.5q60 -57 122.5 -141t113.5 -201.5t83.5 -271t32.5 -349.5q0 -195 -32.5 -353.5t-83 -284.5t-112 -220.5t-120.5 -161.5q-65 -72 -128 -122t-112.5 -81.5t-81.5 -46.5t-35 -16q-5 -2 -9 -3t-9 -1q-23 0 -38 16.5t-15 36.5z" />
<glyph unicode="*" horiz-adv-x="1096" d="M80 1122q0 32 13 60t34 48.5t48 32t56 11.5q31 0 54 -8q31 -11 73.5 -41t83.5 -64q-9 26 -17.5 53.5t-15 53.5t-10.5 48.5t-4 39.5q0 31 12 59t32.5 49t48 33t59.5 12q31 0 59 -12t48 -33t32 -49t12 -59q0 -17 -4 -39.5t-10.5 -48.5t-15 -54t-17.5 -55q42 34 84.5 64 t73.5 43q14 5 26.5 6.5t26.5 1.5q33 0 61 -12.5t48 -33.5t31.5 -48.5t11.5 -57.5q0 -46 -26 -86t-73 -57q-5 -2 -15.5 -5t-30.5 -6.5t-51.5 -6.5t-78.5 -5q45 -31 86 -65t60 -62q15 -20 21.5 -42.5t6.5 -45.5q0 -32 -12.5 -59.5t-33 -47.5t-48 -32t-57.5 -12q-37 0 -70 16 t-55 47q-12 17 -23.5 43t-22.5 57t-21 63.5t-17 62.5q-9 -30 -19 -62.5t-21 -63.5t-22.5 -57t-23.5 -43q-22 -31 -55 -47t-70 -16q-32 0 -59.5 13t-48 34t-32.5 48t-12 56q0 23 7 45.5t22 42.5q19 28 60 62t86 65q-50 2 -82.5 5t-53.5 6.5t-32 6.5t-17 5q-46 17 -73 57 t-27 86z" />
<glyph unicode="+" horiz-adv-x="1096" d="M70 758q3 18 18 31.5t35 13.5q2 0 3 -1t3 -1q65 -10 126 -16t120 -9v367q0 21 15.5 37t37.5 16h240q23 0 38 -16t15 -37v-367q59 3 120 9t126 16q2 0 4 1t4 1q22 0 36.5 -16.5t14.5 -36.5t-12.5 -35t-32.5 -17q-68 -11 -132.5 -17t-127.5 -9v-350q0 -22 -15 -38t-38 -16 h-240q-22 0 -37.5 16t-15.5 38v350q-62 3 -126.5 9t-133.5 17q-25 3 -35 20.5t-10 39.5z" />
<glyph unicode="," horiz-adv-x="500" d="M94 88q0 31 12 59t33 48.5t49 32.5t60 12q40 0 70.5 -16t50 -43.5t29.5 -63.5t10 -76q0 -43 -11.5 -87t-37 -83.5t-65.5 -73t-97 -55.5q-5 -2 -9.5 -3t-9.5 -1q-23 0 -38 16.5t-15 36.5q0 16 9.5 29.5t25.5 19.5q45 17 72 42.5t44 54.5q-8 -2 -14 -2.5t-14 -0.5 q-32 0 -60 12t-49 33t-33 49t-12 60z" />
<glyph unicode="-" horiz-adv-x="1235" d="M139 750q0 21 15.5 37t38.5 16q2 0 3 -1t3 -1q129 -17 229.5 -26t192.5 -9q48 0 96.5 2t99 6.5t104.5 11t115 15.5q2 0 4 1t4 1q22 0 37 -16t15 -37q0 -20 -12.5 -35t-32.5 -17q-110 -15 -217.5 -22.5t-217.5 -7.5q-213 0 -432 30q-20 2 -32.5 17t-12.5 35z" />
<glyph unicode="." horiz-adv-x="500" d="M96 109q0 31 12 59t33 48t49 32t60 12t60 -12t48.5 -32t32.5 -48t12 -59q0 -32 -12 -60t-32.5 -49t-48.5 -33t-60 -12t-60 12t-49 33t-33 49t-12 60z" />
<glyph unicode="/" horiz-adv-x="1233" d="M51 12q0 16 8 29q246 382 440 735.5t343 691.5q16 33 49 33h239q23 0 38.5 -16.5t15.5 -36.5q0 -14 -8 -29q-221 -356 -477 -712.5t-554 -726.5q-19 -21 -41 -21q-23 0 -38 16.5t-15 36.5z" />
<glyph unicode="0" horiz-adv-x="1329" d="M104 715q0 170 42.5 308.5t119 237t182 152t232.5 53.5q124 0 225.5 -51.5t172.5 -148t110 -236t39 -315.5q-3 -90 -18 -181t-43.5 -174.5t-71 -156t-102.5 -126t-137.5 -84t-174.5 -30.5q-127 0 -232.5 53.5t-182 152t-119 237t-42.5 309.5zM455 731q0 -90 4.5 -173 t16.5 -155t33.5 -131.5t56 -101.5t83.5 -65t117 -23q67 0 119.5 31t92 82t67 116.5t44.5 136t25 140t8 127.5q0 53 -6.5 119t-21 134t-39 132.5t-60.5 115t-85 81t-113 30.5q-176 0 -259 -152t-83 -444z" />
<glyph unicode="1" horiz-adv-x="889" d="M78 973q0 11 4.5 22t13.5 19l22 19q21 19 56 50.5t80.5 74.5t94.5 91.5t98 101t92 103.5q8 8 18 13.5t23 5.5q21 0 37.5 -17t13.5 -37v-1327q32 -5 66 -9.5t69 -12.5q19 -3 30 -18t11 -34q0 -26 -18 -38.5t-33 -12.5h-11q-80 16 -151.5 23.5t-142.5 7.5 q-72 0 -143.5 -7.5t-149.5 -23.5h-11q-21 0 -37 15.5t-16 35.5q0 19 12.5 34t30.5 18q35 8 70 13.5t69 8.5v942q-48 -45 -78.5 -71t-33.5 -29q-15 -12 -35 -12q-23 0 -37 15.5t-14 35.5z" />
<glyph unicode="2" horiz-adv-x="1163" d="M74 1055q0 97 42.5 175t110.5 132.5t154.5 83.5t173.5 29q108 0 201 -37t160.5 -102t106 -155t38.5 -196q0 -125 -41.5 -225.5t-109.5 -183.5t-155.5 -152.5t-179.5 -130.5q-71 -45 -135 -90.5t-112 -98.5q40 10 79.5 14.5t77.5 4.5q42 0 81.5 -6.5t77.5 -15t76 -15 t77 -6.5q36 0 65 9t49.5 20.5t32 21t12.5 10.5q17 17 37 17q23 0 38.5 -17t15.5 -37q0 -9 -4.5 -17.5t-10.5 -16.5q-2 -3 -19.5 -18.5t-47.5 -33t-72.5 -31.5t-95.5 -14q-39 0 -79 7t-79.5 15.5t-78.5 15.5t-77 7q-63 0 -126.5 -13.5t-131.5 -45.5q-5 -3 -10.5 -3.5 t-11.5 -0.5q-23 0 -37 15.5t-14 35.5v10q0 4 2 9q18 48 42.5 87t55 74t66 68t73.5 68q58 51 116.5 107.5t105.5 129t76.5 165.5t29.5 218q0 72 -22.5 134t-63.5 107.5t-97.5 71t-123.5 25.5q-53 0 -96 -16t-73.5 -45t-47.5 -71t-17 -93q0 -13 1 -25t3 -24q25 31 60.5 49 t79.5 18q37 0 69.5 -14t56.5 -38t38 -56.5t14 -69.5t-14 -69.5t-38 -57t-56.5 -39t-69.5 -14.5q-34 0 -77 14t-81 52t-64 104t-26 170z" />
<glyph unicode="3" horiz-adv-x="1241" d="M76 362q0 25 2 51.5t8 55.5q3 19 18 31t33 12q25 0 39 -17t14 -34q0 -3 -1 -5t-1 -5q-3 -23 -5.5 -46t-2.5 -45q0 -61 19.5 -114.5t55 -93t86.5 -62t114 -22.5q71 0 134.5 21t111.5 68t76 121.5t28 182.5q0 64 -20 116t-54 92.5t-79 69.5t-93.5 47.5t-98 27.5t-93.5 9 h-21h-4q-23 0 -37 16.5t-14 34.5q0 26 18 41l504 414h-623q-23 0 -38 15t-15 36q0 23 15 38.5t38 15.5h764q22 0 38 -17t16 -37q0 -22 -19 -39l-313 -247q55 -13 111 -33t108.5 -51t98 -74t80 -101t54 -132.5t19.5 -167.5q0 -106 -26 -191t-70.5 -151t-105 -113 t-129.5 -77.5t-143 -45t-147 -14.5q-92 0 -173.5 28.5t-143 82t-97.5 131.5t-36 177z" />
<glyph unicode="4" horiz-adv-x="1243" d="M29 518q0 8 2.5 16.5t7.5 14.5q70 96 114.5 189t69.5 177.5t34 159t9 133.5q0 42 -3 75t-6 56q-4 27 -9 47q-2 5 -2 8v7q0 23 15.5 38t37.5 15q17 0 30.5 -10t18.5 -29q1 -2 4.5 -18t7.5 -43t7.5 -64.5t3.5 -83.5q0 -60 -8 -133t-30 -155.5t-60 -172.5t-99 -184 q202 -18 406 -18h51v768q0 14 5.5 23t12 15t13.5 8.5t10 4.5q1 0 21 5t52 17t73.5 31.5t84.5 48.5q6 5 14.5 8t16.5 3q23 0 37 -17t14 -37v-860q13 2 28.5 3t29.5 3l32 4q23 0 37 -16.5t14 -36.5t-12.5 -34.5t-32.5 -16.5q-24 -3 -47.5 -5.5t-48.5 -4.5v-353 q35 -5 70.5 -9.5t72.5 -12.5q19 -3 31 -18t12 -33q0 -23 -17 -38.5t-36 -15.5q-2 0 -4.5 0.5t-5.5 2.5q-81 15 -154 22.5t-145 7.5t-144.5 -7.5t-152.5 -22.5q-4 -3 -10 -3q-22 0 -37.5 17t-15.5 37q0 18 12 33t31 18q35 6 70 11.5t69 8.5v336q-13 0 -26 -1t-25 -1 q-127 0 -252 7.5t-252 23.5q-20 3 -33.5 17t-13.5 34z" />
<glyph unicode="5" horiz-adv-x="1219" d="M78 383q0 14 1 29t3 30q2 20 16.5 32.5t34.5 12.5q23 0 38 -17t15 -34v-8q-2 -6 -3 -17.5t-1 -23.5q0 -49 21 -103.5t59.5 -100t91.5 -75.5t117 -30q81 0 140.5 34.5t98.5 93t58.5 137t19.5 167.5t-22 160t-65 120.5t-106 76t-144 26.5q-32 0 -69 -8.5t-71 -22.5 t-60.5 -31.5t-35.5 -35.5q-8 -8 -18 -12.5t-21 -4.5q-22 0 -36.5 16.5t-14.5 36.5v9q0 5 2 10q1 1 19 47t44.5 123.5t57 179.5t55.5 213q5 19 19.5 30t31.5 11q6 0 8 -2q57 -8 123.5 -11t132.5 -3q68 0 131.5 2t112.5 5t79 5.5t32 3.5h4q22 0 37.5 -16.5t15.5 -36.5 t-13.5 -35t-33.5 -18q-5 0 -36.5 -2.5t-81 -6t-113 -6t-131.5 -2.5q-57 0 -115 3t-111 9q-28 -112 -58 -204.5t-56 -169.5q61 32 146.5 57t197.5 25q119 0 214 -40.5t162 -112.5t102.5 -171.5t35.5 -216.5q0 -131 -42 -233t-118.5 -172t-184.5 -106t-239 -36q-94 0 -180 29 t-152 83.5t-105.5 132t-39.5 175.5z" />
<glyph unicode="6" horiz-adv-x="1223" d="M109 674q0 104 12.5 204t39.5 189t70.5 163.5t105.5 129t144.5 85t186.5 30.5q59 0 109 -15t90.5 -38t71 -49.5t51.5 -50t32 -40t12 -18.5q5 -7 6.5 -14t1.5 -13q0 -23 -16.5 -38t-36.5 -15q-12 0 -24.5 7t-20.5 19q-1 2 -9.5 14.5t-24.5 30t-39 37.5t-53.5 37t-68 28 t-81.5 11q-31 0 -73.5 -6.5t-89 -27t-93 -57.5t-86 -99t-68 -152t-39.5 -215q45 68 102 113.5t118.5 72.5t122.5 38.5t112 11.5q84 0 165.5 -32t145 -98.5t102.5 -168.5t39 -242q0 -98 -20 -177.5t-54.5 -140.5t-82 -105.5t-102 -73.5t-114 -42.5t-118.5 -13.5 q-102 0 -180 27t-136.5 75.5t-98.5 116t-64.5 147.5t-35.5 170t-11 185zM231 494q0 -36 8.5 -78.5t24.5 -85.5t39 -83.5t52.5 -71.5t64 -50t74.5 -19q68 0 120 33.5t86.5 89t52 127.5t17.5 150q0 91 -21 158.5t-58.5 111t-89 65t-112.5 21.5q-67 0 -115.5 -33t-80 -85.5 t-47 -118t-15.5 -131.5z" />
<glyph unicode="7" horiz-adv-x="1112" d="M82 967q0 8 2 12q0 1 5.5 30t12 75.5t12 105t5.5 117.5v33q0 15 -2 30q2 22 15.5 38.5t35.5 16.5q31 0 57.5 -2t50.5 -2q51 0 115.5 2t135.5 5.5t144.5 8t141 9t126 8.5t99.5 8h4q23 -2 38.5 -16.5t15.5 -36.5q0 -8 -2.5 -15t-6.5 -14q-1 -1 -17.5 -28t-43.5 -76 t-62 -118t-72 -155.5t-73.5 -187.5t-66.5 -213.5t-51.5 -235t-28.5 -251.5q35 -5 70.5 -10t70.5 -13q20 -3 31.5 -17.5t11.5 -33.5q0 -26 -18 -39.5t-33 -13.5q-8 0 -10 2q-81 15 -154 22.5t-145 7.5q-73 0 -146 -7.5t-153 -22.5q-2 -2 -5 -2h-6q-23 0 -37 16.5t-14 36.5 q0 19 11.5 33.5t31.5 17.5q37 8 72.5 13t71.5 10q0 18 4 79.5t15.5 153.5t33.5 209t59 246t92 264t133 264q-102 -6 -202.5 -11t-177.5 -5q-16 0 -29.5 1t-26.5 1v-10q0 -63 -5.5 -124.5t-12.5 -110.5t-12.5 -81t-6.5 -35q-5 -18 -18.5 -29.5t-32.5 -11.5q-28 0 -40.5 18 t-12.5 34z" />
<glyph unicode="8" horiz-adv-x="1176" d="M100 418q0 73 17.5 126.5t45.5 91t63.5 62.5t70.5 43q-72 68 -104.5 144.5t-32.5 169.5q0 68 19 125t52 103.5t77 81t94.5 58t104.5 35.5t107 12q75 0 141.5 -29t116.5 -78t79.5 -114.5t29.5 -138.5q0 -82 -39 -159.5t-111 -139.5q48 -29 93.5 -63t81 -80t57.5 -107 t22 -143q0 -101 -38.5 -185.5t-107.5 -145.5t-163.5 -95.5t-206.5 -34.5q-120 0 -208.5 39t-146.5 103t-86 147t-28 172zM205 418q0 -64 21.5 -123t60.5 -104.5t92.5 -73t118.5 -27.5q68 0 115 22t76 57.5t41.5 79.5t12.5 89t-8 77t-27 56t-49 43.5t-73 40.5 q-56 28 -103.5 54.5t-89.5 54.5q-45 -12 -80 -35t-59 -55t-36.5 -71.5t-12.5 -84.5zM412 1190q0 -61 30.5 -109.5t77 -87.5t103 -70t108.5 -57q28 20 54 46t46.5 57t33 66.5t12.5 74.5q0 52 -21 98.5t-57 81.5t-84 55.5t-101 20.5q-44 0 -81 -11.5t-64 -33.5t-42 -55 t-15 -76z" />
<glyph unicode="9" horiz-adv-x="1225" d="M96 918q0 111 35.5 211t100.5 176t155.5 120.5t200.5 44.5q261 0 393.5 -176t132.5 -544q0 -103 -13 -200.5t-41 -184t-72 -159t-106 -125t-143.5 -81.5t-183.5 -29q-60 0 -109.5 15t-90 37.5t-71.5 49t-52 49.5t-32.5 39.5t-13.5 18.5q-3 6 -4.5 13.5t-1.5 13.5 q0 23 15.5 38t35.5 15q30 0 45 -24q4 -5 16 -18.5t30 -31t42 -36.5t51 -34.5t56.5 -25.5t60.5 -10q63 0 99 29t57.5 80t34 120t27.5 148q-83 -58 -201 -58q-84 0 -165.5 28.5t-145.5 91t-103 161t-39 238.5zM201 918q0 -121 32 -200.5t82 -127t112 -67t122 -19.5 q71 0 122 26.5t89 81.5q2 0 2 4q1 19 2 34.5t1.5 31.5t0.5 33v39q0 150 -20 255t-58 172t-95 97.5t-130 30.5q-66 0 -115 -32t-82 -86t-49 -125t-16 -148z" />
<glyph unicode=":" horiz-adv-x="563" d="M127 109q0 31 12 59t33 48t49 32t60 12t60 -12t48.5 -32t32.5 -48t12 -59q0 -32 -12 -60t-32.5 -49t-48.5 -33t-60 -12t-60 12t-49 33t-33 49t-12 60zM127 662q0 31 12 58.5t33 48t49 32.5t60 12t60 -12t48.5 -32.5t32.5 -48t12 -58.5q0 -33 -12 -61t-32.5 -48.5 t-48.5 -32.5t-60 -12t-60 12t-49 32.5t-33 48.5t-12 61z" />
<glyph unicode=";" horiz-adv-x="571" d="M129 88q0 31 12 59t33 48.5t49 32.5t60 12q40 0 70 -16t50 -43.5t29.5 -63.5t9.5 -76q0 -43 -11.5 -87t-37 -83.5t-65.5 -73t-97 -55.5q-5 -2 -9 -3t-9 -1q-23 0 -38 16.5t-15 36.5q0 16 9.5 29.5t25.5 19.5q45 17 72 42.5t44 54.5q-8 -2 -14 -2.5t-14 -0.5q-32 0 -60 12 t-49 33t-33 49t-12 60zM131 662q0 31 12 58.5t33 48t49 32.5t60 12t60 -12t48.5 -32.5t32.5 -48t12 -58.5q0 -33 -12 -61t-32.5 -48.5t-48.5 -32.5t-60 -12t-60 12t-49 32.5t-33 48.5t-12 61z" />
<glyph unicode="&#x3c;" horiz-adv-x="829" d="M76 729q0 12 5.5 23.5t14.5 17.5q61 45 122.5 104.5t118 121.5t105.5 122t85.5 107.5t58 77t22.5 30.5q6 11 17.5 17t25.5 6q22 0 36.5 -17.5t14.5 -35.5t-8 -29q-3 -4 -23 -32t-53.5 -71.5t-78.5 -99.5t-97 -115v-417q52 -52 96.5 -100.5t77.5 -87t53 -62.5t23 -27 q5 -8 7.5 -15.5t2.5 -17.5q0 -23 -15.5 -37t-35.5 -14q-12 0 -23.5 5t-19.5 16q-1 0 -21.5 25.5t-56 66.5t-84 93t-105 105.5t-118 104.5t-123.5 90q-14 11 -19 22.5t-5 22.5z" />
<glyph unicode="=" horiz-adv-x="1307" d="M176 500q0 21 15 37t38 16h7q105 -16 208.5 -23.5t208.5 -7.5q106 0 210.5 7.5t209.5 23.5h8q22 0 37 -16t15 -37q0 -19 -13 -33.5t-33 -17.5q-108 -16 -216 -23.5t-218 -7.5q-109 0 -216 7.5t-216 23.5q-20 3 -32.5 17.5t-12.5 33.5zM176 889q0 22 15 37.5t38 15.5h7 q105 -15 209.5 -23t209.5 -8q106 0 210.5 8t207.5 23h8q22 0 37 -15.5t15 -37.5q0 -19 -13 -33.5t-33 -17.5q-108 -16 -215 -23.5t-217 -7.5q-109 0 -217 7.5t-217 23.5q-20 3 -32.5 17.5t-12.5 33.5z" />
<glyph unicode="&#x3e;" horiz-adv-x="831" d="M127 229q0 18 12 33q2 3 21.5 27t52.5 62.5t78 87t98 100.5v417q-52 59 -97 115t-79 99.5t-54 71.5t-22 32q-10 13 -10 29q0 23 16.5 38t36.5 15q28 0 43 -23q0 -1 21.5 -30.5t57.5 -77t85 -107.5t105.5 -122t118 -121.5t122.5 -104.5q11 -6 17 -17.5t6 -23.5 q0 -14 -8 -25.5t-17 -19.5q-63 -39 -124.5 -90t-118 -104.5t-105.5 -105.5t-84.5 -93t-56.5 -67l-21 -25q-14 -21 -41 -21q-23 0 -38 15.5t-15 35.5z" />
<glyph unicode="?" horiz-adv-x="1137" d="M68 1145q0 87 41.5 153t106.5 109.5t144.5 65.5t155.5 22q121 0 222.5 -31.5t174.5 -88t113.5 -135.5t40.5 -173q0 -73 -18.5 -132.5t-49.5 -107t-71.5 -85t-84.5 -67t-89 -53t-84 -42.5q-42 -21 -71 -38t-47 -37t-26 -47t-8 -69v-27q0 -20 -13.5 -35.5t-33.5 -17.5 q-23 0 -39 13.5t-18 33.5q0 3 -1 12t-1 23q0 45 11.5 85t31.5 75t46.5 66t57.5 59q32 31 62.5 63t54 75t37.5 101t14 140q0 71 -25 130t-67.5 101t-100 65t-122.5 23q-45 0 -88.5 -20t-77 -52.5t-54 -73.5t-20.5 -83q0 -37 8.5 -61.5t18.5 -40t18.5 -22t9.5 -7.5 q33 -22 33 -51q0 -20 -14.5 -36t-36.5 -16q-8 0 -15.5 2t-15.5 9q-2 1 -19 12.5t-37.5 38t-37 68.5t-16.5 104zM336 109q0 31 12 59t33 48t49 32t59 12t59 -12t49 -32t33.5 -48t12.5 -59q0 -32 -12.5 -60t-33.5 -49t-49 -33t-59 -12t-59 12t-49 33t-33 49t-12 60z" />
<glyph unicode="@" horiz-adv-x="1561" d="M106 606q0 111 25.5 212.5t73.5 189t116.5 158t154.5 121t187.5 77.5t215.5 27q104 0 189 -24t152 -66t116.5 -98.5t82 -122t48.5 -137t16 -142.5q0 -97 -26.5 -189t-78 -164t-127 -115.5t-172.5 -43.5q-41 0 -77.5 10.5t-67.5 30.5t-54.5 48.5t-37.5 65.5 q-18 -29 -40 -54.5t-49 -45t-60 -30.5t-72 -11q-59 0 -101.5 24t-69.5 65t-40 94t-13 112q0 94 26 166t68.5 121t96 74.5t108.5 25.5q42 0 74.5 -10t56.5 -27q3 20 17.5 33.5t36.5 13.5h290q22 0 38 -15.5t16 -37.5t-16 -37.5t-38 -15.5h-63v-314q0 -21 6 -43.5t18 -41.5 t29 -31.5t39 -12.5q34 0 60.5 20t46.5 51.5t33.5 71t22 79t12 74.5t3.5 59q0 90 -29.5 177.5t-90.5 155.5t-155 110t-224 42q-148 0 -270.5 -52t-211 -143.5t-137.5 -216t-49 -268.5q0 -95 23 -181t68.5 -151t115 -103t162.5 -38q37 0 75 6.5t78 22.5q5 2 9.5 3t9.5 1 q21 0 37 -16.5t16 -36.5q0 -16 -9.5 -29.5t-25.5 -20.5q-48 -18 -95 -26t-93 -8q-116 0 -204.5 46.5t-149 125.5t-91.5 183.5t-31 221.5zM504 596q0 -35 5 -69t18 -60.5t35.5 -42.5t58.5 -16q38 0 68 17.5t52.5 46t39 66t26.5 77.5t15 79.5t5 73.5q-2 7 -7.5 26t-20 38 t-39.5 34t-64 15q-40 0 -75 -20.5t-61 -57.5t-41 -90t-15 -117z" />
<glyph unicode="A" horiz-adv-x="1681" d="M-47 31q0 18 11 32t30 19q45 11 90.5 17t93.5 10q34 165 89 330t131.5 333.5t175.5 342.5t223 358q9 12 20.5 17t22.5 5q12 0 23 -4.5t18 -13.5q210 -268 360.5 -607.5t247.5 -763.5q102 -9 203 -24q20 -3 32.5 -18t12.5 -33q0 -22 -17.5 -38t-36.5 -16q-2 0 -4 0.5 t-4 2.5q-91 14 -179.5 20t-176.5 6q-87 0 -171.5 -6t-168.5 -20q-2 -2 -4 -2.5t-4 -0.5q-22 0 -37.5 17t-15.5 37q0 18 12.5 33t32.5 18q40 8 81 12.5t84 9.5q-5 19 -12 47.5t-18.5 67.5t-27 90.5t-36.5 116.5q-85 -12 -164 -18.5t-159 -6.5q-81 0 -164 6.5t-174 18.5 q-53 -158 -86 -313q62 -2 124.5 -9.5t127.5 -21.5q18 -3 29.5 -18t11.5 -33q0 -23 -17.5 -38.5t-36.5 -15.5q-3 0 -5 1.5t-5 1.5q-66 14 -129.5 21t-126.5 7q-62 0 -122 -7t-122 -21q-3 0 -5 -1.5t-5 -1.5q-23 0 -38 16t-15 38zM410 526q80 -9 154 -14.5t147 -5.5 q72 0 143.5 5.5t146.5 14.5q-37 113 -78 208.5t-80.5 172t-75 134t-60.5 94.5q-93 -158 -166.5 -308.5t-130.5 -300.5z" />
<glyph unicode="B" horiz-adv-x="1468" d="M98 68q0 21 17.5 36t36.5 16q6 0 11.5 -1.5t10.5 -3.5q2 -2 25 -11t69 -20q-1 58 -2 151t-2.5 206.5t-3 239t-2.5 247.5t-2 233v104.5v90.5q-25 -5 -47.5 -11t-42.5 -12q-5 0 -8 -1t-6 -1q-23 0 -38.5 16.5t-15.5 36.5q0 17 10 31t27 21q85 24 203.5 39.5t255.5 15.5 q79 0 168.5 -7t178 -25.5t170 -50.5t144 -81.5t99.5 -119t37 -163.5q0 -80 -27.5 -146.5t-75.5 -117t-114 -83.5t-144 -46q50 -18 90.5 -49t69 -71.5t44 -90t15.5 -106.5q0 -77 -22 -134.5t-62.5 -100t-96.5 -71t-123 -46t-143.5 -27t-158.5 -12.5h-21q-120 1 -209 11 q-96 12 -158.5 25.5t-93.5 26t-34 14.5q-29 14 -29 48zM608 47h47q96 0 184 13.5t155.5 46.5t108 88t40.5 139q0 61 -23.5 105t-62.5 74.5t-89.5 49t-103.5 28.5t-104.5 13.5t-93.5 3.5q-17 0 -31 -1t-27 -1v-559zM608 715h125q71 0 146.5 8t148.5 26t130 55t92.5 95 t35.5 145q0 71 -33.5 125t-88.5 93t-126 64.5t-146.5 40t-149.5 18.5q-42 2 -80 2q-28 0 -54 -1v-671z" />
<glyph unicode="C" horiz-adv-x="1516" d="M102 684q0 152 32 271t87.5 208.5t130.5 152t159.5 101.5t175.5 56.5t179 17.5t158 -18.5t125 -47.5t94.5 -63.5t65.5 -65.5l55 158q6 17 20 27t29 10q22 0 37.5 -16.5t15.5 -36.5q0 -9 -4 -17l-159 -465q-5 -17 -19 -25.5t-31 -8.5q-23 0 -38 17t-15 34q0 8 4 16l64 187 q-25 40 -60.5 76.5t-77.5 64.5t-89 44.5t-95 16.5q-91 0 -162.5 -28t-125 -76t-91.5 -112.5t-61.5 -137.5t-34 -150.5t-10.5 -152.5q0 -65 7 -138.5t24 -147t45 -141t69.5 -119.5t97.5 -83t130 -31q87 0 165.5 25t143 71.5t113 111.5t75.5 145q5 18 19 29.5t32 11.5 q22 0 37 -17t15 -37v-12q-1 -2 -6.5 -20t-18 -46.5t-33 -65t-51.5 -75.5q-46 -57 -103 -99t-120.5 -70t-131.5 -42t-136 -14q-171 3 -306.5 55.5t-230 147t-145 227.5t-50.5 297z" />
<glyph unicode="D" horiz-adv-x="1546" d="M78 1329q0 17 9 30.5t26 18.5q4 1 44.5 13.5t109 27t160.5 26t198 11.5q176 0 326 -46.5t260 -139.5t172.5 -233t62.5 -326q0 -124 -32.5 -228t-90.5 -188t-139 -147t-178.5 -105.5t-207.5 -64t-227 -21.5q-98 0 -177.5 10t-137 22t-90 22.5t-35.5 11.5q-15 6 -25 19.5 t-10 29.5q0 23 17 38t37 15q5 0 9 -1t9 -3q13 -5 31 -10q29 -9 86 -21v1225q-66 -14 -101 -24q-21 -6 -37 -11q-5 -2 -9 -3t-9 -1q-23 0 -37 16.5t-14 36.5zM635 63h25q83 0 161 17q90 20 168.5 60.5t143 98.5t111 131t72 159t25.5 182q0 159 -54 282.5t-148.5 206 t-224.5 122.5q-105 32 -224 32q-27 0 -55 -2v-1289z" />
<glyph unicode="E" horiz-adv-x="1350" d="M94 35q0 20 14 34.5t35 16.5q32 3 64.5 4.5t64.5 3.5v1219q-32 2 -64 2h-63q-21 2 -36 16.5t-15 36.5t16 37.5t37 15.5q37 -2 73 -2h71q213 0 422 14t417 42h9q20 0 34 -13.5t17 -31.5l43 -338v-7q0 -23 -16.5 -37t-36.5 -14q-19 0 -33.5 12.5t-18.5 32.5l-36 285 q-116 -16 -232.5 -25.5t-234.5 -15.5v-659q24 1 64 3t86.5 6t95 9.5t90.5 13.5h10q21 0 37 -15.5t16 -35.5t-12 -34t-31 -19q-46 -9 -98.5 -15t-102 -9.5t-90.5 -5.5t-65 -3v-455h28q119 0 239.5 -3t242.5 -11l36 268q4 20 18.5 32.5t33.5 12.5q24 0 38.5 -17t14.5 -34v-8 l-43 -317q-3 -20 -18 -32.5t-35 -12.5h-2q-269 18 -525 18q-260 0 -501 -18h-5q-23 2 -38 16t-15 37z" />
<glyph unicode="F" horiz-adv-x="1337" d="M78 35q0 18 12.5 33t32.5 18q82 12 158 18l14 1231q-37 2 -74 3t-76 3q-20 2 -34.5 17t-14.5 37q0 21 16 36t38 15h2q83 -5 166.5 -6.5t166.5 -1.5q120 0 223 3t194.5 9t175.5 14.5t165 18.5h6q23 0 37 -15.5t14 -35.5v-7l-40 -426q-2 -20 -17 -33.5t-35 -13.5 q-24 0 -38.5 17.5t-14.5 36.5v4l35 360q-136 -14 -271.5 -23t-271.5 -12l-8 -639q82 0 155 8.5t142 20.5q4 2 10 2q19 0 33.5 -12t17.5 -31q0 -26 -12 -42t-31 -19q-91 -17 -167 -24t-150 -7l-4 -475q43 -2 90 -4t98 -7q23 -2 35 -19.5t12 -37.5q-2 -20 -16.5 -33.5 t-34.5 -13.5h-4q-77 6 -142.5 9t-127.5 3q-48 0 -95.5 -2t-97 -6t-102.5 -10t-111 -14h-6q-23 0 -38 15.5t-15 37.5z" />
<glyph unicode="G" horiz-adv-x="1606" d="M102 684q0 152 32 270.5t87.5 208t130.5 151t159.5 100t175.5 56t179 17.5t158 -18.5t125 -46.5t94.5 -62.5t65.5 -65.5l55 158q6 16 20 25.5t29 9.5q25 0 39 -17.5t14 -35.5q0 -3 -1 -7.5t-3 -9.5l-159 -465q-5 -15 -19 -24.5t-31 -9.5q-23 0 -38 16.5t-15 36.5q0 3 1 7 t3 9l64 187q-25 39 -60.5 75.5t-78 64.5t-89.5 45t-94 17q-120 0 -212 -51.5t-154.5 -141t-94.5 -208.5t-32 -254q0 -60 7.5 -133t25 -148t46 -145t70.5 -125t98 -88t129 -33q122 0 210 30t144.5 79t83.5 112t27 129q0 58 -16 100.5t-38 71t-45 44.5t-36 22 q-53 -7 -94.5 -18t-70 -21t-44 -17.5t-16.5 -7.5q-11 -8 -25 -8q-23 0 -38 16.5t-15 36.5q0 29 27 46q3 1 32 15t81.5 30.5t128 29.5t171.5 13q103 0 226 -21q18 -3 30.5 -17.5t12.5 -33.5q0 -26 -18 -39.5t-34 -13.5q-8 0 -10 2q-52 9 -98.5 12.5t-91.5 5.5 q37 -43 62.5 -104.5t25.5 -145.5q0 -80 -24.5 -144.5t-66.5 -115t-98.5 -87t-120 -60.5t-131.5 -35.5t-133 -11.5q-170 5 -304 57.5t-228 147.5t-143.5 230t-49.5 306z" />
<glyph unicode="H" horiz-adv-x="1714" d="M80 25q0 20 13.5 35t33.5 18q37 3 74.5 6t74.5 6l23 1262q-86 6 -174 18q-20 3 -32.5 18t-12.5 33q0 26 18 40t35 14h6q106 -16 209 -22.5t205 -6.5q62 0 122 2t120 8h4q20 0 35.5 -13.5t17.5 -33.5q0 -25 -14.5 -40t-34.5 -17l-74 -6q-37 -3 -76 -5l-16 -639 q74 -9 154 -12.5t161 -3.5q84 0 166.5 3t165.5 11q4 118 10.5 219t13 182.5t12 141t9.5 94.5q-40 2 -78.5 5t-76.5 10q-19 3 -31.5 17.5t-12.5 33.5q0 25 17.5 39t34.5 14h8q40 -8 80 -11t82 -3q63 0 129.5 8t138.5 25h12q19 0 32.5 -11.5t18.5 -29.5q0 -28 -12 -43.5 t-29 -20.5q-55 -11 -106 -18t-102 -11q-5 -45 -14.5 -148.5t-18.5 -254t-16 -341.5t-7 -411v-98q50 0 99 -2.5t102 -7.5q23 -5 35 -20.5t12 -37.5q-2 -21 -17.5 -34t-35.5 -13h-4q-57 5 -112 8t-109 3t-107 -3t-104 -8h-7q-23 0 -38 16t-15 36t13.5 35t33.5 18q38 3 75 5.5 t75 4.5v98q0 219 6 410q-82 -8 -164 -11t-164 -3q-83 0 -162.5 3t-156.5 11l-12 -506q38 -3 77.5 -6t79.5 -6q20 -3 33.5 -18t13.5 -35q0 -23 -17 -37.5t-36 -14.5h-4q-80 8 -159.5 12.5t-159.5 4.5q-79 0 -156.5 -4.5t-155.5 -12.5h-4q-23 0 -38 16t-15 36z" />
<glyph unicode="I" horiz-adv-x="926" d="M80 37q0 20 13.5 35t33.5 18q37 3 74.5 6t74.5 6l23 1244q-86 6 -174 18q-20 3 -32.5 18t-12.5 33q0 26 18 39.5t35 13.5h6q106 -15 209 -21.5t205 -6.5q62 0 122 2t120 8h4q23 0 38 -16t15 -37q0 -20 -14 -34.5t-35 -16.5q-37 -4 -74 -6.5t-76 -4.5l-32 -1233 q38 -3 77.5 -6t79.5 -6q23 -5 35 -20.5t12 -36.5q-2 -22 -17.5 -34.5t-35.5 -12.5h-4q-80 8 -159.5 12t-159.5 4q-79 0 -156.5 -4t-155.5 -12h-4q-23 0 -38 15.5t-15 35.5z" />
<glyph unicode="J" horiz-adv-x="1327" d="M41 401q0 76 29 150t88 139q17 17 39 17q23 0 38 -16t15 -36q0 -22 -14 -37q-45 -49 -67 -104.5t-22 -114.5q0 -65 26 -122t70 -99t102 -66t122 -24q86 0 149.5 28t105.5 77.5t62.5 118.5t20.5 151q0 66 -7.5 146.5t-18.5 165t-24.5 168.5t-25.5 158t-20.5 133t-10.5 93 q-37 -2 -73.5 -3t-73.5 -1q-22 -2 -37.5 14t-15.5 37q0 22 14.5 37.5t36.5 15.5q331 5 643 89q3 2 7 2h7q23 0 37 -16t14 -36q0 -18 -9.5 -32t-26.5 -19q-44 -12 -86.5 -22t-85.5 -19q26 -176 46 -336q9 -68 17 -140t14.5 -139t10.5 -126t4 -101q0 -80 -22.5 -154 t-63 -138.5t-97 -117.5t-124 -90.5t-143.5 -58t-156 -20.5q-93 0 -182 33.5t-158 93t-111.5 141.5t-42.5 180z" />
<glyph unicode="K" horiz-adv-x="1679" d="M72 1395q0 24 17 38.5t36 14.5h4q60 -6 120 -8t122 -2q102 0 205 6.5t208 21.5h7q23 0 38 -15.5t15 -37.5q0 -18 -12.5 -33t-32.5 -18q-45 -6 -88 -10.5t-86 -8.5l10 -589q48 37 112.5 90.5t135 127t140 167t126.5 209.5h-141q-22 0 -38 14.5t-16 36.5q0 23 16 38t38 15 h448q22 0 37.5 -15t15.5 -38q0 -22 -15.5 -36.5t-37.5 -14.5h-190q-31 -69 -65.5 -127.5t-71.5 -110t-77 -97.5t-81 -91q22 -19 57 -53.5t77 -84.5t87.5 -115.5t89.5 -147.5t82.5 -180t65.5 -212l223 33h6q23 0 38 -16t15 -37q0 -19 -12.5 -34t-32.5 -18l-502 -71h-6 q-18 0 -33 11t-18 30q-1 1 -8.5 30t-24.5 78t-45.5 114.5t-70 139.5t-98 152t-130.5 153q-31 -24 -55 -41t-39 -28l10 -523q37 -3 75 -6t75 -6q20 -3 33.5 -18t13.5 -35q0 -25 -18 -38t-35 -13h-7q-75 8 -152.5 12t-156.5 4q-80 0 -159.5 -4t-159.5 -12h-6q-23 0 -37.5 15.5 t-14.5 35.5t13.5 35t33.5 18q41 3 80.5 6t77.5 6l-33 1231q-38 2 -75.5 4.5t-75.5 5.5q-20 2 -33.5 17t-13.5 35z" />
<glyph unicode="L" horiz-adv-x="1341" d="M78 37q0 20 13.5 35t33.5 18q29 3 66.5 5t82.5 5l23 1264q-86 6 -174 18q-20 3 -32.5 18t-12.5 34q3 26 18 39.5t35 13.5h6q105 -16 208.5 -22.5t205.5 -6.5q62 0 122 2t120 8h4q23 0 38 -15.5t15 -37.5q0 -20 -14 -34.5t-35 -16.5q-37 -3 -74.5 -5.5t-75.5 -4.5 l-33 -1248h29q68 0 135 -1t129.5 -2.5t117.5 -3.5t99 -5l74 418q3 20 18 32.5t33 12.5q22 0 38 -16.5t16 -36.5q0 -3 -1 -5t-1 -5l-82 -465q-3 -20 -18 -31.5t-34 -11.5h-6q-41 4 -98 7t-124.5 5t-143 3t-152.5 1t-152 -1t-141.5 -3t-123 -5t-95.5 -7h-4q-20 0 -35 13 t-18 38z" />
<glyph unicode="M" horiz-adv-x="2159" d="M31 59q0 19 12 33.5t31 18.5q37 6 74.5 9t74.5 5q2 50 8.5 128t16 175t23.5 209.5t32 232.5t40.5 243t49.5 241q-56 2 -110.5 9.5t-108.5 22.5q-17 5 -28 19t-11 31q0 23 16.5 38t36.5 15h7q3 0 8 -2q54 -14 108 -21.5t111 -7.5q23 0 39.5 1t32.5 1q29 0 47 -26l510 -938 q29 85 60.5 175.5t64 179t63.5 171.5t59.5 153t52 123t40.5 82q15 25 45 25q90 8 166 14t135 10.5t98.5 7.5t56.5 5q3 0 5 1t4 1q23 0 38 -16.5t15 -36.5t-12.5 -34.5t-32.5 -17.5q-16 -3 -50 -7.5t-85 -10.5q6 -42 18.5 -117.5t27 -173t30.5 -211.5t31 -232t26.5 -234 t17.5 -218h62h53q27 0 53 -2q22 0 36.5 -14.5t14.5 -36.5q0 -23 -15.5 -38t-37.5 -15q-26 2 -52 2h-52q-144 0 -283.5 -12.5t-276.5 -36.5h-10q-23 0 -37 15.5t-14 35.5q0 18 11.5 33t31.5 18q37 8 75 14t79 11q-2 30 -6.5 90t-12 142t-18.5 182t-26 211t-35 228.5 t-46 233.5q-27 -66 -59.5 -151t-67 -179.5t-69.5 -193.5t-67.5 -193t-61 -177t-49.5 -146l-33 -100q-12 -38 -13 -40q-5 -17 -19 -25.5t-30 -8.5q-15 0 -28 7t-19 19l-485 948q-22 -166 -40 -321q-8 -66 -15.5 -136.5t-14.5 -138t-11.5 -128.5t-6.5 -109q43 -2 87 -7.5 t91 -15.5q18 -3 29.5 -17.5t11.5 -33.5q0 -26 -18 -38.5t-33 -12.5h-11q-58 11 -114.5 16.5t-112.5 5.5q-43 0 -84.5 -3t-83.5 -11h-8q-23 0 -38 16t-15 37z" />
<glyph unicode="N" horiz-adv-x="1681" d="M80 33q0 20 13.5 35t33.5 18q37 3 74.5 6t74.5 6l23 1262q-86 6 -174 18q-20 3 -32.5 18.5t-12.5 35.5q0 24 18 37.5t35 13.5h6q107 -14 209.5 -21.5t204.5 -7.5h74q1 0 6 -0.5t11.5 -2.5t14 -7t13.5 -14q4 -7 26 -45t57 -99t80.5 -141t97 -171t105.5 -189t106.5 -195.5 t101 -190t87.5 -172.5q13 131 22 266t9 277t-11 290t-36 304q-13 -2 -25 -2h-26q-59 0 -123 6q-20 2 -33.5 17.5t-13.5 35.5q0 22 16.5 37t36.5 15h6q28 -4 55.5 -5.5t55.5 -1.5q69 0 135 9t129 26q4 2 14 2q22 0 36.5 -15.5t14.5 -35.5q0 -17 -9.5 -31.5t-26.5 -19.5 q-35 -9 -69 -16.5t-69 -12.5q26 -158 36.5 -307t10.5 -295q0 -198 -15.5 -382t-37.5 -361q-6 -22 -20.5 -33.5t-32.5 -11.5q-34 0 -47 32q-28 68 -76.5 167.5t-109 214t-128 237.5t-132 238t-121.5 215.5t-97 170.5l-30 -1159q38 -3 77.5 -6t79.5 -6q20 -3 33.5 -18 t13.5 -35q0 -23 -17 -37t-36 -14h-4q-80 8 -159.5 12t-159.5 4q-79 0 -156.5 -4t-155.5 -12h-4q-22 0 -37.5 15.5t-15.5 35.5z" />
<glyph unicode="O" horiz-adv-x="1634" d="M94 711q0 106 26 205t73 184.5t113.5 156t146.5 121t172.5 78t191.5 27.5q105 0 199.5 -30t175 -83t145.5 -126t110.5 -159t70 -181t24.5 -193q0 -105 -26.5 -202.5t-74 -183.5t-114.5 -157t-147.5 -122t-172.5 -79t-190 -28q-99 0 -191.5 27.5t-172.5 78t-146.5 121 t-113.5 156t-73 184.5t-26 205zM446 727q0 -81 9.5 -162t32 -155.5t58 -139t87.5 -112t121.5 -74.5t158.5 -27q71 0 137.5 28t125 75.5t107 112t83 137t53.5 150t19 151.5q0 68 -18 142.5t-50.5 146t-78 136t-100 113t-116.5 77t-127 28.5q-88 0 -159 -26t-126.5 -70.5 t-96.5 -105.5t-67.5 -130.5t-39.5 -145t-13 -149.5z" />
<glyph unicode="P" horiz-adv-x="1458" d="M80 33q0 20 13.5 35t33.5 18q37 3 74.5 6t74.5 6l23 1241q-74 -12 -109.5 -24t-37.5 -12q-12 -5 -19 -5q-22 0 -37.5 17t-15.5 37q0 15 8.5 29t24.5 20q3 1 37 11.5t98.5 23.5t160.5 23.5t224 10.5h45q24 0 47 -2q87 -3 171 -17t160 -42.5t139.5 -70.5t110.5 -100.5 t73 -133.5t26 -168q0 -88 -26 -161.5t-71.5 -133t-106.5 -105t-131.5 -76t-146 -46t-149.5 -15.5q-40 0 -76.5 3.5t-68.5 11.5l-8 -316q38 -3 77.5 -6t79.5 -6q20 -3 33.5 -18t13.5 -35q0 -23 -17 -37t-36 -14h-4q-80 8 -159.5 12t-159.5 4q-79 0 -156.5 -4t-155.5 -12h-4 q-22 0 -37.5 15.5t-15.5 35.5zM631 520q31 -8 67 -12t76 -4q105 0 200.5 27.5t168 81.5t115 135t42.5 188q0 81 -24.5 143.5t-66 109t-98 79t-120.5 53t-133 30.5t-135 13h-70z" />
<glyph unicode="Q" horiz-adv-x="1636" d="M94 711q0 106 26 205t73 184.5t113.5 156t146.5 121t172.5 78t191.5 27.5q105 0 199.5 -30t175 -83t145.5 -126t110.5 -159t70 -181t24.5 -193q0 -102 -24.5 -196.5t-69.5 -178.5t-107.5 -154.5t-138.5 -122.5q14 -47 35.5 -88.5t51 -73t65.5 -49.5t78 -18q18 0 37 4.5 t36 15.5q6 5 13.5 7t13.5 2q20 0 36.5 -14.5t16.5 -37.5q0 -29 -24 -45q-29 -18 -62 -28t-67 -10q-58 0 -108 22t-91 60t-72.5 89.5t-52.5 110.5q-68 -32 -140.5 -49.5t-150.5 -17.5q-99 0 -191.5 27.5t-172.5 78t-146.5 121t-113.5 156t-73 184.5t-26 205zM446 727 q0 -81 9.5 -162t32 -155.5t58 -139t87.5 -112t121.5 -74.5t158.5 -27q45 0 87.5 11.5t82.5 31.5q-24 76 -69 116t-117 40q-23 0 -43.5 -4t-37.5 -9q-19 -5 -36 -12q-12 -6 -22 -6q-19 0 -36 15.5t-17 38.5q0 14 8 27t22 20q1 1 14.5 6.5t35.5 11.5t51 11t61 5 q100 0 169.5 -53t107.5 -149q58 48 106.5 112t83.5 137t54.5 151t19.5 153q0 68 -18 142.5t-50.5 146t-78 136t-100 113t-116.5 77t-127 28.5q-88 0 -159 -26t-126.5 -70.5t-96.5 -105.5t-67.5 -130.5t-39.5 -145t-13 -149.5z" />
<glyph unicode="R" horiz-adv-x="1604" d="M78 33q0 20 12.5 35t32.5 18q37 5 75.5 8t75.5 6l23 1233q-74 -12 -112 -21t-40 -9q-7 -5 -14 -5q-23 0 -38 16t-15 38q0 17 10 30.5t27 18.5q3 1 42 12t115.5 23t190 22t266.5 10q98 -5 189.5 -14t172.5 -27.5t148 -49t115.5 -78.5t75 -115.5t26.5 -159.5 q0 -73 -22.5 -137.5t-62.5 -117t-96.5 -91t-123.5 -60.5q-2 -23 -3 -47t-1 -49q0 -21 1 -59t5 -83t12.5 -92t23 -85.5t36.5 -63t53 -24.5q40 0 66 27t42 65.5t22.5 79.5t6.5 69q0 11 -1 18t-1 13q0 23 16.5 37t36.5 14t35 -13.5t17 -33.5q0 -2 1 -10.5t1 -24.5 q0 -81 -24.5 -150t-69.5 -118.5t-109 -77.5t-143 -28h-3q-73 2 -128.5 24t-97 58.5t-69.5 85.5t-45 105.5t-24.5 117.5t-7.5 121q0 18 1 35.5t1 31.5q-45 0 -87.5 4t-82.5 10l-15 -518q0 -24 -15.5 -37.5t-37.5 -13.5q-1 0 -40.5 -0.5t-101.5 -2.5t-137 -7t-147 -14h-6 q-23 0 -38 15.5t-15 35.5zM633 682q38 -8 83 -11t93 -3q59 0 122 7t123.5 23t114.5 42.5t94.5 66t64.5 93.5t24 124t-23 122.5t-64.5 90.5t-99.5 62.5t-127 39t-147.5 20t-161.5 5.5h-42q-19 0 -36 -2z" />
<glyph unicode="S" horiz-adv-x="1458" d="M117 156q0 102 10 188.5t27 171.5q5 19 18.5 31t32.5 12q23 0 38 -17.5t15 -35.5v-4q0 -2 -2 -6q-5 -23 -8.5 -42.5t-7 -38t-6 -38t-5.5 -43.5q112 -144 256 -221.5t324 -77.5q51 0 109.5 9t108 32.5t82 63t32.5 100.5q0 43 -23 78.5t-60 63.5t-83.5 49.5t-93.5 37.5 t-89.5 26.5t-72.5 16.5q-71 15 -141 33.5t-133 44.5t-117 61t-93.5 82.5t-62 110.5t-22.5 145q0 80 21.5 147.5t59.5 121.5t89.5 94.5t112.5 68t128.5 41t136.5 13.5q42 0 89.5 -6.5t94.5 -18t92.5 -27t84.5 -34t69 -39t48 -41.5q14 38 30.5 75.5t34.5 75.5q8 14 20.5 21.5 t26.5 7.5q23 0 38 -16.5t15 -36.5q0 -11 -6 -23q-52 -108 -85.5 -216.5t-47.5 -219.5q-2 -20 -16.5 -32.5t-34.5 -12.5q-23 0 -38 17t-15 34v6q12 106 43 209q-6 18 -31 38.5t-61.5 39.5t-82.5 36.5t-94 30.5t-96 21t-88 8q-61 0 -117 -13t-99.5 -42t-70.5 -74.5t-28 -109.5 q4 -56 30.5 -96.5t66 -70.5t89.5 -50.5t101.5 -35t100.5 -25t89 -19.5q101 -24 193 -54t161.5 -79t110.5 -124.5t41 -189.5q0 -109 -50 -194.5t-129 -144t-175.5 -89.5t-190.5 -31q-176 0 -325 64t-265 188v-24q0 -32 1 -63t3 -62v-4q0 -20 -13.5 -35t-35.5 -17 q-23 0 -38 14t-17 36q-2 32 -3 64.5t-1 64.5z" />
<glyph unicode="T" horiz-adv-x="1348" d="M31 1040v8q0 4 2 7q15 53 30 116t27.5 118t20.5 92t8 38q5 19 18.5 30t32.5 11h8q52 -7 126.5 -12t161 -8.5t179.5 -5.5t182 -2q109 0 201 2.5t154 7.5h4q18 0 33 -12.5t18 -30.5q0 -1 3 -17t8 -43t12.5 -62t16.5 -72.5t19.5 -76t22.5 -71.5q0 -3 1 -7.5t1 -9.5 q0 -21 -16.5 -37t-36.5 -16q-16 0 -29.5 10t-19.5 27q-13 38 -25 81.5t-21.5 85.5t-17.5 79t-12 63q-57 -3 -130 -4.5t-157 -1.5l-33 -1235q82 -3 158 -12q22 -2 34.5 -16.5t12.5 -34.5q0 -25 -16.5 -39.5t-34.5 -14.5h-6q-81 10 -160 13.5t-158 3.5q-80 0 -157 -3.5 t-154 -13.5h-6q-22 0 -37.5 17t-15.5 37t13.5 34.5t33.5 16.5q77 9 151 12l23 1241q-85 3 -159.5 7.5t-133.5 9.5q-6 -27 -14.5 -66t-19 -83t-21.5 -89.5t-23 -85.5q-5 -17 -18.5 -28t-30.5 -11q-23 0 -38 16.5t-15 36.5z" />
<glyph unicode="U" horiz-adv-x="1544" d="M74 1372q0 22 15 37.5t38 15.5h627q21 0 37 -15.5t16 -37.5t-16 -37.5t-37 -15.5h-152q-5 -32 -11.5 -89.5t-13.5 -132.5t-11.5 -165t-4.5 -187q0 -57 2.5 -130t13 -150t30 -151t53.5 -132t84.5 -93.5t121.5 -35.5q93 0 160.5 49t111 134t64.5 200t21 246q0 97 -5 195.5 t-12 186t-15 158t-13 111.5l-168 -14h-6q-22 0 -37 16.5t-15 36.5t13.5 35t33.5 18l439 35h4q21 0 36 -15.5t15 -35.5q0 -22 -13.5 -36.5t-33.5 -16.5l-164 -13q5 -44 13 -115.5t15 -160t12.5 -188t6.5 -197.5q-3 -105 -17 -201t-41.5 -179.5t-71.5 -151.5t-107 -116.5 t-147.5 -75t-192.5 -26.5q-119 0 -206 38.5t-148 103t-99 149.5t-59.5 178t-29 188t-7.5 181q0 94 4.5 179t11 155.5t14 125t13.5 89.5h-119q-23 0 -38 15.5t-15 37.5z" />
<glyph unicode="V" horiz-adv-x="1690" d="M-49 1391q0 24 18 38.5t35 14.5q2 0 3.5 -1t4.5 -1q91 -14 179.5 -21.5t175.5 -7.5q88 0 172 7.5t168 21.5q3 0 5 1t5 1q23 0 37 -16.5t14 -36.5q0 -19 -12 -34t-31 -18q-42 -8 -83.5 -12.5t-84.5 -9.5q34 -136 75 -271t92 -265t114 -254.5t141 -239.5q80 134 145.5 264 t117.5 257t91.5 252.5t67.5 250.5q-47 3 -95 9.5t-104 18.5q-18 3 -30.5 18t-12.5 34q0 21 16.5 37t36.5 16q4 0 6.5 -1t4.5 -1q66 -14 121 -21.5t108 -7.5t105 7.5t112 21.5q3 0 6 1t6 1q22 0 38 -16.5t16 -36.5q0 -19 -11.5 -33t-29.5 -19q-51 -12 -96 -18.5t-89 -9.5 q-43 -192 -107 -371t-143.5 -348t-173 -329t-194.5 -314q-8 -11 -19.5 -17t-23.5 -8q-27 0 -43 21q-212 270 -362.5 609.5t-247.5 760.5l-100 10q-50 5 -99 14q-20 3 -32.5 17.5t-12.5 34.5z" />
<glyph unicode="W" horiz-adv-x="1929" d="M-6 1391q3 24 18 37.5t35 13.5h4q114 -12 234 -12q96 0 191.5 7.5t185.5 22.5h8q23 0 38 -15.5t15 -35.5t-12.5 -35t-32.5 -18q-45 -6 -90.5 -12t-93.5 -11q4 -37 12.5 -97.5t22.5 -137t34.5 -166t49 -185t65 -194t82.5 -193.5q47 111 88.5 225.5t73.5 230.5t54 232.5 t30 233.5q2 20 15.5 33.5t33.5 15.5q20 0 35 -12t20 -31q21 -116 51 -231.5t70.5 -234t91.5 -240.5t113 -250q30 77 57.5 170t53.5 212t52 270t52 345q-45 2 -89.5 6.5t-91.5 12.5q-18 3 -30.5 17.5t-12.5 33.5q0 26 17.5 39.5t34.5 13.5h10q100 -18 201 -18q60 0 119 6 t118 20h12q22 0 38 -15.5t16 -35.5q0 -19 -12.5 -33.5t-30.5 -17.5q-48 -11 -95.5 -18t-97.5 -9q-28 -208 -55.5 -369t-56.5 -288.5t-60 -227.5t-65.5 -186t-73 -164.5t-82.5 -161.5q-6 -11 -17.5 -18.5t-25.5 -7.5q-31 0 -47 22q-62 90 -112 180t-89.5 173.5t-69.5 158 t-51 133.5q-60 -174 -125 -326.5t-145 -295.5q-6 -12 -18.5 -20.5t-26.5 -8.5q-29 0 -45 27q-87 141 -153 286.5t-114.5 284.5t-82.5 266.5t-55.5 233.5t-33 185t-16.5 122q-25 2 -49 4t-47 4q-20 3 -33.5 18.5t-13.5 35.5z" />
<glyph unicode="X" horiz-adv-x="1604" d="M-18 33q0 18 12.5 33t32.5 18q49 9 99 13.5t101 6.5q18 18 59 58t97 98.5t123.5 132.5t140.5 160q-76 130 -143 252t-120 224t-90.5 178t-55.5 116q-32 2 -64.5 3.5t-64.5 4.5q-22 2 -36 16.5t-14 34.5q0 23 17 38.5t37 15.5h4q52 -5 104 -8t105 -3q106 0 211.5 9.5 t214.5 27.5h8q23 0 38 -15.5t15 -35.5t-12 -35t-31 -18q-42 -6 -81.5 -12t-80.5 -11q17 -36 43.5 -91.5t61.5 -125.5t78 -150.5t92 -166.5q100 136 185.5 271.5t150.5 262.5q-44 3 -85 9.5t-81 15.5q-19 3 -30 17.5t-11 33.5q0 25 17.5 38t33.5 13h12q105 -24 217 -24 q113 0 236 24h10q23 0 37 -15.5t14 -35.5q0 -19 -11 -33.5t-30 -19.5q-55 -9 -108.5 -15.5t-106.5 -9.5q-71 -148 -172 -310t-223 -323q100 -170 214 -316t234 -273q41 -2 79.5 -4t76.5 -7q20 -2 33.5 -16.5t13.5 -34.5q0 -23 -15.5 -38t-35.5 -15h-6q-57 6 -113.5 8 t-113.5 2q-116 0 -228.5 -9.5t-224.5 -31.5h-8q-22 0 -37.5 15.5t-15.5 35.5q0 19 12 33.5t31 18.5q30 6 62.5 11.5t64.5 8.5q-67 82 -131 176t-125 193q-100 -115 -185.5 -206t-144.5 -151q35 -2 71.5 -6t73.5 -10q20 -3 32.5 -18t12.5 -33q0 -22 -17 -37.5t-36 -15.5 q-2 0 -4 1t-4 1q-117 18 -232 18t-229 -18q-3 0 -4.5 -1t-3.5 -1q-23 0 -38 15.5t-15 37.5z" />
<glyph unicode="Y" horiz-adv-x="1573" d="M-78 1389q0 26 18 39.5t35 13.5h7q88 -14 173.5 -20.5t170.5 -6.5t168.5 6.5t167.5 20.5h6q23 0 38 -16t15 -37q0 -19 -12.5 -34t-32.5 -18q-38 -6 -78 -10.5t-80 -7.5q26 -48 69.5 -121.5t100 -157t123.5 -168.5t141 -157q22 29 54 80.5t69 126.5t77 174.5t77 224.5 q-48 2 -95 5t-94 11q-20 3 -32.5 18t-12.5 34q0 24 17.5 38.5t34.5 14.5h8q59 -9 116.5 -14t116.5 -5t116 5t114 14h8q21 0 37 -16.5t16 -36.5q0 -19 -13 -34t-32 -18q-99 -15 -197 -18q-45 -160 -95 -281t-95.5 -207.5t-82 -138.5t-54.5 -74v-526q86 -3 174 -12 q20 -3 33.5 -18t13.5 -35q0 -25 -18 -38.5t-35 -13.5h-7q-61 8 -123.5 11.5t-125.5 3.5q-104 0 -205 -10.5t-201 -30.5h-10q-22 0 -37.5 15.5t-15.5 35.5q0 19 12 33.5t31 19.5q42 8 84 15t86 12v434q-69 65 -133.5 143.5t-121.5 159.5t-105.5 160.5t-86.5 147.5t-64.5 119 t-39.5 77q-37 3 -74 6.5t-74 9.5q-20 3 -32.5 18t-12.5 34z" />
<glyph unicode="Z" horiz-adv-x="1372" d="M68 27q0 8 2.5 14t5.5 12l749 1282h-125q-108 0 -213 3t-208 10q-10 -85 -27.5 -169t-40.5 -169q-6 -17 -20 -27t-31 -10q-23 0 -38.5 16t-15.5 35q0 5 1.5 8t1.5 8q27 91 44 183.5t25 185.5q3 20 18 33.5t35 13.5h5q114 -8 229 -12t235 -4q122 0 246.5 4t255.5 12h2 q23 -2 38 -16.5t15 -36.5q0 -6 -1.5 -13.5t-6.5 -13.5l-729 -1272q74 4 147.5 4.5t147.5 0.5q81 0 160 -2t160 -5q2 104 10 200t26 190q4 18 18.5 30.5t33.5 12.5q21 0 37 -17t16 -37q0 -6 -2 -10q-17 -94 -26 -192.5t-9 -204.5v-25q0 -22 -15.5 -37.5t-35.5 -15.5h-4 q-93 5 -186 6.5t-187 1.5q-173 0 -344 -7.5t-342 -21.5h-4q-22 0 -37.5 16t-15.5 36z" />
<glyph unicode="[" horiz-adv-x="762" d="M158 -444v2361q0 22 16.5 37.5t36.5 15.5q4 0 6 -2q53 -6 106.5 -10t112.5 -4q57 0 118.5 4t129.5 10q2 2 6 2q23 0 38 -16.5t15 -36.5t-13.5 -34.5t-33.5 -16.5q-101 -12 -188 -15v-2224q53 -3 100 -8.5t90 -11.5q20 -3 32.5 -18t12.5 -33q0 -26 -18 -40t-35 -14h-8 q-59 10 -121.5 16.5t-130.5 6.5q-51 0 -103 -5t-106 -16q-4 -2 -10 -2q-23 0 -38 16t-15 38z" />
<glyph unicode="\" horiz-adv-x="1233" d="M49 1448q0 22 15.5 37.5t35.5 15.5h242q15 0 28 -8.5t19 -24.5q75 -169 161 -341t183.5 -350t207.5 -361.5t233 -374.5q8 -13 8 -29q0 -23 -17 -38t-37 -15q-23 0 -41 21q-298 370 -553.5 726.5t-476.5 712.5q-8 15 -8 29z" />
<glyph unicode="]" horiz-adv-x="762" d="M18 -444q0 18 12.5 33t32.5 18q44 6 91 11.5t100 8.5v2224q-91 3 -188 15q-20 2 -34 16.5t-14 34.5q0 25 17.5 39t36.5 14q2 0 4 -2q68 -6 130.5 -10t119.5 -4q58 0 112 4t107 10q2 2 6 2q22 0 37.5 -17t15.5 -36v-2361q0 -23 -15.5 -38.5t-37.5 -15.5q-8 0 -12 2 q-53 11 -104.5 16t-102.5 5q-68 0 -130.5 -6.5t-121.5 -16.5h-8q-23 0 -38.5 16t-15.5 38z" />
<glyph unicode="^" horiz-adv-x="872" d="M0 688q0 5 0.5 10.5t3.5 12.5l350 735q6 14 19 22.5t28 8.5q31 0 48 -27l417 -737q6 -12 6 -25q0 -23 -17 -38t-36 -15h-282q-31 0 -48 27l-210 380l-181 -376q-6 -16 -18.5 -23.5t-28.5 -7.5q-23 0 -37 16.5t-14 36.5z" />
<glyph unicode="_" d="M135 -246q0 22 15 37.5t38 15.5q2 0 3.5 -1t3.5 -1q64 -8 121 -14.5t108.5 -11t98.5 -6.5t93 -2q48 0 96.5 2t99 6.5t105 11t115.5 14.5q2 0 4 1t4 1q22 0 37 -15.5t15 -37.5q0 -20 -12.5 -34.5t-32.5 -16.5q-110 -15 -217.5 -23t-217.5 -8q-108 0 -215 8t-217 23 q-20 2 -32.5 16.5t-12.5 34.5z" />
<glyph unicode="`" horiz-adv-x="635" d="M0 1671q0 20 15 35.5t38 15.5h275q31 0 47 -26l254 -475q6 -11 6 -25q0 -20 -15 -35.5t-38 -15.5q-20 0 -35 12l-529 473q-18 15 -18 41z" />
<glyph unicode="a" horiz-adv-x="1253" d="M90 145q0 75 32.5 132t85.5 99.5t120.5 71t137.5 46t136 25t117 7.5h24q0 61 -21.5 119t-60 103t-91.5 72.5t-117 27.5q-47 0 -92 -26.5t-80 -67.5t-56.5 -92t-21.5 -99q0 -20 -16.5 -33.5t-36.5 -13.5q-22 0 -38 16.5t-16 36.5q0 48 17 100.5t49.5 103t79 95.5t106 79.5 t130.5 54.5t151 20q112 0 191.5 -35t133 -95t84.5 -139t47 -167t20.5 -179t4.5 -174q0 -42 -1 -72t-1 -50q15 0 30.5 1t30.5 1q17 0 35.5 -1t36.5 -1q22 -2 35.5 -17t13.5 -37q0 -21 -14.5 -37t-36.5 -16h-4q-17 2 -35 2h-35q-94 0 -180.5 -12t-173.5 -37q-3 0 -6 -1t-8 -1 q-23 0 -37.5 17.5t-14.5 35.5v8q0 2 5 40.5t10 107.5q-43 -48 -91.5 -89.5t-102 -72t-110.5 -48t-118 -17.5q-48 0 -93 14.5t-79.5 41.5t-55 65.5t-20.5 86.5zM195 145q0 -28 13.5 -48t34 -32.5t45.5 -18t48 -5.5q71 0 134.5 27.5t117.5 72t97 99.5t75 110q-2 17 -3 35 t-1 37h-37q-40 0 -94.5 -6t-112.5 -19t-115 -34.5t-102 -52t-72.5 -71.5t-27.5 -94z" />
<glyph unicode="b" horiz-adv-x="1233" d="M-102 1378q0 13 5.5 23t13.5 17t17 10.5t17 3.5h4q2 0 4 -2q1 0 15 -2t38 -4.5t56.5 -4.5t70.5 -2q62 0 136 7.5t149 29.5q8 4 14 4q23 0 38.5 -16.5t15.5 -36.5v-2q0 -1 -1 -44.5t-1.5 -116t-1.5 -167.5t-1 -198q22 31 52.5 57t68 45t79.5 29t87 10q98 0 169 -37.5 t116.5 -102.5t67.5 -153t22 -188q0 -128 -37 -239.5t-108 -194.5t-174 -131t-236 -48q-96 0 -178.5 33.5t-144 93.5t-98 142t-40.5 180q-2 62 -3 158.5t-1 207.5q0 83 0.5 168t1 161.5t1 139.5t1.5 103q-83 0 -135 7t-57 9q-19 3 -31 18t-12 33zM487 664q0 -62 1.5 -121 t3.5 -115q2 -74 17.5 -136.5t45.5 -107.5t75.5 -70.5t108.5 -25.5q81 0 138.5 40t94.5 104t54.5 144t17.5 161q0 78 -14 146.5t-45.5 119.5t-82.5 80.5t-126 29.5q-42 0 -79 -14t-68.5 -37t-57 -51t-43.5 -55.5t-28.5 -52t-12.5 -39.5z" />
<glyph unicode="c" horiz-adv-x="1176" d="M80 475q0 126 34.5 234t101 187t164 124t224.5 45q114 0 212 -45.5t161 -136.5l33 204q3 19 17.5 31t33.5 12q25 0 39 -17t14 -34v-8l-63 -407q-3 -20 -18.5 -33t-35.5 -13t-34.5 14t-16.5 36q0 43 -18 90t-49 86t-71 64.5t-85 25.5q-56 0 -99 -23.5t-75 -62.5t-53 -89 t-34 -102.5t-18.5 -103.5t-5.5 -92q0 -70 15.5 -140t47.5 -125.5t82 -90.5t119 -35q51 0 96 23t80.5 59.5t60.5 80.5t36 86q5 19 18.5 31t32.5 12q22 0 37.5 -16.5t15.5 -36.5q0 -6 -2 -10q-7 -33 -24 -72t-44.5 -78t-66.5 -75.5t-89 -64.5t-111 -45t-134 -17 q-115 0 -212 38.5t-167 108t-109.5 167t-39.5 214.5z" />
<glyph unicode="d" horiz-adv-x="1384" d="M84 444q0 75 12.5 147.5t38.5 138t64.5 121.5t90.5 96.5t117 63.5t144 23q87 0 159 -26t126 -72v403q-62 3 -104.5 8t-47.5 5q-20 3 -33.5 18t-13.5 35q0 22 16.5 36.5t36.5 14.5h6q1 0 23 -2.5t57.5 -5.5t81.5 -5.5t94 -2.5q47 0 92.5 3.5t83.5 12.5h13q23 0 37 -15.5 t14 -35.5v-1292h20q26 0 52.5 -0.5t52.5 -3.5q22 -2 35.5 -17t13.5 -35q0 -24 -17.5 -38.5t-35.5 -14.5h-4q-25 2 -49.5 3t-47.5 1q-64 0 -120 -6t-97.5 -13.5t-66 -13.5t-25.5 -6q-3 -2 -7 -2h-7q-23 0 -38 16.5t-15 36.5v170q-23 -48 -58.5 -89t-79.5 -71t-96.5 -47.5 t-109.5 -17.5q-96 0 -171 39t-127.5 104.5t-80.5 152.5t-29 183zM188 446q1 -73 20.5 -140.5t58 -120t94 -84t128.5 -31.5q67 0 119 31.5t91.5 79.5t66.5 105.5t43 109.5q17 54 23 94q5 31 4 45v8v211q-15 45 -45 78t-68.5 55t-82.5 32.5t-89 10.5q-68 0 -121 -21.5t-93 -58 t-68.5 -85t-46.5 -102t-26 -109.5t-8 -108z" />
<glyph unicode="e" horiz-adv-x="1147" d="M82 496q0 127 38 226.5t108 168t170 104t225 35.5q118 -5 203.5 -40t140.5 -97t81.5 -149.5t26.5 -196.5q0 -25 -1 -39.5t-1 -18.5q-3 -26 -28 -45t-63 -33.5t-83.5 -24t-89.5 -15.5t-81 -8.5t-58 -2.5q-73 0 -134.5 10t-101.5 21q6 -62 23 -122t49 -107.5t80 -77 t116 -29.5q25 0 57 6.5t63 19t57 30t41 39.5q17 20 41 20q21 0 37 -16.5t16 -36.5q0 -21 -13 -33q-24 -37 -67 -63t-93 -42.5t-101 -24t-93 -7.5q-120 0 -223 42.5t-179 116.5t-119.5 174t-43.5 216zM432 502q16 -5 40.5 -11t55.5 -11.5t67.5 -9t76.5 -3.5q85 0 159.5 16 t139.5 45v17q0 75 -16 139t-50.5 113.5t-88.5 81.5t-130 43q-53 -6 -92 -29t-66.5 -56.5t-45.5 -75.5t-28.5 -86.5t-15.5 -89t-6 -83.5z" />
<glyph unicode="f" horiz-adv-x="889" d="M43 948q0 22 16 37.5t37 15.5h2q42 -3 84 -3.5t84 -2.5v37q0 110 31.5 202t90.5 158t144 103t193 37q93 0 167 -31.5t125 -83.5t77 -117q24 -61 24 -125v-10v-2q0 -21 -15.5 -36t-37.5 -15t-36.5 15t-16.5 36q-3 40 -15.5 81t-35.5 74t-56 54t-78 21q-47 0 -80.5 -20 t-56.5 -53t-37 -74.5t-22 -85.5t-10.5 -85.5t-2.5 -73.5v-6q42 2 84 2.5t84 3.5h2q22 0 37 -14.5t17 -36.5q0 -23 -15 -38t-36 -15q-87 -6 -173 -6v-766q41 -5 81.5 -11t82.5 -14q19 -3 30 -17.5t11 -33.5q0 -26 -17 -39.5t-34 -13.5q-3 0 -5 1t-5 1q-79 15 -158 23t-160 8 q-78 0 -156 -8t-157 -23q-3 0 -5.5 -1t-4.5 -1q-23 0 -38 16.5t-15 36.5q0 19 11.5 33.5t31.5 17.5q38 8 76.5 14t78.5 9v768q-84 0 -174 6q-20 0 -34.5 15t-14.5 36z" />
<glyph unicode="g" horiz-adv-x="1354" d="M84 453q0 120 30 227.5t90.5 187.5t151.5 127t213 47q88 -3 151.5 -29t108.5 -63l-2 11v2q0 21 17 37t37 16h2q1 0 17 -1t41.5 -2t59 -2t68.5 -1q51 0 100.5 2t83.5 8q2 2 5 2h4q21 0 37 -16.5t16 -36.5q0 -19 -12.5 -33.5t-30.5 -17.5q-19 -4 -40 -6.5t-44 -4.5 q0 -31 1 -85.5t1 -129.5q0 -62 -1 -133.5t-3 -149.5t-5.5 -160.5t-9.5 -166.5q-8 -122 -51 -233t-116 -195t-174 -134t-224 -50q-84 0 -156.5 28t-125.5 77t-83 116t-30 145v2q0 22 15 37.5t38 15.5q22 0 36.5 -15.5t14.5 -37.5q0 -62 24 -110.5t64.5 -83t92.5 -52.5 t108 -18q54 0 94 36t68 111.5t44.5 193t23.5 280.5q-23 -47 -58 -87.5t-79.5 -70.5t-96 -47t-108.5 -17q-96 0 -171 39t-127.5 105t-80.5 153t-29 183zM188 455q1 -73 20.5 -141t58 -120.5t94 -84t128.5 -31.5q53 0 99.5 24.5t85.5 65t69.5 91.5t51.5 105t32 106t11 93v107 q0 51 -2 96q-5 12 -19.5 39.5t-45 56t-80.5 51t-126 25.5q-101 0 -172 -38.5t-117 -104.5t-67 -154t-21 -186z" />
<glyph unicode="h" horiz-adv-x="1391" d="M0 1374q0 25 18 38t35 13h6q1 0 23 -2.5t57.5 -5.5t80.5 -5.5t93 -2.5t94 3.5t85 12.5h10q23 0 38 -15.5t15 -35.5v-508q57 88 135.5 132t175.5 44q104 0 174.5 -38t114 -103t62 -153.5t18.5 -188.5q0 -177 -53 -428q31 0 61.5 -2.5t59.5 -7.5q20 -2 33.5 -16.5 t13.5 -34.5q0 -22 -17 -38t-37 -16q-4 0 -6 2q-35 5 -69 7t-68 2q-51 0 -101.5 -5t-101.5 -14q-2 -2 -4 -2h-4q-23 0 -38 16.5t-15 36.5q0 19 12 33.5t31 18.5q71 15 143 18q55 253 55 432q0 78 -11.5 146.5t-41 119.5t-80.5 81t-131 30q-45 0 -85.5 -17t-75 -45.5 t-62.5 -66.5t-47.5 -79.5t-30 -84.5t-10.5 -82l-2 -446q35 -3 70.5 -9t72.5 -14q19 -3 31 -17.5t12 -33.5q0 -23 -16.5 -37t-36.5 -14h-10q-81 15 -154 23t-145 8q-71 0 -144 -8t-153 -23h-10q-23 0 -37.5 15.5t-14.5 35.5q0 19 11.5 33.5t29.5 17.5q35 8 70.5 13t69.5 10 v1192q-63 3 -106 7.5t-48 4.5q-20 3 -32.5 18t-12.5 35z" />
<glyph unicode="i" horiz-adv-x="793" d="M39 934q0 25 18 38t35 13h6q1 0 23 -2.5t57.5 -5.5t80.5 -5.5t93 -2.5t94 3.5t84 12.5h11q23 0 38 -15.5t15 -35.5l-2 -832q35 -5 70.5 -9.5t72.5 -12.5q19 -3 31 -18t12 -33q0 -23 -17 -38.5t-36 -15.5q-2 0 -4.5 1t-5.5 1q-81 16 -154 23.5t-145 7.5q-73 0 -145 -7.5 t-152 -23.5q-3 0 -5 -1t-5 -1q-23 0 -37.5 17t-14.5 37q0 18 11.5 33t29.5 18q35 8 70.5 12.5t69.5 9.5v766q-63 3 -106 8t-48 5q-20 3 -32.5 18t-12.5 35zM223 1290q0 37 14 69.5t38 56.5t56.5 38t69.5 14t69.5 -14t57 -38t38.5 -56.5t14 -69.5t-14 -69.5t-38.5 -56.5 t-57 -38t-69.5 -14t-69.5 14t-56.5 38t-38 56.5t-14 69.5z" />
<glyph unicode="j" horiz-adv-x="711" d="M-276 -162q0 22 15 37.5t38 15.5q21 0 36 -15.5t15 -37.5q1 -29 13 -66.5t34.5 -71t54.5 -56.5t72 -23q53 0 89 27t59 70t34.5 97t16.5 108t5.5 102.5t0.5 80.5v783q-63 3 -106 7.5t-46 4.5q-20 3 -33.5 18t-13.5 35q0 22 16.5 37t36.5 15h7q1 0 23 -2.5t57.5 -6t80.5 -6 t93 -2.5t94 3.5t84 13.5h12q22 0 36.5 -15.5t14.5 -34.5q0 -1 1 -30.5t2.5 -81t3 -122.5t1.5 -155q0 -109 -3 -233t-11 -252q-8 -118 -38 -224t-86.5 -186t-141 -127t-201.5 -47q-76 0 -143 24.5t-116.5 69.5t-78 107.5t-28.5 138.5zM193 1311q0 37 14 69.5t38 56.5t57 38 t71 14q37 0 69.5 -14t56.5 -38t38 -56.5t14 -69.5t-14 -69.5t-38 -56.5t-56.5 -38t-69.5 -14q-38 0 -71 14t-57 38t-38 56.5t-14 69.5z" />
<glyph unicode="k" horiz-adv-x="1413" d="M-4 1380q0 25 18 38.5t35 13.5h6q1 0 23 -2.5t57.5 -6t80.5 -6t93 -2.5t94 3.5t84 13.5h11q23 0 38 -16t15 -36v-854q158 31 271.5 113.5t183.5 234.5h-23q-56 0 -91 3.5t-40 3.5q-20 3 -32.5 18t-12.5 35q0 25 18 38t35 13h6q2 0 35 -3t82 -3q28 0 60 2t65 6.5t64.5 13 t60.5 21.5q9 6 20 6q23 0 38.5 -16.5t15.5 -36.5q0 -16 -8 -28.5t-23 -18.5q-35 -17 -74 -28t-80 -17q-37 -102 -89.5 -175t-110.5 -122q28 -82 59 -154.5t62.5 -126.5t62 -85.5t57.5 -31.5q23 0 35 17.5t16.5 40.5t4.5 47v37q0 31 -2.5 60t-5.5 51t-5.5 35t-3.5 13v13 q0 21 15.5 37t35.5 16q19 0 33.5 -11t18.5 -30q1 -3 4 -18.5t6.5 -39.5t6.5 -55.5t3 -66.5q0 -73 -17 -136.5t-53.5 -110t-93 -73t-135.5 -26.5q-60 0 -110.5 19.5t-93 52t-77.5 76.5t-62.5 93t-48 100.5t-34.5 100.5q-14 -3 -26.5 -4.5t-24.5 -3.5v-326q26 -3 50.5 -6 t47.5 -6q19 -3 31 -18t12 -33q0 -25 -17 -39t-34 -14h-8q-63 9 -132.5 16.5t-150.5 7.5q-59 0 -122 -5t-132 -19h-10q-23 0 -38 16.5t-15 36.5q0 18 12 32t31 19q60 12 121 18v1213q-63 3 -106 7.5t-48 4.5q-20 3 -32.5 18t-12.5 35z" />
<glyph unicode="l" horiz-adv-x="735" d="M25 37q0 18 11 32t30 19q37 6 67 9.5t64 6.5v1221q-63 5 -90.5 9.5t-32.5 4.5q-20 3 -32.5 18t-12.5 34q0 26 18 39.5t35 13.5h6q1 0 18 -2.5t46.5 -6t70 -6t88.5 -2.5t94 3.5t84 11.5q3 2 11 2q23 0 38 -16.5t15 -36.5l-2 -1287q17 -2 28.5 -3.5t22 -3t22 -3t29.5 -4.5 q19 -5 31 -19t12 -32q0 -23 -16.5 -38t-36.5 -15h-10q-40 7 -73 12t-63 7.5t-60.5 3.5t-65.5 1q-71 0 -138 -5.5t-147 -20.5h-10q-25 0 -38 15.5t-13 37.5z" />
<glyph unicode="m" horiz-adv-x="1903" d="M27 913q0 25 18 38.5t35 13.5h6q1 0 23 -2.5t57.5 -6t80.5 -6t93 -2.5t94 3.5t84 13.5h10q23 0 38.5 -16t15.5 -36v-131q24 39 55.5 75t70.5 64t86 45t101 17q48 0 87 -14t69.5 -39.5t52.5 -60.5t35 -76q22 34 52.5 68t70 61t89 44t109.5 17q84 0 137.5 -36t84.5 -92 t43 -126t12 -137q0 -53 -5.5 -118.5t-13.5 -130.5t-16.5 -124.5t-15.5 -99.5q37 0 71 -2.5t68 -7.5q20 -2 33.5 -17t13.5 -35q0 -21 -16.5 -37t-36.5 -16h-7q-37 5 -74 7.5t-77 2.5q-48 0 -103 -4.5t-124 -15.5h-9q-21 0 -36 15.5t-15 35.5t12.5 35t30.5 18q45 6 85 11t75 8 q7 35 16.5 94t17.5 125.5t13.5 134t5.5 119.5q0 49 -6 100.5t-24 93.5t-51.5 68.5t-88.5 26.5q-70 0 -120.5 -29t-86.5 -71.5t-58.5 -91.5t-35.5 -89q0 -80 -6 -152q-3 -44 -8 -90.5t-10 -90t-10 -82t-9 -66.5q31 0 63.5 -2.5t67.5 -5.5q22 -2 34.5 -17t12.5 -35 q0 -24 -16 -38.5t-35 -14.5h-6q-42 5 -79 6.5t-73 1.5q-52 0 -104.5 -4.5t-114.5 -13.5h-8q-22 0 -36.5 15.5t-14.5 35.5t12.5 35t32.5 18q43 6 81 10.5t77 6.5q4 25 9 63.5t10.5 84.5t11 95t8.5 95q2 34 4 71.5t2 77.5q0 48 -5 97t-22 89t-48.5 65.5t-84.5 25.5 q-50 0 -92 -22.5t-76 -57t-59.5 -76t-43.5 -80t-28.5 -68t-13.5 -40.5l-2 -437q18 -2 35 -4l34 -4q20 -3 33.5 -18t13.5 -35q0 -22 -16.5 -36.5t-36.5 -14.5h-6q-60 8 -122.5 13t-131.5 5q-62 0 -130.5 -5.5t-146.5 -21.5q-3 0 -5 -1t-5 -1q-23 0 -37 17t-14 37q0 18 11 33 t30 18q37 8 71 12.5t68 7.5v748q-63 3 -105.5 7.5t-47.5 4.5q-20 3 -32.5 18t-12.5 35z" />
<glyph unicode="n" horiz-adv-x="1354" d="M27 924q0 24 17 38.5t36 14.5q4 0 6 -2q1 0 23 -2t57.5 -5t80.5 -5t93 -2t94 2.5t84 11.5q2 0 4.5 1t5.5 1q23 0 38.5 -16.5t15.5 -36.5v-103q58 85 138.5 128.5t182.5 43.5q60 0 104.5 -20.5t77 -55.5t53 -80.5t33 -95.5t17 -101.5t4.5 -96.5q0 -50 -5 -109.5 t-12.5 -118.5t-17 -112t-18.5 -90q38 -2 78.5 -4t82.5 -7q23 -2 35.5 -19.5t12.5 -37.5q-2 -20 -18 -33.5t-36 -13.5h-4q-48 5 -92.5 7.5t-87.5 2.5q-63 0 -120.5 -5.5t-112.5 -14.5q-2 0 -4.5 -1t-4.5 -1q-21 0 -37 16.5t-16 36.5q0 18 12.5 33t30.5 18q42 8 84.5 12.5 t87.5 8.5q9 31 19 84t18.5 114t14 123t5.5 111q0 51 -5.5 111t-25 112.5t-56 87.5t-97.5 35q-69 0 -128 -34t-101.5 -86.5t-67 -115.5t-24.5 -121v-2l-2 -440q18 -2 35 -3.5t34 -4.5q20 -2 33.5 -16.5t13.5 -34.5q0 -22 -16.5 -38t-36.5 -16q-4 0 -6 3q-60 6 -122.5 12 t-131.5 6q-62 0 -130.5 -6.5t-146.5 -20.5q-4 -2 -10 -2q-23 0 -37 17t-14 37q0 18 11 33t30 18q37 8 71 12.5t68 7.5v764q-63 3 -105.5 7.5t-47.5 6.5q-20 2 -32.5 17t-12.5 35z" />
<glyph unicode="o" d="M82 494q0 118 41 218t113 172.5t169.5 113t210.5 40.5q118 0 216.5 -43.5t169.5 -118t110 -173.5t39 -209q0 -120 -43 -220t-116 -171.5t-170.5 -111.5t-205.5 -40q-122 0 -220.5 38.5t-168.5 109.5t-107.5 171t-37.5 224zM434 504q0 -44 4 -93.5t14 -98t27 -93.5t44 -79 t65.5 -54t91.5 -20q87 0 155.5 36.5t115.5 96.5t71.5 137t24.5 158q0 49 -11 99t-32 97t-51 88t-67.5 71.5t-82 48t-94.5 17.5q-56 0 -97.5 -18.5t-72.5 -50t-51 -72.5t-32 -87t-17 -93t-5 -90z" />
<glyph unicode="p" horiz-adv-x="1384" d="M20 954q0 26 18.5 40t35.5 14h6q1 0 21 -2.5t52.5 -6t74.5 -6t87 -2.5q44 0 88 3.5t82 11.5q4 2 11 2q23 0 38 -17t15 -37v-163q60 105 148.5 166t197.5 61q98 0 173 -43t126.5 -112t78.5 -155t30 -171q0 -72 -13.5 -143.5t-40 -137t-65.5 -122t-91 -98t-116.5 -65.5 t-140.5 -24q-81 0 -155.5 25.5t-131.5 74.5v-471q23 -2 47 -4.5t47 -5.5q20 -3 32.5 -18t12.5 -33q0 -26 -18 -40t-35 -14h-6q-59 8 -121 13.5t-131 5.5q-63 0 -131.5 -5.5t-147.5 -21.5h-8q-23 0 -38 15.5t-15 35.5q0 19 11.5 33.5t31.5 18.5q60 12 113 18v1317 q-54 3 -89 7.5t-38 4.5q-20 3 -33 18t-13 33zM549 233q12 -47 42 -80.5t70 -56t86 -33t89 -10.5q66 0 118.5 22t92.5 59t68 85.5t46 102.5t26.5 109.5t8.5 105.5q-1 69 -21 136.5t-58.5 120.5t-94 86t-127.5 33q-53 0 -99.5 -23t-85 -61t-68.5 -87t-50.5 -102t-31.5 -106 t-11 -98v-203z" />
<glyph unicode="q" horiz-adv-x="1393" d="M84 444q0 116 31.5 220.5t93 183t152 124.5t208.5 46q93 -5 158.5 -32.5t110.5 -67.5v36q0 23 15.5 38.5t35.5 15.5q8 0 12 -2q38 -8 81.5 -11.5t88.5 -3.5t87.5 2.5t74.5 5.5q38 4 72 9h8q23 0 38 -17t15 -37q0 -18 -13 -33t-32 -18q-5 0 -39.5 -4.5t-87.5 -7.5v-1323 q34 -2 68.5 -3.5t68.5 -6.5q19 -3 32 -18.5t13 -35.5t-17 -35.5t-36 -15.5h-8q-35 5 -72.5 7.5t-75.5 2.5q-46 0 -89 -2.5t-78.5 -6t-60.5 -7t-36 -4.5q-4 -2 -12 -2h-2q-31 3 -41 21t-10 44v670q-23 -47 -58.5 -88.5t-80 -73t-97 -49.5t-110.5 -18q-99 0 -175.5 41.5 t-128 110.5t-78 158.5t-26.5 186.5zM188 442q0 -74 19 -144t56.5 -124.5t94 -87.5t131.5 -33q54 0 101 23.5t86 62.5t68.5 89.5t50.5 104t31.5 106t11.5 96.5v198q-2 5 -7.5 19.5t-17.5 33.5t-32 40.5t-49.5 40t-70.5 31.5t-96 15q-66 0 -119.5 -19t-95.5 -52.5t-72.5 -78.5 t-50.5 -97.5t-29.5 -109.5t-9.5 -114z" />
<glyph unicode="r" horiz-adv-x="1214" d="M49 930q0 25 17.5 39t35.5 14h7q1 -1 23 -3.5t57 -5.5t80.5 -5t92.5 -2q48 0 94 3t85 11q2 2 10 2q23 0 38 -16.5t15 -36.5v-72q43 60 108.5 99.5t155.5 39.5q68 -2 124 -23.5t96.5 -59t63 -90t22.5 -117.5q0 -41 -13 -79t-37 -67.5t-58.5 -47t-76.5 -17.5 q-37 0 -69.5 14t-56.5 38t-38 56.5t-14 69.5t14 69.5t38 57t56.5 39t69.5 14.5q5 0 9.5 -1t9.5 -1q-26 20 -60.5 30.5t-79.5 10.5q-57 0 -99 -23.5t-71.5 -59t-47.5 -77t-28.5 -78t-14 -62.5t-3.5 -30l-2 -444q35 -3 70.5 -9t72.5 -12q19 -5 31 -19.5t12 -33.5 q0 -22 -17 -36.5t-36 -14.5h-10q-81 15 -154 23t-145 8t-144 -8t-153 -23h-10q-23 0 -37 15.5t-14 35.5q0 19 11 33.5t30 19.5l70 12q35 6 69 9v745q-63 3 -106 8t-48 7q-20 2 -32.5 16.5t-12.5 34.5z" />
<glyph unicode="s" horiz-adv-x="1171" d="M102 60v42q0 37 1.5 73t3.5 64.5t3.5 47t2.5 20.5q2 20 16.5 33.5t34.5 13.5q25 0 39 -16t14 -35v-6q-1 -8 -2 -18q-1 -8 -2 -20t-2 -26q91 -97 200.5 -141.5t237.5 -44.5q15 0 39 2t50.5 6.5t53.5 12t48.5 19t35 27.5t13.5 38t-19.5 39.5t-49.5 31.5t-66.5 24t-71 17 t-62 11t-40.5 6q-86 9 -169.5 33.5t-150.5 67.5t-108 106t-41 149q0 88 36 158.5t94.5 119.5t134 75t154.5 26q104 0 197.5 -25.5t171.5 -79.5q9 22 21 44.5t24 43.5q8 13 20.5 19t24.5 6q23 0 38 -15.5t15 -35.5q0 -16 -8 -27q-38 -68 -63.5 -137.5t-34.5 -140.5 q-3 -19 -18 -32t-35 -13q-22 0 -37 16.5t-15 36.5v8q11 62 29 125q-72 57 -157 79.5t-173 22.5q-30 0 -63 -6.5t-61.5 -21t-47 -38.5t-18.5 -59q0 -31 20 -54.5t51 -41.5t69.5 -31t76 -22t70 -15t51.5 -10q70 -14 143.5 -36.5t134 -60t99.5 -93.5t39 -137q0 -57 -20 -104.5 t-54 -86t-78.5 -67t-94 -48t-100.5 -29t-98 -9.5q-127 0 -239 37.5t-203 115.5v-34q0 -16 2 -31v-4q0 -20 -13.5 -36t-33.5 -16q-23 0 -39.5 13.5t-18.5 33.5t-2 40z" />
<glyph unicode="t" horiz-adv-x="934" d="M-6 973q0 23 17.5 37t35.5 14h4q44 -3 86.5 -6t85.5 -6v340q0 17 11 31.5t28 19.5l250 67q3 2 7 2.5t7 0.5q23 0 37.5 -17t14.5 -37v-409q61 2 123.5 5.5t125.5 8.5h4q22 0 37 -15.5t15 -35.5t-13.5 -35.5t-33.5 -17.5q-65 -5 -129 -9t-129 -6v-700q0 -20 8.5 -37t22 -29 t30.5 -19t35 -7q27 0 44.5 14.5t29.5 36t19.5 45.5t12.5 43q3 18 18 29.5t33 11.5q23 0 37.5 -17.5t14.5 -35.5v-11q-29 -133 -114 -205.5t-210 -72.5q-57 0 -117 15t-108.5 56t-79.5 113.5t-31 188.5v583q-45 3 -90.5 6t-91.5 7q-20 3 -33.5 18t-13.5 35z" />
<glyph unicode="u" horiz-adv-x="1411" d="M25 973q0 20 15 35.5t38 15.5l264 -6q22 -3 36.5 -17.5t14.5 -35.5q0 -8 -2.5 -14.5t-5.5 -12.5q-19 -19 -36 -57t-31 -86.5t-25 -103t-19 -106t-12 -95.5t-4 -72q0 -62 10.5 -125.5t36.5 -115t70 -84t112 -32.5q61 0 116 35.5t99.5 101.5t78 161t53.5 214l12 402 q0 22 17 35.5t36 13.5h6q34 -5 69 -6.5t73 -1.5q61 0 127.5 6t138.5 20q2 0 4 1t4 1q23 0 38 -16.5t15 -36.5q0 -18 -11.5 -33t-31.5 -18q-35 -8 -70 -12.5t-69 -9.5l-16 -828q35 0 71.5 -1t71.5 -7q22 -2 34.5 -17.5t12.5 -33.5q0 -25 -16.5 -39.5t-34.5 -14.5h-6 q-41 5 -80.5 7t-77.5 2q-69 0 -136.5 -7t-133.5 -22h-11q-21 0 -37 15.5t-16 35.5v2l6 183q-63 -115 -147 -175.5t-187 -60.5q-65 0 -114.5 21t-87 56.5t-63 82t-41 98t-22.5 104.5t-7 101q0 131 25.5 257t76.5 238l-180 5q-22 2 -36.5 16.5t-14.5 36.5z" />
<glyph unicode="v" horiz-adv-x="1274" d="M-10 991q0 26 18 39.5t35 13.5q2 0 3.5 -1t4.5 -1q65 -9 126.5 -14.5t123.5 -5.5t121.5 5.5t118.5 14.5q3 0 4.5 1t3.5 1q23 0 38 -15.5t15 -37.5q0 -18 -12 -33t-31 -18q-43 -9 -88 -12q9 -45 31 -120t59 -169q22 -56 48.5 -109t53 -99.5t51 -84.5t42.5 -65 q45 81 85 164.5t73.5 165t59.5 159.5t44 150q-29 3 -60 7.5t-65 12.5q-19 3 -31 18t-12 33q0 23 17.5 38t35.5 15q3 0 5 -1t5 -1q47 -9 85 -13.5t75 -4.5t73.5 4.5t78.5 13.5q3 0 6 1t6 1q22 0 37.5 -16.5t15.5 -36.5q0 -18 -11 -32t-30 -19q-34 -8 -64 -12.5t-59 -7.5 q-24 -108 -68.5 -230.5t-103.5 -249t-129.5 -250.5t-148.5 -235q-6 -9 -16.5 -16t-22.5 -7q-14 0 -23.5 4.5t-17.5 12.5q-63 65 -132.5 157t-135 212.5t-120 272.5t-87.5 337q-22 3 -43.5 5t-42.5 7q-20 3 -32.5 17t-12.5 34z" />
<glyph unicode="w" horiz-adv-x="1647" d="M-6 979q0 23 17.5 37t35.5 14h4q47 -3 96.5 -5.5t102.5 -2.5q83 0 166 5.5t155 14.5q2 0 3.5 1t5.5 1q23 0 37 -16.5t14 -36.5t-12.5 -34.5t-32.5 -16.5q-26 -5 -55 -8l-58 -6q7 -39 21 -102.5t37.5 -142t58.5 -166.5t84 -175q34 75 62 151.5t49.5 149t35.5 140t19 124.5 q2 23 18 35t35 12q17 0 30.5 -10t18.5 -27q51 -157 119.5 -303t159.5 -288q19 49 37 108t35 131.5t34 161.5t35 197q-68 0 -135 12q-19 2 -32 16.5t-13 34.5q0 22 16.5 37.5t36.5 15.5q2 0 3.5 -1t4.5 -1q40 -6 81 -9t81 -3q100 0 192 18q4 0 6.5 1t4.5 1q21 0 37 -16.5 t16 -36.5q0 -18 -12.5 -33t-30.5 -18q-73 -15 -152 -18q-22 -143 -44 -253.5t-45.5 -198t-48.5 -157t-53 -129t-59 -113.5t-67 -112q-8 -11 -18.5 -18t-24.5 -7t-24.5 6t-18.5 15q-100 125 -164.5 230t-99.5 177q-47 -103 -95.5 -200t-107.5 -191q-8 -11 -19.5 -17.5 t-23.5 -6.5q-29 0 -45 22q-74 102 -130 203t-97 196t-68.5 180t-45 157t-26.5 126.5t-12 88.5q-23 2 -44.5 3t-43.5 3q-20 3 -33.5 18t-13.5 35z" />
<glyph unicode="x" horiz-adv-x="1391" d="M20 63q0 20 13 35.5t33 18.5q82 9 163 12q15 12 46.5 37t74.5 61t95.5 82t109.5 99q-68 90 -126.5 173t-105 152.5t-79.5 121t-49 77.5q-25 2 -49.5 3t-47.5 3q-21 2 -35 16.5t-14 34.5q0 23 16.5 38t36.5 15h4q87 -6 183 -6q94 0 189.5 6t183.5 19h6q23 0 38 -16t15 -37 q0 -19 -12.5 -33.5t-32.5 -18.5q-22 -3 -43.5 -5.5t-42.5 -4.5q35 -49 89 -125t122 -166q125 141 219 287q-29 2 -57 5.5t-56 8.5q-18 4 -30.5 18.5t-12.5 33.5q0 23 17.5 38t36.5 15h4q2 0 4 -2q85 -15 178 -15q48 0 95.5 4t96.5 13h9q23 0 38 -16t15 -37 q0 -19 -12.5 -33.5t-32.5 -18.5q-44 -8 -86.5 -11t-85.5 -5q-56 -94 -124.5 -187t-152.5 -184q44 -57 89.5 -115.5t91.5 -115t91 -109t87 -98.5q24 0 47.5 -1t46.5 -3q22 -2 35.5 -17t13.5 -36q0 -22 -15 -36.5t-36 -14.5h-4q-96 6 -197 6q-103 0 -204 -7.5t-191 -19.5 q-4 -2 -8 -2q-23 0 -38.5 16t-15.5 37q0 19 12.5 33.5t32.5 17.5q20 4 40.5 6.5t41.5 4.5q-43 52 -85 104t-81 105q-66 -62 -123 -112t-104 -87q20 -3 40 -4.5t40 -3.5q20 -3 33.5 -18.5t13.5 -35.5q0 -21 -16.5 -37t-36.5 -16q-2 0 -3 1t-3 1q-48 6 -95.5 9.5t-95.5 3.5 t-95 -3.5t-93 -9.5q-2 0 -3 -1t-3 -1q-23 0 -38.5 16.5t-15.5 36.5z" />
<glyph unicode="y" horiz-adv-x="1237" d="M-104 -297q0 45 12.5 89.5t37 79t60.5 56t84 21.5q37 0 69.5 -14t56.5 -38t38 -56.5t14 -69.5t-14 -69.5t-38 -57t-56.5 -38.5t-69.5 -14q-17 0 -32 3t-29 8q23 -29 53 -46.5t65 -17.5q44 0 84 26.5t75.5 68.5t65.5 94t54.5 104t42.5 98t29 76q8 22 15.5 46.5t16.5 51.5 q-110 150 -176 280t-102.5 235t-49 182.5t-14.5 122.5q-38 0 -76.5 1.5t-76.5 6.5q-20 2 -33.5 16.5t-13.5 34.5q0 22 16.5 37.5t36.5 15.5h6q35 -5 71.5 -6.5t74.5 -1.5q58 0 117.5 4.5t121.5 14.5q4 2 8 2q23 0 38.5 -17t15.5 -37q0 -18 -12.5 -33t-32.5 -18 q-41 -6 -79.5 -10.5t-76.5 -7.5q1 -36 11.5 -101t40 -154t83 -200t141.5 -240q28 96 56.5 201.5t54 203.5t46 180t32.5 132q-20 2 -41.5 3.5t-42.5 4.5q-20 2 -33.5 17t-13.5 35q0 24 17 38.5t36 14.5h6q62 -8 123.5 -11t124.5 -3q62 0 124.5 3t125.5 11h6q23 0 38 -16.5 t15 -36.5t-13.5 -35t-33.5 -17q-19 -3 -37.5 -4.5t-38.5 -3.5q-7 -28 -19.5 -78.5t-29.5 -115.5t-36.5 -141t-40.5 -155t-43 -157t-42.5 -147.5t-39 -126t-33.5 -93.5q-41 -98 -97.5 -191.5t-130 -166.5t-164.5 -117.5t-200 -44.5q-68 0 -131 18.5t-111 55.5t-77 90.5 t-29 124.5z" />
<glyph unicode="z" horiz-adv-x="1194" d="M51 47q0 8 1.5 15.5t6.5 15.5l592 872h-41q-94 0 -184 3t-180 8q-20 -119 -60 -232q-6 -17 -19.5 -26t-29.5 -9q-25 0 -39 16.5t-14 34.5q0 5 1 9.5t3 9.5q23 63 37 128t22 128q2 20 17.5 33.5t34.5 13.5h4q100 -6 201 -8t206 -2q107 0 216.5 2t224.5 8h4q23 0 37 -16.5 t14 -36.5q0 -8 -1.5 -15.5t-6.5 -13.5l-588 -866q50 2 100 2h101q69 0 137 -0.5t137 -3.5q2 71 10.5 136t22.5 128q5 19 19.5 30t31.5 11q26 0 39.5 -18t13.5 -33v-7q0 -4 -2 -6q-15 -66 -22.5 -134t-7.5 -142v-19q-2 -23 -16 -38t-36 -15h-2q-81 3 -163.5 4.5t-163.5 1.5 q-153 0 -303 -4.5t-300 -15.5h-4q-21 0 -36 16.5t-15 34.5z" />
<glyph unicode="{" horiz-adv-x="731" d="M25 737q0 14 7 26.5t21 18.5q53 28 88 59t55.5 65.5t28.5 72t8 78.5q0 56 -8.5 110t-18 107t-18 105.5t-8.5 105.5q0 97 22.5 185.5t70 156.5t121 108.5t175.5 40.5q32 0 52.5 -3t23.5 -5q19 -3 30 -17.5t11 -33.5q0 -25 -18 -38t-35 -13q-27 -1 -57 -15t-55 -39.5 t-41.5 -61t-16.5 -79.5q0 -71 18.5 -140t41 -140t41 -144.5t18.5 -152.5q0 -58 -12.5 -111.5t-38 -99.5t-63.5 -83.5t-89 -62.5q105 -57 154 -149.5t49 -206.5q0 -79 -18.5 -152.5t-41 -144.5t-41 -141t-18.5 -142q0 -39 12 -74t34.5 -61t53.5 -41.5t70 -15.5q23 -2 38 -17 t15 -36q0 -19 -11 -33t-30 -19q-3 0 -23.5 -3t-52.5 -3q-107 0 -181 42.5t-120 111.5t-67 157.5t-21 180.5q0 55 8.5 108.5t18 106.5t18 106t8.5 107q0 40 -8 77.5t-28.5 71.5t-55.5 64.5t-88 58.5q-14 6 -21 19t-7 28z" />
<glyph unicode="|" horiz-adv-x="666" d="M160 -365v2241q0 22 15 36.5t38 14.5h240q21 0 37 -14.5t16 -36.5v-2241q0 -21 -16 -37t-37 -16h-240q-23 0 -38 16t-15 37z" />
<glyph unicode="}" horiz-adv-x="731" d="M45 -444q0 24 16.5 38.5t34.5 14.5q41 0 73 16t54 43t33.5 61.5t11.5 71.5q0 62 -18.5 131t-40.5 142.5t-40.5 151t-18.5 155.5q0 118 50 211t152 145q-53 26 -91 64.5t-63 85t-36.5 99t-11.5 108.5q0 81 18.5 156t40.5 145.5t40.5 139t18.5 136.5q0 39 -12 74.5 t-34.5 62.5t-54.5 42.5t-71 15.5q-23 0 -37 15.5t-14 35.5q0 19 11 33.5t30 17.5q3 2 23.5 5t52.5 3q106 0 180 -43t120.5 -112.5t67.5 -157.5t21 -178q0 -56 -8.5 -110t-18 -106.5t-18 -105t-8.5 -106.5q0 -41 8.5 -78.5t29 -72t55 -65.5t87.5 -59q12 -6 20.5 -18.5 t8.5 -26.5q0 -15 -8.5 -28t-20.5 -19q-53 -28 -87.5 -58.5t-55 -64.5t-29 -71.5t-8.5 -77.5q0 -56 8.5 -110t18 -107t18 -105.5t8.5 -105.5q0 -98 -22.5 -187t-70 -156.5t-121 -108t-175.5 -40.5q-32 0 -52.5 3t-23.5 3q-19 5 -30 19t-11 33z" />
<glyph unicode="~" horiz-adv-x="1188" d="M94 750q0 78 22.5 143.5t62 112.5t95 73.5t121.5 26.5q91 0 153.5 -28t104 -70t67.5 -91.5t44 -91.5q28 -60 47 -87t45 -27q31 0 53 13.5t36 35t21 48t7 52.5q0 38 -12 76.5t-33 67.5q-6 8 -8 15.5t-2 16.5q0 23 15.5 37t35.5 14q12 0 23.5 -4.5t19.5 -15.5 q25 -35 42 -75.5t27 -82.5t14.5 -85t4.5 -83q0 -71 -22 -138t-63 -118.5t-99 -82.5t-130 -31q-66 0 -118 28.5t-93 72t-73 96.5t-58 102q-13 24 -26 48.5t-29 44.5t-36 33t-46 13q-28 0 -47 -15t-31 -37t-17 -48t-5 -47q0 -53 18.5 -105t42.5 -92q5 -6 8 -13.5t3 -15.5 q0 -21 -17 -37t-37 -16q-12 0 -23.5 6t-19.5 19q-2 1 -15.5 26t-30 69t-29.5 106.5t-13 140.5z" />
<glyph unicode="&#xa1;" horiz-adv-x="547" d="M100 -219q0 64 7.5 145.5t20 173.5t28.5 191l32 198q10 59 18.5 114t16.5 108q3 20 18 32.5t35 12.5q19 0 34 -12.5t18 -32.5q8 -54 17.5 -112t19.5 -120q16 -98 31.5 -195t27.5 -187.5t19.5 -171t7.5 -144.5q0 -36 -13.5 -67.5t-37.5 -55.5t-56 -37.5t-68 -13.5 t-68 13.5t-56 37.5t-38 55.5t-14 67.5zM123 956q0 32 12 60t32.5 49t48.5 33t60 12q31 0 59 -12t49 -33t33.5 -49t12.5 -60t-12.5 -59.5t-33.5 -47.5t-49 -32t-59 -12q-32 0 -60 12t-48.5 32t-32.5 47.5t-12 59.5z" />
<glyph unicode="&#xa2;" horiz-adv-x="1192" d="M82 680q0 120 31.5 214.5t92 162t150 105.5t205.5 44q3 65 7.5 136.5t11.5 148.5q2 20 16.5 32.5t34.5 12.5q21 0 37 -15t16 -38q0 -2 -1 -3t-1 -3q-9 -62 -15 -131.5t-10 -141.5q99 -9 182 -53t140 -125l33 205q3 18 17.5 30.5t33.5 12.5q25 0 39 -17t14 -34v-9 l-63 -387q-3 -20 -18.5 -32.5t-35.5 -12.5t-34.5 14t-16.5 35q0 44 -21.5 88t-54.5 79t-72.5 57t-74.5 22q-20 0 -38.5 -2.5t-35.5 -7.5q-2 -80 -3 -151t-1 -125v-117q-2 -51 -1 -113q0 -54 2 -125.5t7 -156.5q11 -2 23.5 -3.5t26.5 -1.5q51 0 95.5 23.5t80 59.5t60.5 80.5 t36 86.5q5 19 19 31t32 12q22 0 37.5 -16.5t15.5 -36.5q0 -6 -2 -10q-9 -47 -39 -104t-81.5 -109t-125 -90t-169.5 -47q3 -47 6.5 -94t9.5 -95q0 -2 1 -4t1 -4q0 -22 -16 -36.5t-37 -14.5q-20 0 -34.5 12.5t-16.5 32.5q-5 45 -8.5 96t-6.5 107q-106 7 -194.5 48.5 t-152 110.5t-99 162.5t-35.5 204.5zM440 666q0 -47 6.5 -94.5t21 -91t36 -82t51.5 -66.5q-3 70 -4.5 132.5t-2.5 110.5q-1 55 -1 103q0 39 1 89q1 43 2 104t3 139q-32 -32 -54 -74.5t-35 -88.5t-18.5 -93t-5.5 -88z" />
<glyph unicode="&#xa3;" horiz-adv-x="1473" d="M70 684q0 23 17 37t36 14h4q46 -3 93 -6.5t93 -5.5v262q0 121 37.5 220t108.5 165q59 57 138 86t175 29q89 0 160.5 -30.5t121.5 -81.5t78.5 -118t32.5 -139q-2 -22 -15.5 -37.5t-35.5 -15.5q-23 0 -38 15.5t-15 37.5q0 31 -12.5 70.5t-36.5 75t-58.5 60t-79.5 24.5 q-47 0 -80 -20t-56.5 -53t-37.5 -75t-21.5 -85.5t-10 -85.5t-2.5 -75v-231q58 3 117.5 6t119.5 8h4q22 0 36.5 -15.5t14.5 -35.5t-13.5 -35.5t-33.5 -17.5q-62 -5 -123.5 -9t-121.5 -6v-510h75q69 0 136 -1t129.5 -2.5t117.5 -3.5t99 -5l73 418q3 20 18 32.5t34 12.5 q21 0 37 -16.5t16 -36.5q0 -6 -2 -10l-82 -465q-3 -20 -18 -31.5t-33 -11.5h-6q-41 4 -98.5 7t-125 5t-143 3t-152.5 1t-151.5 -1t-141.5 -3t-122.5 -5t-94.5 -7h-6q-20 0 -35 12.5t-18 32.5q0 24 13.5 40t33.5 19q20 2 43 3t51 3v522q-49 2 -98 5t-98 8q-20 2 -33.5 17.5 t-13.5 35.5z" />
<glyph unicode="&#xa4;" horiz-adv-x="768" d="M49 434q0 6 3 12.5t6.5 12t6.5 9.5t3 5l112 98q-53 68 -53 162q0 44 11.5 81t33.5 69q-29 38 -58 77.5t-55 81.5q-10 15 -10 31q0 23 17.5 37t37.5 14q16 0 22.5 -6t18.5 -18q26 -40 51 -77t50 -71q35 23 76 36t86 13q35 0 68 -7t61 -19q21 29 42 60t44 65q12 12 18.5 18 t22.5 6q20 0 37.5 -14t17.5 -37q0 -16 -10 -31q-22 -32 -43.5 -64t-44.5 -63q32 -34 49.5 -80t17.5 -102q0 -59 -18.5 -106t-53.5 -82q20 -17 40.5 -35t43.5 -37q0 -1 3 -5t6.5 -9.5t6.5 -12t3 -12.5q0 -21 -17 -37t-38 -16q-19 0 -31 12q-28 23 -54.5 46.5t-52.5 47.5 q-26 -9 -56 -14.5t-62 -5.5q-86 0 -150 37q-31 -28 -61.5 -56.5t-61.5 -54.5q-12 -12 -31 -12q-21 0 -38 16t-17 37zM231 733q0 -21 5 -42.5t15.5 -38.5t26.5 -27.5t39 -10.5q25 0 43.5 12t30.5 30.5t17.5 40.5t5.5 42q0 22 -7.5 43t-21 37.5t-32 26.5t-40.5 10 q-23 0 -38.5 -12.5t-25.5 -31.5t-14 -40t-4 -39z" />
<glyph unicode="&#xa5;" horiz-adv-x="1774" d="M49 1389q0 26 18 39.5t35 13.5h7q88 -14 173.5 -20.5t170.5 -6.5t168.5 6.5t166.5 20.5h7q23 0 38 -16t15 -37q0 -19 -12.5 -34t-32.5 -18q-38 -6 -78 -10.5t-80 -7.5q26 -48 69.5 -121.5t100 -157t123.5 -168.5t141 -157q22 29 54 80.5t69 126.5t77 174.5t77 224.5 q-48 2 -95 5t-94 11q-20 3 -32.5 18t-12.5 34q0 24 17.5 38.5t34.5 14.5h8q59 -9 116.5 -14t116.5 -5t116 5t114 14h8q21 0 37 -16.5t16 -36.5q0 -19 -13 -34t-32 -18q-99 -15 -197 -18q-44 -156 -92.5 -275.5t-93 -205t-81 -138.5t-56.5 -77q66 -5 132 -11.5t132 -15.5 q20 -3 32.5 -18t12.5 -33q0 -22 -15 -37.5t-36 -15.5h-8q-63 9 -127 15t-127 11v-112q68 -5 134 -11.5t134 -15.5q20 -3 32.5 -18t12.5 -33q0 -22 -15 -38t-36 -16h-8q-63 10 -127 16t-127 11v-209q86 -3 174 -12q20 -3 33.5 -18t13.5 -35q0 -25 -18 -38.5t-35 -13.5h-7 q-61 8 -123.5 11.5t-125.5 3.5q-104 0 -205 -10.5t-201 -30.5h-10q-22 0 -37.5 15.5t-15.5 35.5q0 19 12 33.5t31 19.5q42 8 84 15t86 12v219q-60 -3 -120 -10t-120 -15h-6q-23 0 -38 16t-15 38q0 18 12.5 33t32.5 18q126 18 254 24v111q-2 0 -2.5 1t-2.5 1 q-58 -3 -117 -9.5t-118 -14.5h-6q-23 0 -38 15.5t-15 37.5q0 18 12.5 33t32.5 18l157 18q-58 66 -111 137.5t-99.5 142.5t-86 138.5t-71 124t-53.5 99t-33 65.5q-37 3 -74 6.5t-74 9.5q-20 3 -32.5 18t-12.5 34z" />
<glyph unicode="&#xa6;" horiz-adv-x="666" d="M160 -365v1012q0 22 15 36.5t38 14.5h240q21 0 37 -14.5t16 -36.5v-1012q0 -21 -16 -37t-37 -16h-240q-23 0 -38 16t-15 37zM160 864v1012q0 22 15 36.5t38 14.5h240q21 0 37 -14.5t16 -36.5v-1012q0 -21 -16 -37t-37 -16h-240q-23 0 -38 16t-15 37z" />
<glyph unicode="&#xa7;" horiz-adv-x="1497" d="M154 784q0 60 14 110.5t39 92.5q-53 80 -53 182q0 77 23.5 139t64 109.5t94.5 81.5t115 56t125.5 32t125.5 10q135 0 258 -35t222 -112q14 34 30.5 67.5t34.5 65.5q8 12 20.5 19.5t24.5 7.5q23 0 38.5 -17.5t15.5 -36.5q0 -12 -7 -26q-54 -91 -86.5 -184t-46.5 -187 q-2 -20 -16.5 -32.5t-34.5 -12.5q-25 0 -39 17t-14 34q0 6 2 9q6 43 15.5 86t23.5 88q-48 40 -101.5 67.5t-110.5 44.5t-117 25t-120 8q-52 0 -108 -9.5t-102.5 -32.5t-76.5 -62.5t-30 -100.5q0 -49 27 -85t70 -63t96 -45.5t106 -31.5t99.5 -21.5t76.5 -15.5 q56 -11 118 -25.5t122.5 -36.5t115.5 -52t96.5 -71.5t66 -95.5t24.5 -124q0 -51 -17 -100.5t-49 -94.5q32 -46 50 -94.5t18 -98.5q0 -69 -25.5 -125t-68 -101t-98 -78t-116.5 -55t-123.5 -33t-117.5 -11q-171 0 -317.5 54t-268.5 165q0 -5 -1 -9t-1 -9q0 -26 1 -52.5 t3 -52.5v-4q0 -21 -15.5 -36t-35.5 -15t-35.5 13.5t-17.5 33.5q-6 115 1.5 228t33.5 223q3 18 17.5 29.5t33.5 11.5q25 0 38 -18t13 -34v-12q-9 -38 -15.5 -77.5t-11.5 -78.5q121 -130 266.5 -193t313.5 -63q29 0 64.5 2t72 8.5t71.5 18.5t62 31t43.5 46t16.5 64t-24.5 67.5 t-63.5 55t-87 42.5t-94.5 31t-87 21.5t-63.5 12.5q-64 11 -134 28t-137 42t-128 59.5t-107 81t-73 105.5t-27 134zM395 831q31 -52 87 -84.5t121.5 -52.5t131.5 -31.5t117 -21.5q77 -15 153.5 -31.5t145.5 -48.5q-27 32 -73.5 57.5t-101.5 45t-111.5 33t-104.5 22.5 q-228 39 -365 112z" />
<glyph unicode="&#xa8;" horiz-adv-x="743" d="M0 1432q0 31 12 59t33 49t49 33t60 12q31 0 59 -12t49 -33t33 -49t12 -59q0 -32 -12 -60t-33 -49t-49 -33t-59 -12q-32 0 -60 12t-49 33t-33 49t-12 60zM438 1432q0 31 12 59t32.5 49t48 33t59.5 12t60 -12t48.5 -33t32.5 -49t12 -59q0 -32 -12 -60t-32.5 -49t-48.5 -33 t-60 -12t-59.5 12t-48 33t-32.5 49t-12 60z" />
<glyph unicode="&#xa9;" horiz-adv-x="1653" d="M102 719q0 136 57 255t155.5 208t230 140.5t280.5 51.5q93 0 182.5 -22.5t170 -63.5t149 -100t118 -131.5t77.5 -158t28 -179.5q0 -99 -30 -186t-81.5 -159.5t-122 -129.5t-151 -96.5t-167.5 -60.5t-173 -21q-99 0 -191.5 23.5t-172.5 66t-146.5 102t-113.5 132t-73 156 t-26 173.5zM455 733q0 -117 27.5 -218t84.5 -175t145 -116t210 -42q73 0 140 22.5t125.5 61.5t106 91.5t81.5 112t52.5 123.5t18.5 126q0 64 -19.5 128t-54 122.5t-81 109.5t-101 88t-114.5 58.5t-120 21.5q-117 0 -209.5 -39t-157.5 -107.5t-99.5 -162.5t-34.5 -205z M586 684q0 79 24 149t68 122t107.5 82t142.5 30q62 0 118.5 -20.5t98.5 -63.5l12 80q3 20 18 32.5t33 12.5q23 0 38.5 -17.5t15.5 -35.5v-8l-39 -250q-3 -20 -18.5 -32.5t-35.5 -12.5t-34.5 14.5t-16.5 34.5q-4 22 -13 47t-23.5 46.5t-35 35.5t-47.5 14q-32 0 -55.5 -14 t-40.5 -36.5t-28 -51.5t-17.5 -58.5t-9 -58t-2.5 -49.5q0 -33 7.5 -71.5t24.5 -72t44 -55.5t65 -22q26 0 52.5 12.5t48 32t35 44t14.5 48.5q3 18 17.5 30.5t33.5 12.5q23 0 37 -16.5t14 -36.5v-11q-11 -55 -41.5 -98.5t-72.5 -73.5t-93 -45.5t-102 -15.5q-76 0 -139.5 27 t-109 74t-70.5 110t-25 135z" />
<glyph unicode="&#xaa;" horiz-adv-x="1114" d="M139 569q0 22 15.5 38t38.5 16q2 0 3 -1t3 -1q129 -17 229.5 -26t192.5 -9h82q34 0 67 1.5t73 6t101 12.5q2 0 4 1t4 1q22 0 37 -15.5t15 -37.5q0 -20 -13 -34.5t-33 -16.5q-54 -8 -94 -11.5t-76.5 -5t-76.5 -1t-95 0.5q-108 0 -215 8t-217 23q-20 2 -32.5 16.5 t-12.5 34.5zM139 821q0 55 23.5 97t61.5 73t86.5 52t99 33.5t98.5 18t84 5.5h4q-2 39 -16.5 75t-40 64t-59.5 44.5t-74 16.5q-31 0 -60.5 -17.5t-52.5 -44.5t-37 -60t-14 -64q0 -18 -15.5 -31.5t-33.5 -13.5q-20 0 -35 15.5t-15 33.5q0 53 27.5 111.5t77.5 107t121.5 80 t158.5 31.5q82 0 140 -25.5t97 -68t61.5 -99.5t34.5 -119.5t15 -127.5t3 -125q0 -17 -1 -34t-1 -40h81q20 -2 33 -15t13 -34q0 -20 -14.5 -34.5t-33.5 -14.5h-53q-63 0 -123 -8t-123 -25q-2 0 -5.5 -1t-6.5 -1q-22 0 -34.5 16t-12.5 33v14q2 7 4 24.5t4 37.5 q-60 -62 -130 -99.5t-150 -37.5q-36 0 -70 10.5t-60 31t-41.5 49.5t-15.5 66zM238 821q0 -17 8 -28.5t21 -19t28 -10.5t29 -3q47 0 89 18t77.5 47.5t65 66t50.5 73.5q-2 9 -2 19v20h-12q-27 0 -64 -4t-76.5 -13t-77.5 -23t-68.5 -34.5t-49 -47.5t-18.5 -61z" />
<glyph unicode="&#xab;" horiz-adv-x="1208" d="M63 463q0 12 6 23.5t15 17.5q63 48 126.5 109.5t121 125t106 123t82.5 103.5q8 11 19 16.5t22 5.5q22 0 37.5 -16.5t15.5 -36.5q0 -16 -10 -33q-32 -42 -76.5 -96.5t-97.5 -114.5v-418q53 -51 96.5 -99t75.5 -83q12 -15 12 -35q0 -21 -16.5 -37t-36.5 -16q-11 0 -21 4.5 t-18 13.5q-34 39 -82 91t-105 106.5t-120 107.5t-127 93q-14 11 -19.5 22.5t-5.5 22.5zM555 463q0 12 5.5 23.5t14.5 17.5q63 48 126.5 109.5t121 125t106.5 123t83 103.5q16 22 41 22q21 0 37 -16.5t16 -36.5q0 -16 -10 -33q-32 -42 -77 -96.5t-97 -114.5v-418 q52 -51 96 -99t76 -83q12 -15 12 -35q0 -21 -16.5 -37t-36.5 -16q-24 0 -39 18q-34 39 -82 91t-105 106.5t-120 107.5t-127 93q-14 11 -19.5 22.5t-5.5 22.5z" />
<glyph unicode="&#xac;" horiz-adv-x="1161" d="M78 801q0 25 17 39t36 14h4q109 -12 212.5 -18.5t205.5 -6.5t201.5 6.5t199.5 18.5h7q21 0 37 -16.5t16 -36.5q0 -2 -2 -4q-5 -69 -8 -137t-3 -134q0 -68 2.5 -132.5t8.5 -129.5q2 -2 2 -6q0 -23 -17.5 -37t-35.5 -14h-242q-20 0 -35 13.5t-18 33.5q-7 66 -11 131t-4 131 q0 54 3 106t8 105q-28 -2 -54 -2h-55q-106 0 -213 6t-215 19q-20 2 -33.5 16.5t-13.5 34.5z" />
<glyph unicode="&#xad;" horiz-adv-x="889" d="M137 750q0 21 15 37t38 16q2 0 3.5 -1t3.5 -1q37 -5 105 -16t153 -13q55 -2 115 3.5t122 25.5q2 0 4 1t4 1q22 0 37 -16t15 -37q0 -20 -12.5 -32.5t-32.5 -19.5q-27 -8 -59 -13.5t-66.5 -10t-69.5 -6.5t-68 -2q-69 0 -131.5 7.5t-130.5 24.5q-20 5 -32.5 18.5t-12.5 33.5 z" />
<glyph unicode="&#xae;" horiz-adv-x="1653" d="M102 719q0 136 57 255t155.5 208t230 140.5t280.5 51.5q92 0 181.5 -22t170 -63t149 -99.5t118.5 -131.5t78 -158.5t28 -180.5q0 -99 -30 -186t-81.5 -159.5t-122 -129.5t-151 -96.5t-167.5 -60.5t-173 -21q-99 0 -191.5 23.5t-172.5 66t-146.5 102t-113.5 132t-73 156 t-26 173.5zM455 733q0 -117 27.5 -218t84.5 -175t145 -116t210 -42q73 0 140 22.5t125.5 61.5t106 91.5t81.5 112t52.5 123.5t18.5 126q0 64 -20 128t-54.5 122.5t-82 109.5t-102 88t-113.5 58.5t-118 21.5q-117 0 -209.5 -39t-157.5 -107.5t-99.5 -162.5t-34.5 -205z M588 989q0 23 17 37t34 14h8q22 -3 64 -5.5t90 -2.5q28 0 55.5 1.5t48.5 6.5h10q22 0 35.5 -12t18.5 -31q26 23 61 38.5t80 15.5h2q46 -3 84 -18t65.5 -40.5t42.5 -61.5t15 -81q0 -29 -9.5 -56t-27 -47.5t-42 -32.5t-54.5 -12q-27 0 -51 10t-41.5 27.5t-28 41t-10.5 50.5 q0 38 18 68t49 45q-3 2 -6 2h-4h-2q-30 0 -51.5 -13t-37.5 -32t-25.5 -42.5t-15.5 -43.5t-8.5 -35t-2.5 -18v-254q17 -2 35 -4.5t36 -7.5q19 -3 30 -18t11 -34q0 -26 -17.5 -38.5t-33.5 -12.5h-10q-94 19 -180 19q-44 0 -87.5 -4.5t-93.5 -14.5h-8q-23 0 -38 15.5t-15 35.5 q0 19 11.5 34t31.5 18q17 5 34 7t34 5v422q-31 2 -52 4t-24 2q-20 3 -32.5 18t-12.5 35z" />
<glyph unicode="&#xaf;" horiz-adv-x="702" d="M0 1335v193q0 23 15 38t36 15h600q22 0 36.5 -15t14.5 -38v-193q0 -21 -14.5 -37t-36.5 -16h-600q-21 0 -36 16t-15 37z" />
<glyph unicode="&#xb0;" horiz-adv-x="717" d="M76 1210q0 60 23 109.5t62 85t89.5 55t105.5 19.5q62 0 114 -20t89 -55.5t57.5 -85t20.5 -108.5q0 -60 -20.5 -109t-57 -84t-88.5 -54t-115 -19q-59 0 -110 20t-89 55.5t-59.5 84.5t-21.5 106zM180 1210q0 -21 5 -42.5t15.5 -38t26.5 -27t39 -10.5q25 0 43.5 12t30 30.5 t17 40.5t5.5 42q0 21 -7.5 42t-21 37.5t-32 26.5t-39.5 10q-23 0 -38.5 -12.5t-25.5 -31.5t-14 -40t-4 -39z" />
<glyph unicode="&#xb1;" horiz-adv-x="1161" d="M102 74q0 21 15.5 37t38.5 16q2 0 3 -1t3 -1q129 -17 229.5 -26t192.5 -9q97 0 195.5 9t219.5 26q2 0 4.5 1t4.5 1q21 0 36 -16t15 -37q0 -20 -12.5 -34.5t-32.5 -16.5q-110 -16 -217.5 -23.5t-216.5 -7.5t-216 7.5t-217 23.5q-20 2 -32.5 16.5t-12.5 34.5zM102 758 q3 18 18.5 31.5t35.5 13.5q2 0 3 -1t3 -1q65 -10 126 -16t120 -9v367q0 21 15.5 37t37.5 16h239q23 0 38.5 -16t15.5 -37v-367q58 3 119 9t126 16q2 0 4.5 1t4.5 1q21 0 36 -16.5t15 -36.5t-12.5 -35t-32.5 -17q-68 -11 -132.5 -17t-127.5 -9v-350q0 -22 -15.5 -38 t-38.5 -16h-239q-22 0 -37.5 16t-15.5 38v350q-62 3 -126.5 9t-134.5 17q-24 3 -34.5 20.5t-10.5 39.5z" />
<glyph unicode="&#xb2;" horiz-adv-x="868" d="M90 1212q0 63 32 109.5t81 77.5t107 46t110 15q64 0 126.5 -19.5t111 -56.5t78.5 -89.5t30 -118.5q0 -76 -29.5 -135.5t-76 -106.5t-104.5 -84t-116 -68q-21 -11 -41 -21.5t-39 -23.5h15q55 0 104 -11t96 -11q22 0 39 4.5t29.5 10t19 10t7.5 5.5q14 13 35 13 q23 0 37 -16.5t14 -36.5q0 -23 -19 -41q-1 -1 -12.5 -9.5t-32.5 -18.5t-51 -18t-66 -8q-27 0 -52.5 3.5t-50.5 8t-50 8t-49 3.5q-38 0 -78.5 -7t-83.5 -24q-5 -2 -9 -2h-9q-23 0 -38.5 15.5t-15.5 35.5q0 11 6 23q12 28 30.5 51.5t40 44t44.5 38t45 34.5q37 27 73 55.5 t64.5 64.5t46 82t17.5 107q0 39 -15 68t-39.5 48.5t-57 29.5t-66.5 10q-25 0 -49 -5t-42.5 -16.5t-30 -29.5t-11.5 -44q0 -27 7.5 -45.5t16.5 -29t16.5 -15t8.5 -4.5q15 -6 23.5 -19.5t8.5 -29.5q0 -25 -16 -39t-35 -14q-5 0 -9 1t-9 3q-16 6 -36.5 20t-38.5 37.5t-30 57 t-12 77.5z" />
<glyph unicode="&#xb3;" horiz-adv-x="885" d="M82 817q0 26 6 64q5 18 19.5 29.5t31.5 11.5q25 0 39.5 -17t14.5 -37v-10q-7 -20 -7 -43q0 -33 14.5 -57.5t37.5 -41t51.5 -24.5t56.5 -8q44 0 82 12.5t65.5 36.5t43.5 58t16 77q0 53 -25.5 88t-64.5 55.5t-85.5 29t-88.5 8.5h-13h-4q-23 0 -37 16.5t-14 36.5 q0 12 5.5 23.5t15.5 19.5l262 186h-330q-22 0 -37.5 15t-15.5 36q0 22 15.5 38t37.5 16h494q23 0 38 -16t15 -38q0 -26 -23 -43l-155 -110q48 -15 96 -41t86.5 -65t62 -92t23.5 -122q0 -88 -36 -152.5t-95 -106.5t-134 -62.5t-153 -20.5q-57 0 -112.5 16.5t-99.5 48.5 t-71.5 78.5t-27.5 106.5z" />
<glyph unicode="&#xb4;" horiz-adv-x="635" d="M0 1196q0 14 6 25l254 475q16 26 47 26h275q23 0 38 -15.5t15 -35.5q0 -26 -19 -41l-528 -473q-15 -12 -35 -12q-23 0 -38 15.5t-15 35.5z" />
<glyph unicode="&#xb5;" horiz-adv-x="1501" d="M86 973q0 20 15 35.5t38 15.5l264 -6q22 -3 37 -17.5t15 -35.5q0 -8 -2.5 -14.5t-6.5 -12.5q-1 -1 -11 -23t-24 -59t-30 -87t-30 -107.5t-23 -120t-9 -123.5q0 -175 57.5 -266t172.5 -91q61 0 116 35.5t99.5 101.5t78 161t52.5 214l12 402q0 22 17.5 35.5t36.5 13.5h6 q34 -5 69 -6.5t72 -1.5q62 0 128 6t138 20q2 0 4 1t4 1q23 0 38.5 -16.5t15.5 -36.5q0 -18 -11.5 -33t-31.5 -18q-35 -8 -70.5 -12.5t-69.5 -9.5l-16 -828q35 0 71.5 -1.5t71.5 -6.5q22 -2 34.5 -17.5t12.5 -33.5q0 -25 -16 -39.5t-35 -14.5h-6q-40 5 -79.5 7t-78.5 2 q-69 0 -136.5 -7t-133.5 -22h-10q-22 0 -37.5 15.5t-15.5 35.5v2l6 183q-63 -115 -147.5 -175.5t-186.5 -60.5q-91 0 -153.5 34t-100.5 93v-86q0 -116 4 -231t12 -218v-4q0 -20 -13.5 -36.5t-33.5 -16.5q-23 0 -39 14t-18 35q-9 106 -12.5 223t-3.5 236q0 91 3.5 181.5 t9 171.5t12 148t13.5 113q8 48 18 93t21.5 84t23.5 71t23 53l-180 5q-21 2 -36 16.5t-15 36.5z" />
<glyph unicode="&#xb6;" horiz-adv-x="1483" d="M72 926q0 112 34.5 196t94 144.5t137.5 99.5t165 62.5t177.5 32.5t173.5 9q127 0 223.5 -10.5t161 -23.5t98 -23.5t35.5 -11.5q16 -6 25.5 -20t9.5 -29q0 -22 -16.5 -38t-36.5 -16q-8 0 -21 5q-16 6 -37 12q-19 5 -46 11.5t-64 12.5l-2 -1241q37 -3 74.5 -6t74.5 -6 q20 -3 33.5 -18t13.5 -35q0 -22 -16.5 -36.5t-36.5 -14.5h-6q-77 8 -154 12t-157 4q-79 0 -158 -4t-160 -12h-6q-23 0 -37 15.5t-14 35.5t12.5 35t34.5 18q40 3 79.5 6t80.5 6l-2 316q-34 -8 -71 -11.5t-75 -3.5q-78 0 -154.5 15.5t-145.5 46t-128 75.5t-102 103.5 t-67.5 130t-24.5 156.5zM176 924q0 -75 22 -135.5t59.5 -107t88 -80t108 -55.5t119 -32t121.5 -10q41 0 77 4t67 12l-4 844h-68q-125 -5 -233 -30t-187.5 -76.5t-124.5 -133.5t-45 -200z" />
<glyph unicode="&#xb7;" horiz-adv-x="524" d="M109 702q0 31 12 59t33 48.5t48.5 32.5t59.5 12t60 -12t49 -32.5t33 -48.5t12 -59q0 -32 -12 -60t-33 -48.5t-49 -32.5t-60 -12t-59.5 12t-48.5 32.5t-33 48.5t-12 60z" />
<glyph unicode="&#xb8;" horiz-adv-x="559" d="M0 -475q0 22 17.5 37.5t35.5 15.5q5 0 9.5 -1t9.5 -3q14 -5 40.5 -11.5t55.5 -6.5q54 0 76 23t22 73q0 20 -6 39.5t-17 35.5t-27 25.5t-36 9.5q-9 0 -14 -1t-10 -1q-23 0 -37.5 17t-14.5 37q0 10 5 20l86 205q6 15 19.5 24t29.5 9q23 0 38 -16.5t15 -35.5q0 -6 -1 -10.5 t-3 -9.5l-53 -121h39q59 0 110 -17.5t89 -49.5t59.5 -78t21.5 -103q0 -61 -22 -107t-59 -76.5t-86.5 -46t-104.5 -15.5q-71 0 -141.5 25t-127.5 75q-9 8 -13.5 18t-4.5 21z" />
<glyph unicode="&#xb9;" horiz-adv-x="678" d="M94 1167q0 28 23 43q1 0 30 21t72 55t92 75.5t90 82.5q8 6 17 10t20 4q23 0 37 -16.5t14 -36.5v-686q17 -2 35 -4.5t35 -5.5q20 -3 32.5 -17.5t12.5 -34.5q0 -13 -5 -22.5t-13 -16t-17.5 -9.5t-17.5 -3h-8q-51 8 -96.5 12.5t-92.5 4.5q-45 0 -91 -4.5t-97 -12.5h-8 q-23 0 -37.5 15.5t-14.5 35.5t12.5 34.5t31.5 17.5q18 3 36.5 5.5t36.5 4.5v438q-20 -14 -31.5 -22.5t-13.5 -10.5q-17 -10 -31 -10q-23 0 -38 16.5t-15 36.5z" />
<glyph unicode="&#xba;" horiz-adv-x="1020" d="M127 569q0 22 15 38t38 16q2 0 3 -1t3 -1q64 -9 106.5 -15.5t76 -11t66.5 -6.5t79 -2h82q34 0 67.5 1.5t73.5 6t101 12.5q2 0 4 1t4 1q21 0 36 -15.5t15 -37.5q0 -20 -12.5 -34.5t-32.5 -16.5q-54 -8 -94 -11.5t-77 -5t-77 -1t-94 0.5t-93 2t-75.5 6t-76 9.5t-93.5 13.5 q-20 2 -32.5 16.5t-12.5 34.5zM127 1073q0 85 30 157.5t82 125t123 82.5t152 30q85 0 156 -32t122 -86t79 -125.5t28 -151.5q0 -87 -31 -158.5t-84 -123.5t-122.5 -80.5t-147.5 -28.5q-89 0 -161 28t-122 79t-77 123t-27 161zM397 1081q1 -44 6.5 -96t22.5 -96t48.5 -73.5 t82.5 -29.5q58 0 104 24.5t77.5 65t48 92t16.5 105.5q0 50 -16.5 100.5t-46 91.5t-71 67t-91.5 26q-54 0 -89 -27t-55.5 -68.5t-28.5 -90t-8 -91.5z" />
<glyph unicode="&#xbb;" horiz-adv-x="1208" d="M102 55q0 21 13 35q31 35 75 83t97 99v418q-54 60 -98 114.5t-76 96.5q-7 8 -9 16t-2 17q0 22 16 37.5t36 15.5q26 0 43 -22q34 -44 82.5 -103.5t105.5 -123t120 -125t126 -109.5q11 -6 16.5 -17.5t5.5 -23.5q0 -14 -7.5 -25.5t-16.5 -19.5q-65 -40 -128.5 -93 t-120.5 -107.5t-104.5 -106.5t-80.5 -91q-8 -9 -19 -13.5t-22 -4.5q-22 0 -37 17.5t-15 35.5zM594 55q0 20 12 35q31 35 75.5 83t96.5 99v418q-54 60 -98 114.5t-76 96.5q-6 8 -8 16t-2 17q0 22 15.5 37.5t35.5 15.5q27 0 43 -22q34 -44 82.5 -103.5t105.5 -123t120 -125 t126 -109.5q11 -6 17 -17.5t6 -23.5q0 -14 -7.5 -25.5t-17.5 -19.5q-65 -40 -128.5 -93t-120.5 -107.5t-104.5 -106.5t-80.5 -91q-8 -9 -19 -13.5t-22 -4.5q-22 0 -36.5 17.5t-14.5 35.5z" />
<glyph unicode="&#xbc;" horiz-adv-x="1647" d="M90 1167q0 28 23 43q1 0 30 21t72 55t92 75.5t90 82.5q8 6 17 10t20 4q23 0 37 -16.5t14 -36.5v-686q17 -2 35 -4.5t35 -5.5q20 -3 32.5 -17.5t12.5 -34.5q0 -13 -5 -22.5t-13 -16t-17.5 -9.5t-17.5 -3h-8q-51 8 -96.5 12.5t-92.5 4.5q-45 0 -91 -4.5t-97 -12.5h-8 q-23 0 -37.5 15.5t-14.5 35.5t12.5 34.5t30.5 17.5q19 3 37.5 5.5t36.5 4.5v438q-20 -14 -31.5 -22.5t-13.5 -10.5q-17 -10 -31 -10q-23 0 -38 16.5t-15 36.5zM295 12q0 16 8 29q123 191 232.5 374.5t207 361.5t183 350t159.5 341q17 33 50 33h6q23 0 38 -16.5t15 -36.5 q0 -14 -8 -29q-68 -143 -126.5 -263t-115 -228.5t-113.5 -212.5t-123 -216.5t-144 -238.5t-175 -280q-19 -21 -41 -21q-23 0 -38 16.5t-15 36.5zM803 293q0 20 14 35q44 49 71 96t42 90t20.5 80.5t5.5 67.5q0 20 -1.5 36t-3.5 27q-3 13 -5 23q-2 5 -2 9v7q0 22 15.5 37.5 t35.5 15.5q17 0 31 -10t21 -27q0 -3 8 -35t8 -86q0 -30 -4.5 -67t-16.5 -78t-33 -85.5t-53 -90.5q56 -5 111 -6.5t111 -1.5h14v391q0 22 13 33t32 14q21 4 45 11q20 6 45.5 16t52.5 26q13 6 27 6q23 0 38 -16.5t15 -36.5v-432h7q5 0 11 1q7 0 15 1h6q20 0 35.5 -12.5 t15.5 -34.5q0 -23 -13.5 -38.5t-33.5 -18.5l-16 -2q-7 -1 -14.5 -1.5t-12.5 -0.5v-142q19 -2 37 -4.5t37 -5.5q20 -3 32.5 -18t12.5 -33q0 -26 -18 -39.5t-35 -13.5h-8q-51 9 -97.5 12.5t-93.5 3.5q-46 0 -92.5 -3.5t-97.5 -12.5h-9q-23 0 -38 15.5t-15 37.5q0 18 12.5 33 t32.5 18q19 3 37 5t35 5v131h-14q-82 0 -163 3.5t-165 11.5q-20 2 -33.5 18t-13.5 35z" />
<glyph unicode="&#xbd;" horiz-adv-x="1628" d="M80 1167q0 27 22 43q1 0 30.5 21t72.5 55t92 75.5t90 82.5q17 14 37 14q23 0 37 -16.5t14 -36.5v-686q17 -2 35 -4.5t35 -5.5q20 -3 32.5 -17.5t12.5 -34.5q0 -13 -5 -22.5t-13 -16t-17.5 -9.5t-17.5 -3h-9q-51 8 -96.5 12.5t-91.5 4.5q-45 0 -91 -4.5t-97 -12.5h-9 q-23 0 -37 15.5t-14 35.5t12.5 34.5t30.5 17.5q19 3 37 5.5t37 4.5v438q-20 -14 -31.5 -22.5t-13.5 -10.5q-17 -10 -31 -10q-23 0 -38 16.5t-15 36.5zM285 12q0 16 8 29q123 191 232.5 374.5t207 361.5t183 350t159.5 341q8 16 21 24.5t28 8.5h6q23 0 38.5 -16.5t15.5 -36.5 q0 -14 -8 -29q-68 -143 -126.5 -263t-115 -228.5t-113.5 -212.5t-123 -216.5t-144 -238.5t-175 -280q-19 -21 -41 -21q-23 0 -38 16.5t-15 36.5zM879 592q0 63 32 109.5t80.5 77.5t106.5 46t110 15q64 0 126.5 -20t111 -56.5t78.5 -89.5t30 -119q0 -76 -29.5 -135t-76 -106 t-104.5 -84t-115 -68q-22 -11 -41.5 -22t-38.5 -23h14q28 0 53.5 -3.5t50.5 -8t49 -8t48 -3.5q21 0 38.5 4.5t29.5 10t18.5 10.5t7.5 6q15 12 35 12q23 0 37 -16.5t14 -36.5q0 -23 -18 -41q-1 -1 -13 -9.5t-33 -18t-50.5 -17.5t-65.5 -8q-27 0 -53 3.5t-51 7.5t-49.5 7.5 t-49.5 3.5q-38 0 -78 -6.5t-84 -23.5q-5 -2 -9 -2h-9q-23 0 -38 15.5t-15 35.5q0 10 6 22q12 28 30.5 51.5t39.5 44t44 38t46 34.5q37 27 72.5 56t64 65t46 82t17.5 106q0 39 -15 68.5t-39.5 49t-57 29t-66.5 9.5q-24 0 -48 -5t-43 -16t-30.5 -29t-11.5 -44q0 -28 7.5 -46 t16.5 -28.5t16.5 -15t8.5 -4.5q16 -7 24.5 -20.5t8.5 -28.5q0 -25 -16.5 -39.5t-34.5 -14.5q-5 0 -9.5 1t-9.5 3q-16 6 -36 20.5t-38 38t-30 56.5t-12 78z" />
<glyph unicode="&#xbe;" horiz-adv-x="1782" d="M82 817q0 26 6 64q5 18 19.5 29.5t31.5 11.5q25 0 39.5 -17t14.5 -37v-10q-7 -20 -7 -43q0 -33 14.5 -57.5t37.5 -41t51.5 -24.5t56.5 -8q44 0 82 12.5t65.5 36.5t43.5 58t16 77q0 53 -25.5 88t-64.5 55.5t-85.5 29t-88.5 8.5h-13h-4q-23 0 -37 16.5t-14 36.5 q0 12 5.5 23.5t15.5 19.5l262 186h-330q-22 0 -37.5 15t-15.5 36q0 22 15.5 38t37.5 16h494q23 0 38 -16t15 -38q0 -26 -23 -43l-155 -110q48 -15 96 -41t86.5 -65t62 -92t23.5 -122q0 -88 -36 -152.5t-95 -106.5t-134 -62.5t-153 -20.5q-57 0 -112.5 16.5t-99.5 48.5 t-71.5 78.5t-27.5 106.5zM430 12q0 16 8 29q246 382 440 735.5t343 691.5q16 33 49 33h6q23 0 38 -16.5t15 -36.5q0 -14 -8 -29q-68 -143 -126.5 -263t-114.5 -228.5t-113.5 -212.5t-123.5 -216.5t-144 -238.5t-175 -280q-19 -21 -41 -21q-23 0 -38 16.5t-15 36.5zM938 293 q0 20 14 35q44 49 71.5 96t42.5 90t20.5 80.5t5.5 67.5q0 20 -2 36t-4 27q-3 13 -5 23q-2 5 -2 9v7q0 22 15.5 37.5t35.5 15.5q17 0 31.5 -10t20.5 -27q0 -3 8 -35t8 -86q0 -30 -4.5 -67t-16.5 -78t-32.5 -85.5t-52.5 -90.5q55 -5 110 -6.5t111 -1.5h14v391q0 22 13.5 33 t31.5 14q21 4 45 11q20 6 46 16t53 26q12 6 26 6q23 0 38 -16.5t15 -36.5v-432h7q5 0 11 1q7 0 15 1h6q20 0 36 -12.5t16 -34.5q0 -23 -14 -38.5t-34 -18.5l-16 -2q-7 -1 -14.5 -1.5t-12.5 -0.5v-142q19 -2 37.5 -4.5t36.5 -5.5q20 -3 32.5 -18t12.5 -33q0 -26 -18 -39.5 t-35 -13.5h-8q-51 9 -97.5 12.5t-93.5 3.5q-46 0 -92.5 -3.5t-97.5 -12.5h-8q-23 0 -38.5 15.5t-15.5 37.5q0 18 12.5 33t32.5 18q19 3 37 5t35 5v131h-14q-82 0 -163 3.5t-165 11.5q-20 2 -33.5 18t-13.5 35z" />
<glyph unicode="&#xbf;" horiz-adv-x="1128" d="M68 35q0 73 18.5 132.5t49.5 107t71.5 84.5t84.5 67t89 53.5t84 42.5q42 21 71 38t47 37t25.5 47t7.5 69v26q0 20 14 36t34 18q23 0 39 -14t18 -34q0 -3 1 -11.5t1 -22.5q0 -45 -11.5 -85t-31.5 -75t-47 -66t-58 -59q-32 -31 -62.5 -63t-53.5 -75t-37 -101t-14 -140 q0 -71 24.5 -130t67.5 -101t100.5 -65t122.5 -23q45 0 88.5 20t77 52t54 73.5t20.5 83.5q0 37 -8.5 61.5t-19 40t-19 22t-9.5 7.5q-17 11 -25 24t-8 27q0 20 15 35.5t37 15.5q17 0 30 -10q2 -1 19.5 -13t38 -38t37 -68.5t16.5 -103.5q0 -87 -41.5 -153t-107 -109.5 t-145 -65.5t-155.5 -22q-121 0 -222 31.5t-174 88t-113.5 135t-40.5 173.5zM492 993q0 32 12 60t33 49t48.5 33t59.5 12q31 0 59 -12t49 -33t33.5 -49t12.5 -60t-12.5 -59.5t-33.5 -47.5t-49 -32t-59 -12q-32 0 -59.5 12t-48.5 32t-33 47.5t-12 59.5z" />
<glyph unicode="&#xc0;" horiz-adv-x="1681" d="M-47 31q0 18 11 32t30 19q45 11 90.5 17t93.5 10q34 165 89 330t131.5 333.5t175.5 342.5t223 358q9 12 20.5 17t22.5 5q12 0 23 -4.5t18 -13.5q210 -268 360.5 -607.5t247.5 -763.5q102 -9 203 -24q20 -3 32.5 -18t12.5 -33q0 -22 -17.5 -38t-36.5 -16q-2 0 -4 0.5 t-4 2.5q-91 14 -179.5 20t-176.5 6q-87 0 -171.5 -6t-168.5 -20q-2 -2 -4 -2.5t-4 -0.5q-22 0 -37.5 17t-15.5 37q0 18 12.5 33t32.5 18q40 8 81 12.5t84 9.5q-5 19 -12 47.5t-18.5 67.5t-27 90.5t-36.5 116.5q-85 -12 -164 -18.5t-159 -6.5q-81 0 -164 6.5t-174 18.5 q-53 -158 -86 -313q62 -2 124.5 -9.5t127.5 -21.5q18 -3 29.5 -18t11.5 -33q0 -23 -17.5 -38.5t-36.5 -15.5q-3 0 -5 1.5t-5 1.5q-66 14 -129.5 21t-126.5 7q-62 0 -122 -7t-122 -21q-3 0 -5 -1.5t-5 -1.5q-23 0 -38 16t-15 38zM410 526q80 -9 154 -14.5t147 -5.5 q72 0 143.5 5.5t146.5 14.5q-37 113 -78 208.5t-80.5 172t-75 134t-60.5 94.5q-93 -158 -166.5 -308.5t-130.5 -300.5zM199 2079q0 20 15 35.5t38 15.5h275q31 0 47 -26l254 -475q6 -11 6 -25q0 -20 -15 -35.5t-38 -15.5q-20 0 -35 12l-529 473q-18 15 -18 41z" />
<glyph unicode="&#xc1;" horiz-adv-x="1681" d="M-47 31q0 18 11 32t30 19q45 11 90.5 17t93.5 10q34 165 89 330t131.5 333.5t175.5 342.5t223 358q9 12 20.5 17t22.5 5q12 0 23 -4.5t18 -13.5q210 -268 360.5 -607.5t247.5 -763.5q102 -9 203 -24q20 -3 32.5 -18t12.5 -33q0 -22 -17.5 -38t-36.5 -16q-2 0 -4 0.5 t-4 2.5q-91 14 -179.5 20t-176.5 6q-87 0 -171.5 -6t-168.5 -20q-2 -2 -4 -2.5t-4 -0.5q-22 0 -37.5 17t-15.5 37q0 18 12.5 33t32.5 18q40 8 81 12.5t84 9.5q-5 19 -12 47.5t-18.5 67.5t-27 90.5t-36.5 116.5q-85 -12 -164 -18.5t-159 -6.5q-81 0 -164 6.5t-174 18.5 q-53 -158 -86 -313q62 -2 124.5 -9.5t127.5 -21.5q18 -3 29.5 -18t11.5 -33q0 -23 -17.5 -38.5t-36.5 -15.5q-3 0 -5 1.5t-5 1.5q-66 14 -129.5 21t-126.5 7q-62 0 -122 -7t-122 -21q-3 0 -5 -1.5t-5 -1.5q-23 0 -38 16t-15 38zM410 526q80 -9 154 -14.5t147 -5.5 q72 0 143.5 5.5t146.5 14.5q-37 113 -78 208.5t-80.5 172t-75 134t-60.5 94.5q-93 -158 -166.5 -308.5t-130.5 -300.5zM829 1597q0 14 6 25l254 475q16 26 47 26h275q23 0 38 -15.5t15 -35.5q0 -26 -19 -41l-528 -473q-15 -12 -35 -12q-23 0 -38 15.5t-15 35.5z" />
<glyph unicode="&#xc2;" horiz-adv-x="1681" d="M-47 31q0 18 11 32t30 19q45 11 90.5 17t93.5 10q34 165 89 330t131.5 333.5t175.5 342.5t223 358q9 12 20.5 17t22.5 5q12 0 23 -4.5t18 -13.5q210 -268 360.5 -607.5t247.5 -763.5q102 -9 203 -24q20 -3 32.5 -18t12.5 -33q0 -22 -17.5 -38t-36.5 -16q-2 0 -4 0.5 t-4 2.5q-91 14 -179.5 20t-176.5 6q-87 0 -171.5 -6t-168.5 -20q-2 -2 -4 -2.5t-4 -0.5q-22 0 -37.5 17t-15.5 37q0 18 12.5 33t32.5 18q40 8 81 12.5t84 9.5q-5 19 -12 47.5t-18.5 67.5t-27 90.5t-36.5 116.5q-85 -12 -164 -18.5t-159 -6.5q-81 0 -164 6.5t-174 18.5 q-53 -158 -86 -313q62 -2 124.5 -9.5t127.5 -21.5q18 -3 29.5 -18t11.5 -33q0 -23 -17.5 -38.5t-36.5 -15.5q-3 0 -5 1.5t-5 1.5q-66 14 -129.5 21t-126.5 7q-62 0 -122 -7t-122 -21q-3 0 -5 -1.5t-5 -1.5q-23 0 -38 16t-15 38zM410 526q80 -9 154 -14.5t147 -5.5 q72 0 143.5 5.5t146.5 14.5q-37 113 -78 208.5t-80.5 172t-75 134t-60.5 94.5q-93 -158 -166.5 -308.5t-130.5 -300.5zM473 1563q0 17 8 28l309 451q7 11 18 16.5t23 5.5q28 0 43 -18l373 -451q12 -15 12 -32q0 -23 -17 -38.5t-36 -15.5h-250q-23 0 -39 19l-196 227 l-152 -223q-16 -23 -43 -23q-23 0 -38 17t-15 37z" />
<glyph unicode="&#xc3;" horiz-adv-x="1683" d="M-47 31q0 18 11 32t30 19q45 11 90.5 17t93.5 10q34 165 89 330t131.5 333.5t175.5 342.5t223 358q9 12 20.5 17t22.5 5q12 0 23 -4.5t18 -13.5q210 -268 360.5 -607.5t247.5 -763.5q102 -9 203 -24q20 -3 32.5 -18t12.5 -33q0 -22 -17.5 -38t-36.5 -16q-2 0 -4 0.5 t-4 2.5q-91 14 -179.5 20t-176.5 6q-87 0 -171.5 -6t-168.5 -20q-2 -2 -4 -2.5t-4 -0.5q-22 0 -37.5 17t-15.5 37q0 18 12.5 33t32.5 18q40 8 81 12.5t84 9.5q-5 19 -12 47.5t-18.5 67.5t-27 90.5t-36.5 116.5q-85 -12 -164 -18.5t-159 -6.5q-81 0 -164 6.5t-174 18.5 q-53 -158 -86 -313q62 -2 124.5 -9.5t127.5 -21.5q18 -3 29.5 -18t11.5 -33q0 -23 -17.5 -38.5t-36.5 -15.5q-3 0 -5 1.5t-5 1.5q-66 14 -129.5 21t-126.5 7q-62 0 -122 -7t-122 -21q-3 0 -5 -1.5t-5 -1.5q-23 0 -38 16t-15 38zM410 526q80 -9 154 -14.5t147 -5.5 q72 0 143.5 5.5t146.5 14.5q-37 113 -78 208.5t-80.5 172t-75 134t-60.5 94.5q-93 -158 -166.5 -308.5t-130.5 -300.5zM457 1794q0 61 17.5 112.5t49 88.5t75 57.5t96.5 20.5q71 0 119 -21.5t80.5 -54.5t52 -71t34.5 -71q19 -40 31.5 -58.5t26.5 -18.5q21 0 35 9.5 t22.5 24.5t12 32.5t3.5 33.5q0 26 -7.5 51.5t-22.5 46.5q-7 6 -10 14.5t-3 16.5q0 23 17 38t37 15q12 0 22.5 -5.5t20.5 -14.5q37 -59 52 -124.5t15 -127.5q0 -58 -18.5 -110.5t-51.5 -92.5t-78 -64t-98 -24q-52 0 -92 21.5t-71.5 55t-57 74t-47.5 78.5q-8 15 -16 32 t-18.5 32t-24 25t-31.5 10q-27 0 -40.5 -14.5t-17.5 -37.5t-1 -50.5t10 -54t15.5 -48t15.5 -31.5q5 -8 7.5 -14t2.5 -14q0 -23 -16.5 -38.5t-36.5 -15.5q-25 0 -43 25q-21 28 -34.5 63t-21 70.5t-10 69t-2.5 59.5z" />
<glyph unicode="&#xc4;" horiz-adv-x="1683" d="M-47 31q0 18 11 32t30 19q45 11 90.5 17t93.5 10q34 165 89 330t131.5 333.5t175.5 342.5t223 358q9 12 20.5 17t22.5 5q12 0 23 -4.5t18 -13.5q210 -268 360.5 -607.5t247.5 -763.5q102 -9 203 -24q20 -3 32.5 -18t12.5 -33q0 -22 -17.5 -38t-36.5 -16q-2 0 -4 0.5 t-4 2.5q-91 14 -179.5 20t-176.5 6q-87 0 -171.5 -6t-168.5 -20q-2 -2 -4 -2.5t-4 -0.5q-22 0 -37.5 17t-15.5 37q0 18 12.5 33t32.5 18q40 8 81 12.5t84 9.5q-5 19 -12 47.5t-18.5 67.5t-27 90.5t-36.5 116.5q-85 -12 -164 -18.5t-159 -6.5q-81 0 -164 6.5t-174 18.5 q-53 -158 -86 -313q62 -2 124.5 -9.5t127.5 -21.5q18 -3 29.5 -18t11.5 -33q0 -23 -17.5 -38.5t-36.5 -15.5q-3 0 -5 1.5t-5 1.5q-66 14 -129.5 21t-126.5 7q-62 0 -122 -7t-122 -21q-3 0 -5 -1.5t-5 -1.5q-23 0 -38 16t-15 38zM410 526q80 -9 154 -14.5t147 -5.5 q72 0 143.5 5.5t146.5 14.5q-37 113 -78 208.5t-80.5 172t-75 134t-60.5 94.5q-93 -158 -166.5 -308.5t-130.5 -300.5zM473 1614q0 31 12 59t33 49t49 33t60 12q31 0 59 -12t49 -33t33 -49t12 -59q0 -32 -12 -60t-33 -49t-49 -33t-59 -12q-32 0 -60 12t-49 33t-33 49t-12 60 zM911 1614q0 31 12 59t32.5 49t48 33t59.5 12t60 -12t48.5 -33t32.5 -49t12 -59q0 -32 -12 -60t-32.5 -49t-48.5 -33t-60 -12t-59.5 12t-48 33t-32.5 49t-12 60z" />
<glyph unicode="&#xc5;" horiz-adv-x="1686" d="M-45 31q0 18 11 32t30 19q45 11 90.5 17t93.5 10q31 150 79 299.5t113.5 301.5t149.5 308t189 319q-40 19 -72.5 49t-55 67t-34.5 80.5t-12 90.5q0 67 24 125t66 100t98 66t121 24q68 0 125 -23t98.5 -64.5t64.5 -99.5t23 -128q0 -103 -45.5 -178.5t-126.5 -110.5 q170 -248 295.5 -553.5t210.5 -675.5q51 -5 101.5 -10.5t101.5 -13.5q20 -3 32.5 -18t12.5 -33q0 -22 -17.5 -38t-35.5 -16q-7 0 -9 3q-91 14 -179.5 20t-176.5 6q-87 0 -171.5 -6t-168.5 -20q-2 -2 -4 -2.5t-4 -0.5q-22 0 -37.5 17t-15.5 37q0 18 12.5 33t32.5 18 q40 8 81 12.5t84 9.5q-5 19 -12 47.5t-18.5 67.5t-27 90.5t-36.5 116.5q-85 -12 -164 -18.5t-159 -6.5q-81 0 -164 6.5t-174 18.5q-53 -158 -86 -313q62 -2 124.5 -9.5t127.5 -21.5q18 -3 29.5 -18t11.5 -33q0 -23 -17.5 -38.5t-36.5 -15.5q-3 0 -5 1.5t-5 1.5 q-66 14 -129.5 21t-126.5 7q-62 0 -122 -7t-122 -21q-3 0 -5 -1.5t-5 -1.5q-23 0 -38 16t-15 38zM412 526q80 -9 154 -14.5t147 -5.5q72 0 143.5 5.5t147.5 14.5q-37 113 -78.5 208.5t-81 172t-75 134t-60.5 94.5q-93 -158 -166.5 -308.5t-130.5 -300.5zM641 1624 q0 -26 5.5 -53.5t17.5 -51t31.5 -38.5t47.5 -15q31 0 53 17t36 41.5t20 53t6 52.5q0 26 -8 54t-23.5 50.5t-37.5 37t-50 14.5q-29 0 -48 -17.5t-30 -42.5t-15.5 -53t-4.5 -49z" />
<glyph unicode="&#xc6;" horiz-adv-x="2091" d="M-41 31q2 18 14.5 32t32.5 19q45 11 92 17t95 10q52 165 119 320.5t155.5 312.5t201 321.5t255.5 347.5q20 23 45 23q106 0 221 1t232 5.5t231.5 12.5t218.5 22h8q20 0 34 -13.5t17 -31.5l43 -338v-7q0 -23 -16.5 -37t-36.5 -14q-19 0 -33.5 12.5t-17.5 32.5l-37 285 q-116 -16 -231.5 -18t-235.5 -9v-673q25 1 65 3t86.5 6t94.5 9.5t90 13.5h10q22 0 37.5 -15.5t15.5 -35.5t-12 -34t-31 -19q-46 -9 -98.5 -15t-101.5 -9.5t-90.5 -5.5t-65.5 -3v-455h29q118 0 238.5 -3t242.5 -11l37 268q3 20 17.5 32.5t33.5 12.5q25 0 39 -17t14 -34v-8 l-43 -317q-3 -20 -18 -32.5t-35 -12.5h-2q-267 18 -524 18q-259 0 -502 -18h-4q-23 2 -38 16t-15 37q0 20 13.5 34.5t35.5 16.5q32 3 64.5 4.5t64.5 3.5v328q-41 -5 -74.5 -9t-65 -6.5t-63 -4t-68.5 -1.5q-80 0 -156.5 6.5t-166.5 18.5q-34 -78 -63.5 -156.5t-55.5 -156.5 q62 -2 124.5 -9.5t125.5 -21.5q17 -3 27 -18t8 -33q-3 -23 -22 -38.5t-38 -15.5q-3 0 -5 1.5t-5 1.5q-65 14 -127 21t-125 7q-62 0 -123.5 -7t-124.5 -21q-3 0 -5 -1.5t-5 -1.5q-23 0 -36 16t-11 38zM467 526q40 -5 74.5 -8.5t67.5 -6t65.5 -4t68.5 -1.5q66 0 130 4t141 12 v805q-1 0 -5 0.5t-9 1.5q-6 1 -13 2q-50 -55 -101 -122t-100.5 -140t-96.5 -148t-88 -146.5t-75.5 -135t-58.5 -113.5z" />
<glyph unicode="&#xc7;" horiz-adv-x="1513" d="M100 684q0 152 32 271t87.5 208.5t130.5 152t159.5 101.5t175.5 56.5t179 17.5t158 -18.5t125 -47.5t94.5 -63.5t65.5 -65.5l55 158q6 17 20 27t29 10q22 0 37.5 -16.5t15.5 -36.5q0 -9 -4 -17l-160 -465q-5 -17 -18.5 -25.5t-30.5 -8.5q-23 0 -38 17t-15 34q0 8 4 16 l64 187q-25 40 -60.5 76.5t-77.5 64.5t-89 44.5t-95 16.5q-91 0 -162.5 -28t-125 -76t-91.5 -112.5t-61.5 -137.5t-34 -150.5t-10.5 -152.5q0 -65 7 -138.5t24 -147t45 -141t69 -119.5t97 -83t130 -31q87 0 165.5 25t143.5 71.5t113.5 111.5t75.5 145q5 18 19 29.5t32 11.5 q22 0 37 -17t15 -37v-12q-1 -2 -6.5 -20t-18 -46.5t-33 -65t-51.5 -75.5q-46 -57 -103 -99t-120.5 -70t-131.5 -42t-137 -14q-14 0 -27.5 1t-27.5 1l-35 -80h39q59 0 110.5 -17.5t89.5 -49.5t59.5 -78t21.5 -103q0 -61 -22 -107t-59 -76.5t-87 -46t-105 -15.5q-71 0 -141 25 t-127 75q-9 8 -13.5 18t-4.5 21q0 22 17 37.5t36 15.5q5 0 9 -1t9 -3q14 -5 41 -11.5t56 -6.5q54 0 76 23t22 73q0 20 -6 39.5t-17 35.5t-27 25.5t-36 9.5q-9 0 -14.5 -1t-10.5 -1q-23 0 -37 17t-14 37q0 5 1 10t3 10l58 139q-134 24 -239.5 84t-178.5 151.5t-111.5 211.5 t-38.5 264z" />
<glyph unicode="&#xc8;" horiz-adv-x="1350" d="M94 35q0 20 14 34.5t35 16.5q32 3 64.5 4.5t64.5 3.5v1219q-32 2 -64 2h-63q-21 2 -36 16.5t-15 36.5t16 37.5t37 15.5q37 -2 73 -2h71q213 0 422 14t417 42h9q20 0 34 -13.5t17 -31.5l43 -338v-7q0 -23 -16.5 -37t-36.5 -14q-19 0 -33.5 12.5t-18.5 32.5l-36 285 q-116 -16 -232.5 -25.5t-234.5 -15.5v-659q24 1 64 3t86.5 6t95 9.5t90.5 13.5h10q21 0 37 -15.5t16 -35.5t-12 -34t-31 -19q-46 -9 -98.5 -15t-102 -9.5t-90.5 -5.5t-65 -3v-455h28q119 0 239.5 -3t242.5 -11l36 268q4 20 18.5 32.5t33.5 12.5q24 0 38.5 -17t14.5 -34v-8 l-43 -317q-3 -20 -18 -32.5t-35 -12.5h-2q-269 18 -525 18q-260 0 -501 -18h-5q-23 2 -38 16t-15 37zM84 2005q0 20 15 35.5t38 15.5h275q31 0 47 -26l254 -475q6 -11 6 -25q0 -20 -15 -35.5t-38 -15.5q-20 0 -35 12l-529 473q-18 15 -18 41z" />
<glyph unicode="&#xc9;" horiz-adv-x="1350" d="M94 35q0 20 14 34.5t35 16.5q32 3 64.5 4.5t64.5 3.5v1219q-32 2 -64 2h-63q-21 2 -36 16.5t-15 36.5t16 37.5t37 15.5q37 -2 73 -2h71q213 0 422 14t417 42h9q20 0 34 -13.5t17 -31.5l43 -338v-7q0 -23 -16.5 -37t-36.5 -14q-19 0 -33.5 12.5t-18.5 32.5l-36 285 q-116 -16 -232.5 -25.5t-234.5 -15.5v-659q24 1 64 3t86.5 6t95 9.5t90.5 13.5h10q21 0 37 -15.5t16 -35.5t-12 -34t-31 -19q-46 -9 -98.5 -15t-102 -9.5t-90.5 -5.5t-65 -3v-455h28q119 0 239.5 -3t242.5 -11l36 268q4 20 18.5 32.5t33.5 12.5q24 0 38.5 -17t14.5 -34v-8 l-43 -317q-3 -20 -18 -32.5t-35 -12.5h-2q-269 18 -525 18q-260 0 -501 -18h-5q-23 2 -38 16t-15 37zM598 1520q0 14 6 25l254 475q16 26 47 26h275q23 0 38 -15.5t15 -35.5q0 -26 -19 -41l-528 -473q-15 -12 -35 -12q-23 0 -38 15.5t-15 35.5z" />
<glyph unicode="&#xca;" horiz-adv-x="1350" d="M94 35q0 20 14 34.5t35 16.5q32 3 64.5 4.5t64.5 3.5v1219q-32 2 -64 2h-63q-21 2 -36 16.5t-15 36.5t16 37.5t37 15.5q37 -2 73 -2h71q213 0 422 14t417 42h9q20 0 34 -13.5t17 -31.5l43 -338v-7q0 -23 -16.5 -37t-36.5 -14q-19 0 -33.5 12.5t-18.5 32.5l-36 285 q-116 -16 -232.5 -25.5t-234.5 -15.5v-659q24 1 64 3t86.5 6t95 9.5t90.5 13.5h10q21 0 37 -15.5t16 -35.5t-12 -34t-31 -19q-46 -9 -98.5 -15t-102 -9.5t-90.5 -5.5t-65 -3v-455h28q119 0 239.5 -3t242.5 -11l36 268q4 20 18.5 32.5t33.5 12.5q24 0 38.5 -17t14.5 -34v-8 l-43 -317q-3 -20 -18 -32.5t-35 -12.5h-2q-269 18 -525 18q-260 0 -501 -18h-5q-23 2 -38 16t-15 37zM291 1553q0 17 8 28l309 451q7 11 18 16.5t23 5.5q28 0 43 -18l373 -451q12 -15 12 -32q0 -23 -17 -38.5t-36 -15.5h-250q-23 0 -39 19l-196 227l-152 -223 q-16 -23 -43 -23q-23 0 -38 17t-15 37z" />
<glyph unicode="&#xcb;" horiz-adv-x="1350" d="M94 35q0 20 14 34.5t35 16.5q32 3 64.5 4.5t64.5 3.5v1219q-32 2 -64 2h-63q-21 2 -36 16.5t-15 36.5t16 37.5t37 15.5q37 -2 73 -2h71q213 0 422 14t417 42h9q20 0 34 -13.5t17 -31.5l43 -338v-7q0 -23 -16.5 -37t-36.5 -14q-19 0 -33.5 12.5t-18.5 32.5l-36 285 q-116 -16 -232.5 -25.5t-234.5 -15.5v-659q24 1 64 3t86.5 6t95 9.5t90.5 13.5h10q21 0 37 -15.5t16 -35.5t-12 -34t-31 -19q-46 -9 -98.5 -15t-102 -9.5t-90.5 -5.5t-65 -3v-455h28q119 0 239.5 -3t242.5 -11l36 268q4 20 18.5 32.5t33.5 12.5q24 0 38.5 -17t14.5 -34v-8 l-43 -317q-3 -20 -18 -32.5t-35 -12.5h-2q-269 18 -525 18q-260 0 -501 -18h-5q-23 2 -38 16t-15 37zM313 1672q0 31 12 59t33 49t49 33t60 12q31 0 59 -12t49 -33t33 -49t12 -59q0 -32 -12 -60t-33 -49t-49 -33t-59 -12q-32 0 -60 12t-49 33t-33 49t-12 60zM751 1672 q0 31 12 59t32.5 49t48 33t59.5 12t60 -12t48.5 -33t32.5 -49t12 -59q0 -32 -12 -60t-32.5 -49t-48.5 -33t-60 -12t-59.5 12t-48 33t-32.5 49t-12 60z" />
<glyph unicode="&#xcc;" horiz-adv-x="926" d="M80 37q0 20 13.5 35t33.5 18q37 3 74.5 6t74.5 6l23 1244q-86 6 -174 18q-20 3 -32.5 18t-12.5 33q0 26 18 39.5t35 13.5h6q106 -15 209 -21.5t205 -6.5q62 0 122 2t120 8h4q23 0 38 -16t15 -37q0 -20 -14 -34.5t-35 -16.5q-37 -4 -74 -6.5t-76 -4.5l-32 -1233 q38 -3 77.5 -6t79.5 -6q23 -5 35 -20.5t12 -36.5q-2 -22 -17.5 -34.5t-35.5 -12.5h-4q-80 8 -159.5 12t-159.5 4q-79 0 -156.5 -4t-155.5 -12h-4q-23 0 -38 15.5t-15 35.5zM-130 2019q0 20 15 35.5t38 15.5h275q31 0 47 -26l254 -475q6 -11 6 -25q0 -20 -15 -35.5t-38 -15.5 q-20 0 -35 12l-529 473q-18 15 -18 41z" />
<glyph unicode="&#xcd;" horiz-adv-x="926" d="M80 37q0 20 13.5 35t33.5 18q37 3 74.5 6t74.5 6l23 1244q-86 6 -174 18q-20 3 -32.5 18t-12.5 33q0 26 18 39.5t35 13.5h6q106 -15 209 -21.5t205 -6.5q62 0 122 2t120 8h4q23 0 38 -16t15 -37q0 -20 -14 -34.5t-35 -16.5q-37 -4 -74 -6.5t-76 -4.5l-32 -1233 q38 -3 77.5 -6t79.5 -6q23 -5 35 -20.5t12 -36.5q-2 -22 -17.5 -34.5t-35.5 -12.5h-4q-80 8 -159.5 12t-159.5 4q-79 0 -156.5 -4t-155.5 -12h-4q-23 0 -38 15.5t-15 35.5zM442 1546q0 14 6 25l254 475q16 26 47 26h275q23 0 38 -15.5t15 -35.5q0 -26 -19 -41l-528 -473 q-15 -12 -35 -12q-23 0 -38 15.5t-15 35.5z" />
<glyph unicode="&#xce;" horiz-adv-x="926" d="M80 37q0 20 13.5 35t33.5 18q37 3 74.5 6t74.5 6l23 1244q-86 6 -174 18q-20 3 -32.5 18t-12.5 33q0 26 18 39.5t35 13.5h6q106 -15 209 -21.5t205 -6.5q62 0 122 2t120 8h4q23 0 38 -16t15 -37q0 -20 -14 -34.5t-35 -16.5q-37 -4 -74 -6.5t-76 -4.5l-32 -1233 q38 -3 77.5 -6t79.5 -6q23 -5 35 -20.5t12 -36.5q-2 -22 -17.5 -34.5t-35.5 -12.5h-4q-80 8 -159.5 12t-159.5 4q-79 0 -156.5 -4t-155.5 -12h-4q-23 0 -38 15.5t-15 35.5zM74 1590q0 17 8 28l309 451q7 11 18 16.5t23 5.5q28 0 43 -18l373 -451q12 -15 12 -32 q0 -23 -17 -38.5t-36 -15.5h-250q-23 0 -39 19l-196 227l-152 -223q-16 -23 -43 -23q-23 0 -38 17t-15 37z" />
<glyph unicode="&#xcf;" horiz-adv-x="926" d="M80 37q0 20 13.5 35t33.5 18q37 3 74.5 6t74.5 6l23 1244q-86 6 -174 18q-20 3 -32.5 18t-12.5 33q0 26 18 39.5t35 13.5h6q106 -15 209 -21.5t205 -6.5q62 0 122 2t120 8h4q23 0 38 -16t15 -37q0 -20 -14 -34.5t-35 -16.5q-37 -4 -74 -6.5t-76 -4.5l-32 -1233 q38 -3 77.5 -6t79.5 -6q23 -5 35 -20.5t12 -36.5q-2 -22 -17.5 -34.5t-35.5 -12.5h-4q-80 8 -159.5 12t-159.5 4q-79 0 -156.5 -4t-155.5 -12h-4q-23 0 -38 15.5t-15 35.5zM94 1678q0 31 12 59t33 49t49 33t60 12q31 0 59 -12t49 -33t33 -49t12 -59q0 -32 -12 -60t-33 -49 t-49 -33t-59 -12q-32 0 -60 12t-49 33t-33 49t-12 60zM532 1678q0 31 12 59t32.5 49t48 33t59.5 12t60 -12t48.5 -33t32.5 -49t12 -59q0 -32 -12 -60t-32.5 -49t-48.5 -33t-60 -12t-59.5 12t-48 33t-32.5 49t-12 60z" />
<glyph unicode="&#xd0;" horiz-adv-x="1546" d="M74.5 1332.5q1.5 10.5 7 20t13 16.5t16.5 9q4 1 45 13.5t109.5 27t160.5 26t199 11.5q176 0 326 -47t259.5 -140t171.5 -232.5t62 -325.5q0 -124 -32 -228t-90.5 -188t-139 -147t-177.5 -105.5t-207 -64t-227 -21.5q-98 0 -178 10t-137.5 22t-90 22.5t-36.5 11.5 q-15 6 -24 19.5t-9 29.5q0 24 16.5 38.5t34.5 14.5q5 0 9.5 -1t9.5 -3q2 0 31.5 -9.5t85.5 -21.5v514q-75 8 -118.5 15.5t-45.5 7.5q-19 3 -31 17.5t-12 33.5q0 13 5.5 23t13.5 16.5t17 10t17 3.5q2 0 4 -1t4 -1t41.5 -6t104.5 -12v604q-63 -13 -99.5 -24t-38.5 -11 q-5 -2 -9 -3t-7 -1q-17 0 -31 10t-20 27q-5 9 -3.5 19.5zM635 63q97 -3 186.5 18t168 61t143 98.5t110 131t71 158.5t25.5 181q0 159 -53.5 282.5t-148 206t-223.5 122t-279 30.5v-650q49 5 94.5 11.5t87.5 15.5q3 0 6 1t6 1q23 0 37.5 -16.5t14.5 -36.5q0 -19 -11.5 -32.5 t-29.5 -18.5q-48 -11 -98.5 -18.5t-106.5 -10.5v-535z" />
<glyph unicode="&#xd1;" horiz-adv-x="1681" d="M80 33q0 20 13.5 35t33.5 18q37 3 74.5 6t74.5 6l23 1262q-86 6 -174 18q-20 3 -32.5 18.5t-12.5 35.5q0 24 18 37.5t35 13.5h6q107 -14 209.5 -21.5t204.5 -7.5h74q1 0 6 -0.5t11.5 -2.5t14 -7t13.5 -14q4 -7 26 -45t57 -99t80.5 -141t97 -171t105.5 -189t106.5 -195.5 t101 -190t87.5 -172.5q13 131 22 266t9 277t-11 290t-36 304q-13 -2 -25 -2h-26q-59 0 -123 6q-20 2 -33.5 17.5t-13.5 35.5q0 22 16.5 37t36.5 15h6q28 -4 55.5 -5.5t55.5 -1.5q69 0 135 9t129 26q4 2 14 2q22 0 36.5 -15.5t14.5 -35.5q0 -17 -9.5 -31.5t-26.5 -19.5 q-35 -9 -69 -16.5t-69 -12.5q26 -158 36.5 -307t10.5 -295q0 -198 -15.5 -382t-37.5 -361q-6 -22 -20.5 -33.5t-32.5 -11.5q-34 0 -47 32q-28 68 -76.5 167.5t-109 214t-128 237.5t-132 238t-121.5 215.5t-97 170.5l-30 -1159q38 -3 77.5 -6t79.5 -6q20 -3 33.5 -18 t13.5 -35q0 -23 -17 -37t-36 -14h-4q-80 8 -159.5 12t-159.5 4q-79 0 -156.5 -4t-155.5 -12h-4q-22 0 -37.5 15.5t-15.5 35.5zM449 1788q0 61 17.5 112.5t49 88.5t75 57.5t96.5 20.5q71 0 119 -21.5t80.5 -54.5t52 -71t34.5 -71q19 -40 31.5 -58.5t26.5 -18.5q21 0 35 9.5 t22.5 24.5t12 32.5t3.5 33.5q0 26 -7.5 51.5t-22.5 46.5q-7 6 -10 14.5t-3 16.5q0 23 17 38t37 15q12 0 22.5 -5.5t20.5 -14.5q37 -59 52 -124.5t15 -127.5q0 -58 -18.5 -110.5t-51.5 -92.5t-78 -64t-98 -24q-52 0 -92 21.5t-71.5 55t-57 74t-47.5 78.5q-8 15 -16 32 t-18.5 32t-24 25t-31.5 10q-27 0 -40.5 -14.5t-17.5 -37.5t-1 -50.5t10 -54t15.5 -48t15.5 -31.5q5 -8 7.5 -14t2.5 -14q0 -23 -16.5 -38.5t-36.5 -15.5q-25 0 -43 25q-21 28 -34.5 63t-21 70.5t-10 69t-2.5 59.5z" />
<glyph unicode="&#xd2;" horiz-adv-x="1634" d="M94 711q0 106 26 205t73 184.5t113.5 156t146.5 121t172.5 78t191.5 27.5q105 0 199.5 -30t175 -83t145.5 -126t110.5 -159t70 -181t24.5 -193q0 -105 -26.5 -202.5t-74 -183.5t-114.5 -157t-147.5 -122t-172.5 -79t-190 -28q-99 0 -191.5 27.5t-172.5 78t-146.5 121 t-113.5 156t-73 184.5t-26 205zM446 727q0 -81 9.5 -162t32 -155.5t58 -139t87.5 -112t121.5 -74.5t158.5 -27q71 0 137.5 28t125 75.5t107 112t83 137t53.5 150t19 151.5q0 68 -18 142.5t-50.5 146t-78 136t-100 113t-116.5 77t-127 28.5q-88 0 -159 -26t-126.5 -70.5 t-96.5 -105.5t-67.5 -130.5t-39.5 -145t-13 -149.5zM215 2074q0 20 15 35.5t38 15.5h275q31 0 47 -26l254 -475q6 -11 6 -25q0 -20 -15 -35.5t-38 -15.5q-20 0 -35 12l-529 473q-18 15 -18 41z" />
<glyph unicode="&#xd3;" horiz-adv-x="1634" d="M94 711q0 106 26 205t73 184.5t113.5 156t146.5 121t172.5 78t191.5 27.5q105 0 199.5 -30t175 -83t145.5 -126t110.5 -159t70 -181t24.5 -193q0 -105 -26.5 -202.5t-74 -183.5t-114.5 -157t-147.5 -122t-172.5 -79t-190 -28q-99 0 -191.5 27.5t-172.5 78t-146.5 121 t-113.5 156t-73 184.5t-26 205zM446 727q0 -81 9.5 -162t32 -155.5t58 -139t87.5 -112t121.5 -74.5t158.5 -27q71 0 137.5 28t125 75.5t107 112t83 137t53.5 150t19 151.5q0 68 -18 142.5t-50.5 146t-78 136t-100 113t-116.5 77t-127 28.5q-88 0 -159 -26t-126.5 -70.5 t-96.5 -105.5t-67.5 -130.5t-39.5 -145t-13 -149.5zM840 1602q0 14 6 25l254 475q16 26 47 26h275q23 0 38 -15.5t15 -35.5q0 -26 -19 -41l-528 -473q-15 -12 -35 -12q-23 0 -38 15.5t-15 35.5z" />
<glyph unicode="&#xd4;" horiz-adv-x="1634" d="M94 711q0 106 26 205t73 184.5t113.5 156t146.5 121t172.5 78t191.5 27.5q105 0 199.5 -30t175 -83t145.5 -126t110.5 -159t70 -181t24.5 -193q0 -105 -26.5 -202.5t-74 -183.5t-114.5 -157t-147.5 -122t-172.5 -79t-190 -28q-99 0 -191.5 27.5t-172.5 78t-146.5 121 t-113.5 156t-73 184.5t-26 205zM446 727q0 -81 9.5 -162t32 -155.5t58 -139t87.5 -112t121.5 -74.5t158.5 -27q71 0 137.5 28t125 75.5t107 112t83 137t53.5 150t19 151.5q0 68 -18 142.5t-50.5 146t-78 136t-100 113t-116.5 77t-127 28.5q-88 0 -159 -26t-126.5 -70.5 t-96.5 -105.5t-67.5 -130.5t-39.5 -145t-13 -149.5zM424 1594q0 17 8 28l309 451q7 11 18 16.5t23 5.5q28 0 43 -18l373 -451q12 -15 12 -32q0 -23 -17 -38.5t-36 -15.5h-250q-23 0 -39 19l-196 227l-152 -223q-16 -23 -43 -23q-23 0 -38 17t-15 37z" />
<glyph unicode="&#xd5;" horiz-adv-x="1634" d="M94 711q0 106 26 205t73 184.5t113.5 156t146.5 121t172.5 78t191.5 27.5q105 0 199.5 -30t175 -83t145.5 -126t110.5 -159t70 -181t24.5 -193q0 -105 -26.5 -202.5t-74 -183.5t-114.5 -157t-147.5 -122t-172.5 -79t-190 -28q-99 0 -191.5 27.5t-172.5 78t-146.5 121 t-113.5 156t-73 184.5t-26 205zM446 727q0 -81 9.5 -162t32 -155.5t58 -139t87.5 -112t121.5 -74.5t158.5 -27q71 0 137.5 28t125 75.5t107 112t83 137t53.5 150t19 151.5q0 68 -18 142.5t-50.5 146t-78 136t-100 113t-116.5 77t-127 28.5q-88 0 -159 -26t-126.5 -70.5 t-96.5 -105.5t-67.5 -130.5t-39.5 -145t-13 -149.5zM430 1817q0 61 17.5 112.5t49 88.5t75 57.5t96.5 20.5q71 0 119 -21.5t80.5 -54.5t52 -71t34.5 -71q19 -40 31.5 -58.5t26.5 -18.5q21 0 35 9.5t22.5 24.5t12 32.5t3.5 33.5q0 26 -7.5 51.5t-22.5 46.5q-7 6 -10 14.5 t-3 16.5q0 23 17 38t37 15q12 0 22.5 -5.5t20.5 -14.5q37 -59 52 -124.5t15 -127.5q0 -58 -18.5 -110.5t-51.5 -92.5t-78 -64t-98 -24q-52 0 -92 21.5t-71.5 55t-57 74t-47.5 78.5q-8 15 -16 32t-18.5 32t-24 25t-31.5 10q-27 0 -40.5 -14.5t-17.5 -37.5t-1 -50.5t10 -54 t15.5 -48t15.5 -31.5q5 -8 7.5 -14t2.5 -14q0 -23 -16.5 -38.5t-36.5 -15.5q-25 0 -43 25q-21 28 -34.5 63t-21 70.5t-10 69t-2.5 59.5z" />
<glyph unicode="&#xd6;" horiz-adv-x="1634" d="M94 711q0 106 26 205t73 184.5t113.5 156t146.5 121t172.5 78t191.5 27.5q105 0 199.5 -30t175 -83t145.5 -126t110.5 -159t70 -181t24.5 -193q0 -105 -26.5 -202.5t-74 -183.5t-114.5 -157t-147.5 -122t-172.5 -79t-190 -28q-99 0 -191.5 27.5t-172.5 78t-146.5 121 t-113.5 156t-73 184.5t-26 205zM446 727q0 -81 9.5 -162t32 -155.5t58 -139t87.5 -112t121.5 -74.5t158.5 -27q71 0 137.5 28t125 75.5t107 112t83 137t53.5 150t19 151.5q0 68 -18 142.5t-50.5 146t-78 136t-100 113t-116.5 77t-127 28.5q-88 0 -159 -26t-126.5 -70.5 t-96.5 -105.5t-67.5 -130.5t-39.5 -145t-13 -149.5zM446 1684q0 31 12 59t33 49t49 33t60 12q31 0 59 -12t49 -33t33 -49t12 -59q0 -32 -12 -60t-33 -49t-49 -33t-59 -12q-32 0 -60 12t-49 33t-33 49t-12 60zM884 1684q0 31 12 59t32.5 49t48 33t59.5 12t60 -12t48.5 -33 t32.5 -49t12 -59q0 -32 -12 -60t-32.5 -49t-48.5 -33t-60 -12t-59.5 12t-48 33t-32.5 49t-12 60z" />
<glyph unicode="&#xd7;" horiz-adv-x="1104" d="M106 340q0 9 3.5 19t11.5 18l287 289l-291 393q-5 8 -8 15.5t-3 17.5q0 20 13.5 34.5t32.5 16.5l239 35h8q28 0 43 -21l189 -256l260 262q8 8 17.5 11.5t19.5 3.5q23 0 38 -16t15 -36q0 -22 -14 -36l-273 -275l303 -409q7 -8 9 -15.5t2 -15.5q0 -23 -14 -36.5t-31 -16.5 l-240 -35h-8q-28 0 -41 20l-203 275l-274 -279q-8 -9 -18 -12.5t-19 -3.5q-23 0 -38.5 16.5t-15.5 36.5z" />
<glyph unicode="&#xd8;" horiz-adv-x="1634" d="M94 711q0 106 26 205t73 184.5t113.5 156t146.5 121t172.5 78t191.5 27.5q113 0 208 -26.5t173 -74.5q22 36 41 64.5t35 50.5q11 23 41 23q25 0 39 -17t14 -37q0 -8 -4 -17t-4 -11l-78 -119q64 -56 113 -125t81.5 -147.5t49 -163.5t16.5 -172q0 -105 -26.5 -202.5 t-74 -183.5t-114.5 -157t-147.5 -122t-172.5 -79t-190 -28q-80 0 -154.5 17.5t-142.5 49.5q-21 -42 -37.5 -78t-27.5 -65q0 -17 -16 -26t-31 -9q-19 0 -36.5 13.5t-17.5 35.5q0 5 1 9.5t3 9.5q11 31 30 71.5t44 89.5q-76 52 -138.5 122t-106.5 154t-68.5 179.5t-24.5 198.5z M446 727q0 -122 22.5 -240.5t76.5 -214.5q67 123 145.5 261t158.5 274.5t156.5 263t139.5 227.5q-47 26 -96.5 41t-100.5 15q-88 0 -159 -26t-126.5 -70.5t-96.5 -105.5t-67.5 -130.5t-39.5 -145t-13 -149.5zM610 182q54 -59 128.5 -92t174.5 -33q71 0 137.5 28t125 75.5 t107 112t83 137t53.5 150t19 151.5q0 81 -15 156t-42.5 141.5t-66 123.5t-85.5 101q-45 -72 -96.5 -155t-105.5 -173t-109.5 -183.5t-109.5 -186.5t-104.5 -182.5t-93.5 -170.5z" />
<glyph unicode="&#xd9;" horiz-adv-x="1546" d="M76 1372q0 22 15 37.5t38 15.5h627q21 0 37 -15.5t16 -37.5t-16 -37.5t-37 -15.5h-152q-5 -32 -11.5 -89.5t-13.5 -132.5t-11.5 -165t-4.5 -187q0 -57 2.5 -130t13 -150t30 -151t53.5 -132t84.5 -93.5t121.5 -35.5q93 0 160.5 49t111 134t64.5 200t21 246q0 97 -5 195.5 t-12 186t-15 158t-13 111.5l-168 -14h-6q-22 0 -37 16.5t-15 36.5t13.5 35t33.5 18l439 35h4q21 0 36 -15.5t15 -35.5q0 -22 -13.5 -36.5t-33.5 -16.5l-164 -13q5 -44 13 -115.5t15 -160t12.5 -188t6.5 -197.5q-3 -105 -17 -201t-41.5 -179.5t-71.5 -151.5t-107 -116.5 t-147.5 -75t-192.5 -26.5q-119 0 -206 38.5t-148 103t-99 149.5t-59.5 178t-29 188t-7.5 181q0 94 4.5 179t11 155.5t14 125t13.5 89.5h-119q-23 0 -38 15.5t-15 37.5zM281 2007q0 20 15 35.5t38 15.5h275q31 0 47 -26l254 -475q6 -11 6 -25q0 -20 -15 -35.5t-38 -15.5 q-20 0 -35 12l-529 473q-18 15 -18 41z" />
<glyph unicode="&#xda;" horiz-adv-x="1546" d="M76 1372q0 22 15 37.5t38 15.5h627q21 0 37 -15.5t16 -37.5t-16 -37.5t-37 -15.5h-152q-5 -32 -11.5 -89.5t-13.5 -132.5t-11.5 -165t-4.5 -187q0 -57 2.5 -130t13 -150t30 -151t53.5 -132t84.5 -93.5t121.5 -35.5q93 0 160.5 49t111 134t64.5 200t21 246q0 97 -5 195.5 t-12 186t-15 158t-13 111.5l-168 -14h-6q-22 0 -37 16.5t-15 36.5t13.5 35t33.5 18l439 35h4q21 0 36 -15.5t15 -35.5q0 -22 -13.5 -36.5t-33.5 -16.5l-164 -13q5 -44 13 -115.5t15 -160t12.5 -188t6.5 -197.5q-3 -105 -17 -201t-41.5 -179.5t-71.5 -151.5t-107 -116.5 t-147.5 -75t-192.5 -26.5q-119 0 -206 38.5t-148 103t-99 149.5t-59.5 178t-29 188t-7.5 181q0 94 4.5 179t11 155.5t14 125t13.5 89.5h-119q-23 0 -38 15.5t-15 37.5zM838 1532q0 14 6 25l254 475q16 26 47 26h275q23 0 38 -15.5t15 -35.5q0 -26 -19 -41l-528 -473 q-15 -12 -35 -12q-23 0 -38 15.5t-15 35.5z" />
<glyph unicode="&#xdb;" horiz-adv-x="1546" d="M76 1372q0 22 15 37.5t38 15.5h627q21 0 37 -15.5t16 -37.5t-16 -37.5t-37 -15.5h-152q-5 -32 -11.5 -89.5t-13.5 -132.5t-11.5 -165t-4.5 -187q0 -57 2.5 -130t13 -150t30 -151t53.5 -132t84.5 -93.5t121.5 -35.5q93 0 160.5 49t111 134t64.5 200t21 246q0 97 -5 195.5 t-12 186t-15 158t-13 111.5l-168 -14h-6q-22 0 -37 16.5t-15 36.5t13.5 35t33.5 18l439 35h4q21 0 36 -15.5t15 -35.5q0 -22 -13.5 -36.5t-33.5 -16.5l-164 -13q5 -44 13 -115.5t15 -160t12.5 -188t6.5 -197.5q-3 -105 -17 -201t-41.5 -179.5t-71.5 -151.5t-107 -116.5 t-147.5 -75t-192.5 -26.5q-119 0 -206 38.5t-148 103t-99 149.5t-59.5 178t-29 188t-7.5 181q0 94 4.5 179t11 155.5t14 125t13.5 89.5h-119q-23 0 -38 15.5t-15 37.5zM424 1551q0 17 8 28l309 451q7 11 18 16.5t23 5.5q28 0 43 -18l373 -451q12 -15 12 -32q0 -23 -17 -38.5 t-36 -15.5h-250q-23 0 -39 19l-196 227l-152 -223q-16 -23 -43 -23q-23 0 -38 17t-15 37z" />
<glyph unicode="&#xdc;" horiz-adv-x="1546" d="M76 1372q0 22 15 37.5t38 15.5h627q21 0 37 -15.5t16 -37.5t-16 -37.5t-37 -15.5h-152q-5 -32 -11.5 -89.5t-13.5 -132.5t-11.5 -165t-4.5 -187q0 -57 2.5 -130t13 -150t30 -151t53.5 -132t84.5 -93.5t121.5 -35.5q93 0 160.5 49t111 134t64.5 200t21 246q0 97 -5 195.5 t-12 186t-15 158t-13 111.5l-168 -14h-6q-22 0 -37 16.5t-15 36.5t13.5 35t33.5 18l439 35h4q21 0 36 -15.5t15 -35.5q0 -22 -13.5 -36.5t-33.5 -16.5l-164 -13q5 -44 13 -115.5t15 -160t12.5 -188t6.5 -197.5q-3 -105 -17 -201t-41.5 -179.5t-71.5 -151.5t-107 -116.5 t-147.5 -75t-192.5 -26.5q-119 0 -206 38.5t-148 103t-99 149.5t-59.5 178t-29 188t-7.5 181q0 94 4.5 179t11 155.5t14 125t13.5 89.5h-119q-23 0 -38 15.5t-15 37.5zM414 1635q0 31 12 59t33 49t49 33t60 12q31 0 59 -12t49 -33t33 -49t12 -59q0 -32 -12 -60t-33 -49 t-49 -33t-59 -12q-32 0 -60 12t-49 33t-33 49t-12 60zM852 1635q0 31 12 59t32.5 49t48 33t59.5 12t60 -12t48.5 -33t32.5 -49t12 -59q0 -32 -12 -60t-32.5 -49t-48.5 -33t-60 -12t-59.5 12t-48 33t-32.5 49t-12 60z" />
<glyph unicode="&#xdd;" horiz-adv-x="1573" d="M-78 1389q0 26 18 39.5t35 13.5h7q88 -14 173.5 -20.5t170.5 -6.5t168.5 6.5t167.5 20.5h6q23 0 38 -16t15 -37q0 -19 -12.5 -34t-32.5 -18q-38 -6 -78 -10.5t-80 -7.5q26 -48 69.5 -121.5t100 -157t123.5 -168.5t141 -157q22 29 54 80.5t69 126.5t77 174.5t77 224.5 q-48 2 -95 5t-94 11q-20 3 -32.5 18t-12.5 34q0 24 17.5 38.5t34.5 14.5h8q59 -9 116.5 -14t116.5 -5t116 5t114 14h8q21 0 37 -16.5t16 -36.5q0 -19 -13 -34t-32 -18q-99 -15 -197 -18q-45 -160 -95 -281t-95.5 -207.5t-82 -138.5t-54.5 -74v-526q86 -3 174 -12 q20 -3 33.5 -18t13.5 -35q0 -25 -18 -38.5t-35 -13.5h-7q-61 8 -123.5 11.5t-125.5 3.5q-104 0 -205 -10.5t-201 -30.5h-10q-22 0 -37.5 15.5t-15.5 35.5q0 19 12 33.5t31 19.5q42 8 84 15t86 12v434q-69 65 -133.5 143.5t-121.5 159.5t-105.5 160.5t-86.5 147.5t-64.5 119 t-39.5 77q-37 3 -74 6.5t-74 9.5q-20 3 -32.5 18t-12.5 34zM780 1411q0 14 6 25l254 475q16 26 47 26h275q23 0 38 -15.5t15 -35.5q0 -26 -19 -41l-528 -473q-15 -12 -35 -12q-23 0 -38 15.5t-15 35.5z" />
<glyph unicode="&#xde;" horiz-adv-x="1487" d="M119 33q0 20 13.5 35t33.5 18q37 3 74.5 6t74.5 6l4 226q-42 14 -81.5 29.5t-85.5 35.5q-16 6 -24.5 19t-8.5 28q0 23 16.5 38t36.5 15q5 0 9.5 -1t11.5 -3q35 -15 66.5 -27.5t62.5 -23.5l12 651q-35 -8 -61 -15.5t-43 -13.5q-20 -7 -35 -14q-14 -6 -23 -6q-23 0 -38 17 t-15 37q0 14 7 27t21 20q4 2 50 19t139 36l2 160q-87 3 -172 12q-20 2 -33.5 17.5t-13.5 33.5q0 25 17 39t36 14h4q78 -8 155.5 -12t155.5 -4q81 0 160 4t160 12h4q23 -2 38 -16t15 -37q0 -20 -13.5 -34.5t-33.5 -16.5q-31 -3 -62.5 -5.5t-62.5 -4.5l-4 -129 q95 -1 187.5 -11.5t175.5 -34t154 -60.5t123 -91t81 -126.5t29 -166.5q0 -42 -6 -88q-12 -73 -45.5 -130t-83 -100.5t-112 -74t-131 -49.5t-141 -28t-141.5 -9q-29 0 -57 1t-57 3l-5 -162q39 -3 78.5 -6t79.5 -6q23 -5 35 -20.5t12 -36.5q-2 -22 -17.5 -34.5t-35.5 -12.5h-4 q-81 8 -160 12t-160 4q-78 0 -155.5 -4t-155.5 -12h-4q-22 0 -37.5 15.5t-15.5 35.5zM666 365q26 -2 53 -3.5t53 -1.5q100 0 195 17.5t170.5 54t126.5 94t63 138.5q6 36 6 69q0 76 -26 134t-71 101t-107 72t-133.5 47t-150 25.5t-157.5 7.5h-2z" />
<glyph unicode="&#xdf;" horiz-adv-x="1763" d="M43 948q0 22 16 37.5t37 15.5h2q42 -3 84 -3.5t84 -2.5v37q0 110 31.5 202t90.5 158t144 103t193 37q85 0 157 -30.5t124.5 -81.5t82 -117t29.5 -138q0 -52 -9 -93.5t-23.5 -74t-33 -58t-38.5 -46.5q-29 -41 -29 -84q0 -35 18 -61t47 -45t65.5 -31.5t73.5 -21t70.5 -14.5 t57.5 -11q45 -10 93 -22.5t94 -30.5t87.5 -42.5t72.5 -58t49 -76.5t18 -98q0 -80 -39.5 -143.5t-103 -107.5t-143 -67.5t-159.5 -23.5q-55 0 -118.5 10t-124.5 29t-113.5 47t-85.5 65q0 -17 1 -33t3 -30v-4q-2 -23 -17 -38t-36 -15q-20 0 -36 13.5t-18 35.5q-2 18 -2 39v41 q0 37 1.5 73t4 64.5t4 46.5t1.5 20q2 22 16.5 36t36.5 14q21 0 36 -17t15 -37v-4q0 -2 -1 -18.5t-3 -44.5q8 -23 33.5 -46t62 -44t80.5 -39t90 -31.5t90 -21t80 -7.5t78 7t78 20.5t60 33t24 44.5q0 23 -19 41t-48 32t-65 24t-70 16.5t-62.5 10t-42.5 5.5q-86 9 -170.5 33.5 t-151.5 67.5t-108 106.5t-41 150.5q0 44 11 81.5t29.5 70.5t44.5 62.5t56 56.5q24 21 46.5 42t39.5 48t27 63.5t10 87.5q0 40 -13 81t-37 74t-58.5 54t-76.5 21q-47 0 -80.5 -20t-56.5 -53t-37 -74.5t-22 -85.5t-10.5 -85.5t-2.5 -73.5v-917q0 -23 -16.5 -37t-36.5 -14h-39 q-27 0 -69.5 -1t-95 -5t-112 -10.5t-118.5 -18.5q-3 0 -5.5 -1t-4.5 -1q-23 0 -38 16.5t-15 36.5q0 19 11.5 33.5t31.5 17.5q79 17 155 23v768q-84 0 -174 6q-20 0 -34.5 15t-14.5 36z" />
<glyph unicode="&#xe0;" horiz-adv-x="1253" d="M90 145q0 75 32.5 132t85.5 99.5t120.5 71t137.5 46t136 25t117 7.5h24q0 61 -21.5 119t-60 103t-91.5 72.5t-117 27.5q-47 0 -92 -26.5t-80 -67.5t-56.5 -92t-21.5 -99q0 -20 -16.5 -33.5t-36.5 -13.5q-22 0 -38 16.5t-16 36.5q0 48 17 100.5t49.5 103t79 95.5t106 79.5 t130.5 54.5t151 20q112 0 191.5 -35t133 -95t84.5 -139t47 -167t20.5 -179t4.5 -174q0 -42 -1 -72t-1 -50q15 0 30.5 1t30.5 1q17 0 35.5 -1t36.5 -1q22 -2 35.5 -17t13.5 -37q0 -21 -14.5 -37t-36.5 -16h-4q-17 2 -35 2h-35q-94 0 -180.5 -12t-173.5 -37q-3 0 -6 -1t-8 -1 q-23 0 -37.5 17.5t-14.5 35.5v8q0 2 5 40.5t10 107.5q-43 -48 -91.5 -89.5t-102 -72t-110.5 -48t-118 -17.5q-48 0 -93 14.5t-79.5 41.5t-55 65.5t-20.5 86.5zM195 145q0 -28 13.5 -48t34 -32.5t45.5 -18t48 -5.5q71 0 134.5 27.5t117.5 72t97 99.5t75 110q-2 17 -3 35 t-1 37h-37q-40 0 -94.5 -6t-112.5 -19t-115 -34.5t-102 -52t-72.5 -71.5t-27.5 -94zM6 1600q0 20 15 35.5t38 15.5h275q31 0 47 -26l254 -475q6 -11 6 -25q0 -20 -15 -35.5t-38 -15.5q-20 0 -35 12l-529 473q-18 15 -18 41z" />
<glyph unicode="&#xe1;" horiz-adv-x="1253" d="M90 145q0 75 32.5 132t85.5 99.5t120.5 71t137.5 46t136 25t117 7.5h24q0 61 -21.5 119t-60 103t-91.5 72.5t-117 27.5q-47 0 -92 -26.5t-80 -67.5t-56.5 -92t-21.5 -99q0 -20 -16.5 -33.5t-36.5 -13.5q-22 0 -38 16.5t-16 36.5q0 48 17 100.5t49.5 103t79 95.5t106 79.5 t130.5 54.5t151 20q112 0 191.5 -35t133 -95t84.5 -139t47 -167t20.5 -179t4.5 -174q0 -42 -1 -72t-1 -50q15 0 30.5 1t30.5 1q17 0 35.5 -1t36.5 -1q22 -2 35.5 -17t13.5 -37q0 -21 -14.5 -37t-36.5 -16h-4q-17 2 -35 2h-35q-94 0 -180.5 -12t-173.5 -37q-3 0 -6 -1t-8 -1 q-23 0 -37.5 17.5t-14.5 35.5v8q0 2 5 40.5t10 107.5q-43 -48 -91.5 -89.5t-102 -72t-110.5 -48t-118 -17.5q-48 0 -93 14.5t-79.5 41.5t-55 65.5t-20.5 86.5zM195 145q0 -28 13.5 -48t34 -32.5t45.5 -18t48 -5.5q71 0 134.5 27.5t117.5 72t97 99.5t75 110q-2 17 -3 35 t-1 37h-37q-40 0 -94.5 -6t-112.5 -19t-115 -34.5t-102 -52t-72.5 -71.5t-27.5 -94zM373 1099q0 14 6 25l254 475q16 26 47 26h275q23 0 38 -15.5t15 -35.5q0 -26 -19 -41l-528 -473q-15 -12 -35 -12q-23 0 -38 15.5t-15 35.5z" />
<glyph unicode="&#xe2;" horiz-adv-x="1253" d="M90 145q0 75 32.5 132t85.5 99.5t120.5 71t137.5 46t136 25t117 7.5h24q0 61 -21.5 119t-60 103t-91.5 72.5t-117 27.5q-47 0 -92 -26.5t-80 -67.5t-56.5 -92t-21.5 -99q0 -20 -16.5 -33.5t-36.5 -13.5q-22 0 -38 16.5t-16 36.5q0 48 17 100.5t49.5 103t79 95.5t106 79.5 t130.5 54.5t151 20q112 0 191.5 -35t133 -95t84.5 -139t47 -167t20.5 -179t4.5 -174q0 -42 -1 -72t-1 -50q15 0 30.5 1t30.5 1q17 0 35.5 -1t36.5 -1q22 -2 35.5 -17t13.5 -37q0 -21 -14.5 -37t-36.5 -16h-4q-17 2 -35 2h-35q-94 0 -180.5 -12t-173.5 -37q-3 0 -6 -1t-8 -1 q-23 0 -37.5 17.5t-14.5 35.5v8q0 2 5 40.5t10 107.5q-43 -48 -91.5 -89.5t-102 -72t-110.5 -48t-118 -17.5q-48 0 -93 14.5t-79.5 41.5t-55 65.5t-20.5 86.5zM195 145q0 -28 13.5 -48t34 -32.5t45.5 -18t48 -5.5q71 0 134.5 27.5t117.5 72t97 99.5t75 110q-2 17 -3 35 t-1 37h-37q-40 0 -94.5 -6t-112.5 -19t-115 -34.5t-102 -52t-72.5 -71.5t-27.5 -94zM213 1136q0 17 8 28l309 451q7 11 18 16.5t23 5.5q28 0 43 -18l373 -451q12 -15 12 -32q0 -23 -17 -38.5t-36 -15.5h-250q-23 0 -39 19l-196 227l-152 -223q-16 -23 -43 -23q-23 0 -38 17 t-15 37z" />
<glyph unicode="&#xe3;" horiz-adv-x="1253" d="M90 145q0 75 32.5 132t85.5 99.5t120.5 71t137.5 46t136 25t117 7.5h24q0 61 -21.5 119t-60 103t-91.5 72.5t-117 27.5q-47 0 -92 -26.5t-80 -67.5t-56.5 -92t-21.5 -99q0 -20 -16.5 -33.5t-36.5 -13.5q-22 0 -38 16.5t-16 36.5q0 48 17 100.5t49.5 103t79 95.5t106 79.5 t130.5 54.5t151 20q112 0 191.5 -35t133 -95t84.5 -139t47 -167t20.5 -179t4.5 -174q0 -42 -1 -72t-1 -50q15 0 30.5 1t30.5 1q17 0 35.5 -1t36.5 -1q22 -2 35.5 -17t13.5 -37q0 -21 -14.5 -37t-36.5 -16h-4q-17 2 -35 2h-35q-94 0 -180.5 -12t-173.5 -37q-3 0 -6 -1t-8 -1 q-23 0 -37.5 17.5t-14.5 35.5v8q0 2 5 40.5t10 107.5q-43 -48 -91.5 -89.5t-102 -72t-110.5 -48t-118 -17.5q-48 0 -93 14.5t-79.5 41.5t-55 65.5t-20.5 86.5zM195 145q0 -28 13.5 -48t34 -32.5t45.5 -18t48 -5.5q71 0 134.5 27.5t117.5 72t97 99.5t75 110q-2 17 -3 35 t-1 37h-37q-40 0 -94.5 -6t-112.5 -19t-115 -34.5t-102 -52t-72.5 -71.5t-27.5 -94zM158 1367q0 61 17.5 112.5t49 88.5t75 57.5t96.5 20.5q71 0 119 -21.5t80.5 -54.5t52 -71t34.5 -71q19 -40 31.5 -58.5t26.5 -18.5q21 0 35 9.5t22.5 24.5t12 32.5t3.5 33.5 q0 26 -7.5 51.5t-22.5 46.5q-7 6 -10 14.5t-3 16.5q0 23 17 38t37 15q12 0 22.5 -5.5t20.5 -14.5q37 -59 52 -124.5t15 -127.5q0 -58 -18.5 -110.5t-51.5 -92.5t-78 -64t-98 -24q-52 0 -92 21.5t-71.5 55t-57 74t-47.5 78.5q-8 15 -16 32t-18.5 32t-24 25t-31.5 10 q-27 0 -40.5 -14.5t-17.5 -37.5t-1 -50.5t10 -54t15.5 -48t15.5 -31.5q5 -8 7.5 -14t2.5 -14q0 -23 -16.5 -38.5t-36.5 -15.5q-25 0 -43 25q-21 28 -34.5 63t-21 70.5t-10 69t-2.5 59.5z" />
<glyph unicode="&#xe4;" horiz-adv-x="1253" d="M90 145q0 75 32.5 132t85.5 99.5t120.5 71t137.5 46t136 25t117 7.5h24q0 61 -21.5 119t-60 103t-91.5 72.5t-117 27.5q-47 0 -92 -26.5t-80 -67.5t-56.5 -92t-21.5 -99q0 -20 -16.5 -33.5t-36.5 -13.5q-22 0 -38 16.5t-16 36.5q0 48 17 100.5t49.5 103t79 95.5t106 79.5 t130.5 54.5t151 20q112 0 191.5 -35t133 -95t84.5 -139t47 -167t20.5 -179t4.5 -174q0 -42 -1 -72t-1 -50q15 0 30.5 1t30.5 1q17 0 35.5 -1t36.5 -1q22 -2 35.5 -17t13.5 -37q0 -21 -14.5 -37t-36.5 -16h-4q-17 2 -35 2h-35q-94 0 -180.5 -12t-173.5 -37q-3 0 -6 -1t-8 -1 q-23 0 -37.5 17.5t-14.5 35.5v8q0 2 5 40.5t10 107.5q-43 -48 -91.5 -89.5t-102 -72t-110.5 -48t-118 -17.5q-48 0 -93 14.5t-79.5 41.5t-55 65.5t-20.5 86.5zM195 145q0 -28 13.5 -48t34 -32.5t45.5 -18t48 -5.5q71 0 134.5 27.5t117.5 72t97 99.5t75 110q-2 17 -3 35 t-1 37h-37q-40 0 -94.5 -6t-112.5 -19t-115 -34.5t-102 -52t-72.5 -71.5t-27.5 -94zM184 1234q0 31 12 59t33 49t49 33t60 12q31 0 59 -12t49 -33t33 -49t12 -59q0 -32 -12 -60t-33 -49t-49 -33t-59 -12q-32 0 -60 12t-49 33t-33 49t-12 60zM622 1234q0 31 12 59t32.5 49 t48 33t59.5 12t60 -12t48.5 -33t32.5 -49t12 -59q0 -32 -12 -60t-32.5 -49t-48.5 -33t-60 -12t-59.5 12t-48 33t-32.5 49t-12 60z" />
<glyph unicode="&#xe5;" horiz-adv-x="1253" d="M90 145q0 75 32.5 132t85.5 99.5t120.5 71t137.5 46t136 25t117 7.5h24q0 61 -21.5 119t-60 103t-91.5 72.5t-117 27.5q-47 0 -92 -26.5t-80 -67.5t-56.5 -92t-21.5 -99q0 -20 -16.5 -33.5t-36.5 -13.5q-22 0 -38 16.5t-16 36.5q0 48 17 100.5t49.5 103t79 95.5t106 79.5 t130.5 54.5t151 20q112 0 191.5 -35t133 -95t84.5 -139t47 -167t20.5 -179t4.5 -174q0 -42 -1 -72t-1 -50q15 0 30.5 1t30.5 1q17 0 35.5 -1t36.5 -1q22 -2 35.5 -17t13.5 -37q0 -21 -14.5 -37t-36.5 -16h-4q-17 2 -35 2h-35q-94 0 -180.5 -12t-173.5 -37q-3 0 -6 -1t-8 -1 q-23 0 -37.5 17.5t-14.5 35.5v8q0 2 5 40.5t10 107.5q-43 -48 -91.5 -89.5t-102 -72t-110.5 -48t-118 -17.5q-48 0 -93 14.5t-79.5 41.5t-55 65.5t-20.5 86.5zM195 145q0 -28 13.5 -48t34 -32.5t45.5 -18t48 -5.5q71 0 134.5 27.5t117.5 72t97 99.5t75 110q-2 17 -3 35 t-1 37h-37q-40 0 -94.5 -6t-112.5 -19t-115 -34.5t-102 -52t-72.5 -71.5t-27.5 -94zM238 1396q0 67 24 125t66 100t98 66t121 24q69 0 126 -23t98.5 -64.5t64.5 -99.5t23 -128q0 -71 -22.5 -129t-63.5 -99.5t-98.5 -64.5t-127.5 -23q-68 0 -125 25.5t-98 69t-63.5 100.5 t-22.5 121zM342 1396q0 -26 5.5 -53.5t17.5 -51t31.5 -38.5t48.5 -15q31 0 53 16.5t36 41.5t20 53.5t6 52.5q0 26 -8.5 53.5t-24 50t-37.5 37t-49 14.5q-29 0 -48.5 -17t-30.5 -42t-15.5 -53t-4.5 -49z" />
<glyph unicode="&#xe6;" horiz-adv-x="1786" d="M90 145q0 75 32.5 132t85.5 99.5t120.5 71t137.5 46t136 25t117 7.5h2q-1 63 -20 121t-54 103t-84.5 71.5t-109.5 26.5q-47 0 -92 -26.5t-80 -67.5t-56.5 -92t-21.5 -99q0 -20 -16.5 -33.5t-36.5 -13.5q-22 0 -38 16.5t-16 36.5q0 48 17 100.5t49.5 103t79 95.5t106 79.5 t130.5 54.5t151 20q86 0 157 -30.5t111 -90.5q69 62 160.5 95.5t204.5 33.5q118 -5 203.5 -40t140.5 -97t81.5 -149.5t26.5 -196.5q0 -25 -1 -39.5t-1 -18.5q-3 -26 -28 -45t-63 -33.5t-83.5 -24t-89.5 -15.5t-81 -8.5t-58 -2.5q-73 0 -134.5 10t-101.5 21q5 -62 22.5 -122 t49.5 -107.5t80 -77t116 -29.5q25 0 57 6.5t63 19t57 30t41 39.5q17 20 40 20q22 0 38 -16.5t16 -36.5q0 -21 -13 -33q-24 -37 -67 -63t-93 -42.5t-101 -24t-93 -7.5q-75 0 -149.5 21t-141.5 57t-121.5 84t-89.5 102q-35 -58 -84.5 -108t-108.5 -87t-124 -58t-129 -21 q-48 0 -93 14.5t-79.5 41.5t-55 65.5t-20.5 86.5zM195 145q0 -28 13.5 -48t34 -32.5t45.5 -18t48 -5.5q71 0 132 23t111.5 61t91 88.5t72.5 105.5q-3 17 -7 35.5t-8 33.5q-4 18 -9 34q-40 0 -94.5 -6t-112.5 -19t-115 -34.5t-102 -52t-72.5 -71.5t-27.5 -94zM1071 502 q16 -5 40.5 -11t55.5 -11.5t67.5 -9t76.5 -3.5q85 0 159.5 16t139.5 45v17q0 75 -16 139t-50.5 113.5t-88.5 81.5t-130 43q-53 -6 -92 -29t-66.5 -56.5t-45.5 -75.5t-28.5 -86.5t-15 -89t-6.5 -83.5z" />
<glyph unicode="&#xe7;" horiz-adv-x="1180" d="M84 475q0 126 34.5 234t101 187t164 124t224.5 45q114 0 212 -45.5t161 -136.5l33 204q3 19 17.5 31t33.5 12q25 0 39 -17t14 -34v-8l-63 -407q-3 -20 -18.5 -33t-35.5 -13t-34.5 14t-16.5 36q0 43 -18 90t-49 86t-71 64.5t-85 25.5q-56 0 -99 -23.5t-75 -62.5t-53 -89 t-34 -102.5t-18.5 -103.5t-5.5 -92q0 -70 15.5 -140t47.5 -125.5t82.5 -90.5t119.5 -35q51 0 95.5 23t80 59.5t60.5 80.5t36 86q5 19 19 31t32 12q22 0 37.5 -16.5t15.5 -36.5q0 -6 -2 -10q-7 -33 -24 -72t-44.5 -78t-66.5 -75.5t-89 -64.5t-111 -45t-134 -17h-22l-29 -68 h39q59 0 110.5 -17.5t89.5 -49.5t59.5 -78t21.5 -103q0 -61 -22 -107t-59 -76.5t-87 -46t-105 -15.5q-71 0 -141 25t-127 75q-9 8 -13.5 18t-4.5 21q0 22 17 37.5t36 15.5q5 0 9 -1t9 -3q14 -5 40.5 -11.5t55.5 -6.5q54 0 76.5 23t22.5 73q0 20 -6 39.5t-17 35.5t-27 25.5 t-36 9.5q-10 0 -15 -1t-10 -1q-23 0 -37 17t-14 37q0 5 1 10t3 10l53 127q-90 18 -163.5 63t-126 112t-81 152.5t-28.5 186.5z" />
<glyph unicode="&#xe8;" horiz-adv-x="1147" d="M82 496q0 127 38 226.5t108 168t170 104t225 35.5q118 -5 203.5 -40t140.5 -97t81.5 -149.5t26.5 -196.5q0 -25 -1 -39.5t-1 -18.5q-3 -26 -28 -45t-63 -33.5t-83.5 -24t-89.5 -15.5t-81 -8.5t-58 -2.5q-73 0 -134.5 10t-101.5 21q6 -62 23 -122t49 -107.5t80 -77 t116 -29.5q25 0 57 6.5t63 19t57 30t41 39.5q17 20 41 20q21 0 37 -16.5t16 -36.5q0 -21 -13 -33q-24 -37 -67 -63t-93 -42.5t-101 -24t-93 -7.5q-120 0 -223 42.5t-179 116.5t-119.5 174t-43.5 216zM432 502q16 -5 40.5 -11t55.5 -11.5t67.5 -9t76.5 -3.5q85 0 159.5 16 t139.5 45v17q0 75 -16 139t-50.5 113.5t-88.5 81.5t-130 43q-53 -6 -92 -29t-66.5 -56.5t-45.5 -75.5t-28.5 -86.5t-15.5 -89t-6 -83.5zM78 1613q0 20 15 35.5t38 15.5h275q31 0 47 -26l254 -475q6 -11 6 -25q0 -20 -15 -35.5t-38 -15.5q-20 0 -35 12l-529 473 q-18 15 -18 41z" />
<glyph unicode="&#xe9;" horiz-adv-x="1147" d="M82 496q0 127 38 226.5t108 168t170 104t225 35.5q118 -5 203.5 -40t140.5 -97t81.5 -149.5t26.5 -196.5q0 -25 -1 -39.5t-1 -18.5q-3 -26 -28 -45t-63 -33.5t-83.5 -24t-89.5 -15.5t-81 -8.5t-58 -2.5q-73 0 -134.5 10t-101.5 21q6 -62 23 -122t49 -107.5t80 -77 t116 -29.5q25 0 57 6.5t63 19t57 30t41 39.5q17 20 41 20q21 0 37 -16.5t16 -36.5q0 -21 -13 -33q-24 -37 -67 -63t-93 -42.5t-101 -24t-93 -7.5q-120 0 -223 42.5t-179 116.5t-119.5 174t-43.5 216zM432 502q16 -5 40.5 -11t55.5 -11.5t67.5 -9t76.5 -3.5q85 0 159.5 16 t139.5 45v17q0 75 -16 139t-50.5 113.5t-88.5 81.5t-130 43q-53 -6 -92 -29t-66.5 -56.5t-45.5 -75.5t-28.5 -86.5t-15.5 -89t-6 -83.5zM500 1138q0 14 6 25l254 475q16 26 47 26h275q23 0 38 -15.5t15 -35.5q0 -26 -19 -41l-528 -473q-15 -12 -35 -12q-23 0 -38 15.5 t-15 35.5z" />
<glyph unicode="&#xea;" horiz-adv-x="1147" d="M82 496q0 127 38 226.5t108 168t170 104t225 35.5q118 -5 203.5 -40t140.5 -97t81.5 -149.5t26.5 -196.5q0 -25 -1 -39.5t-1 -18.5q-3 -26 -28 -45t-63 -33.5t-83.5 -24t-89.5 -15.5t-81 -8.5t-58 -2.5q-73 0 -134.5 10t-101.5 21q6 -62 23 -122t49 -107.5t80 -77 t116 -29.5q25 0 57 6.5t63 19t57 30t41 39.5q17 20 41 20q21 0 37 -16.5t16 -36.5q0 -21 -13 -33q-24 -37 -67 -63t-93 -42.5t-101 -24t-93 -7.5q-120 0 -223 42.5t-179 116.5t-119.5 174t-43.5 216zM432 502q16 -5 40.5 -11t55.5 -11.5t67.5 -9t76.5 -3.5q85 0 159.5 16 t139.5 45v17q0 75 -16 139t-50.5 113.5t-88.5 81.5t-130 43q-53 -6 -92 -29t-66.5 -56.5t-45.5 -75.5t-28.5 -86.5t-15.5 -89t-6 -83.5zM207 1140q0 17 8 28l309 451q7 11 18 16.5t23 5.5q28 0 43 -18l373 -451q12 -15 12 -32q0 -23 -17 -38.5t-36 -15.5h-250q-23 0 -39 19 l-196 227l-152 -223q-16 -23 -43 -23q-23 0 -38 17t-15 37z" />
<glyph unicode="&#xeb;" horiz-adv-x="1147" d="M82 496q0 127 38 226.5t108 168t170 104t225 35.5q118 -5 203.5 -40t140.5 -97t81.5 -149.5t26.5 -196.5q0 -25 -1 -39.5t-1 -18.5q-3 -26 -28 -45t-63 -33.5t-83.5 -24t-89.5 -15.5t-81 -8.5t-58 -2.5q-73 0 -134.5 10t-101.5 21q6 -62 23 -122t49 -107.5t80 -77 t116 -29.5q25 0 57 6.5t63 19t57 30t41 39.5q17 20 41 20q21 0 37 -16.5t16 -36.5q0 -21 -13 -33q-24 -37 -67 -63t-93 -42.5t-101 -24t-93 -7.5q-120 0 -223 42.5t-179 116.5t-119.5 174t-43.5 216zM432 502q16 -5 40.5 -11t55.5 -11.5t67.5 -9t76.5 -3.5q85 0 159.5 16 t139.5 45v17q0 75 -16 139t-50.5 113.5t-88.5 81.5t-130 43q-53 -6 -92 -29t-66.5 -56.5t-45.5 -75.5t-28.5 -86.5t-15.5 -89t-6 -83.5zM207 1230q0 31 12 59t33 49t49 33t60 12q31 0 59 -12t49 -33t33 -49t12 -59q0 -32 -12 -60t-33 -49t-49 -33t-59 -12q-32 0 -60 12 t-49 33t-33 49t-12 60zM645 1230q0 31 12 59t32.5 49t48 33t59.5 12t60 -12t48.5 -33t32.5 -49t12 -59q0 -32 -12 -60t-32.5 -49t-48.5 -33t-60 -12t-59.5 12t-48 33t-32.5 49t-12 60z" />
<glyph unicode="&#xec;" horiz-adv-x="793" d="M39 934q0 25 18 38t35 13h6q1 0 23 -2.5t57.5 -5.5t80.5 -5.5t93 -2.5t94 3.5t84 12.5h11q23 0 38 -15.5t15 -35.5l-2 -832q35 -5 70.5 -9.5t72.5 -12.5q19 -3 31 -18t12 -33q0 -23 -17 -38.5t-36 -15.5q-2 0 -4.5 1t-5.5 1q-81 16 -154 23.5t-145 7.5q-73 0 -145 -7.5 t-152 -23.5q-3 0 -5 -1t-5 -1q-23 0 -37.5 17t-14.5 37q0 18 11.5 33t29.5 18q35 8 70.5 12.5t69.5 9.5v766q-63 3 -106 8t-48 5q-20 3 -32.5 18t-12.5 35zM-185 1553q0 20 15 35.5t38 15.5h275q31 0 47 -26l254 -475q6 -11 6 -25q0 -20 -15 -35.5t-38 -15.5q-20 0 -35 12 l-529 473q-18 15 -18 41z" />
<glyph unicode="&#xed;" horiz-adv-x="793" d="M39 934q0 25 18 38t35 13h6q1 0 23 -2.5t57.5 -5.5t80.5 -5.5t93 -2.5t94 3.5t84 12.5h11q23 0 38 -15.5t15 -35.5l-2 -832q35 -5 70.5 -9.5t72.5 -12.5q19 -3 31 -18t12 -33q0 -23 -17 -38.5t-36 -15.5q-2 0 -4.5 1t-5.5 1q-81 16 -154 23.5t-145 7.5q-73 0 -145 -7.5 t-152 -23.5q-3 0 -5 -1t-5 -1q-23 0 -37.5 17t-14.5 37q0 18 11.5 33t29.5 18q35 8 70.5 12.5t69.5 9.5v766q-63 3 -106 8t-48 5q-20 3 -32.5 18t-12.5 35zM373 1080q0 14 6 25l254 475q16 26 47 26h275q23 0 38 -15.5t15 -35.5q0 -26 -19 -41l-528 -473q-15 -12 -35 -12 q-23 0 -38 15.5t-15 35.5z" />
<glyph unicode="&#xee;" horiz-adv-x="811" d="M39 934q0 25 18 38t35 13h6q1 0 23 -2.5t57.5 -5.5t80.5 -5.5t93 -2.5t94 3.5t84 12.5h11q23 0 38 -15.5t15 -35.5l-2 -832q35 -5 70.5 -9.5t72.5 -12.5q19 -3 31 -18t12 -33q0 -23 -17 -38.5t-36 -15.5q-2 0 -4.5 1t-5.5 1q-81 16 -154 23.5t-145 7.5q-73 0 -145 -7.5 t-152 -23.5q-3 0 -5 -1t-5 -1q-23 0 -37.5 17t-14.5 37q0 18 11.5 33t29.5 18q35 8 70.5 12.5t69.5 9.5v766q-63 3 -106 8t-48 5q-20 3 -32.5 18t-12.5 35zM16 1111q0 17 8 28l309 451q7 11 18 16.5t23 5.5q28 0 43 -18l373 -451q12 -15 12 -32q0 -23 -17 -38.5t-36 -15.5 h-250q-23 0 -39 19l-196 227l-152 -223q-16 -23 -43 -23q-23 0 -38 17t-15 37z" />
<glyph unicode="&#xef;" horiz-adv-x="793" d="M39 934q0 25 18 38t35 13h6q1 0 23 -2.5t57.5 -5.5t80.5 -5.5t93 -2.5t94 3.5t84 12.5h11q23 0 38 -15.5t15 -35.5l-2 -832q35 -5 70.5 -9.5t72.5 -12.5q19 -3 31 -18t12 -33q0 -23 -17 -38.5t-36 -15.5q-2 0 -4.5 1t-5.5 1q-81 16 -154 23.5t-145 7.5q-73 0 -145 -7.5 t-152 -23.5q-3 0 -5 -1t-5 -1q-23 0 -37.5 17t-14.5 37q0 18 11.5 33t29.5 18q35 8 70.5 12.5t69.5 9.5v766q-63 3 -106 8t-48 5q-20 3 -32.5 18t-12.5 35zM37 1222q0 31 12 59t33 49t49 33t60 12q31 0 59 -12t49 -33t33 -49t12 -59q0 -32 -12 -60t-33 -49t-49 -33t-59 -12 q-32 0 -60 12t-49 33t-33 49t-12 60zM475 1222q0 31 12 59t32.5 49t48 33t59.5 12t60 -12t48.5 -33t32.5 -49t12 -59q0 -32 -12 -60t-32.5 -49t-48.5 -33t-60 -12t-59.5 12t-48 33t-32.5 49t-12 60z" />
<glyph unicode="&#xf0;" horiz-adv-x="1239" d="M84 485q0 111 42.5 204t115.5 159.5t170 103.5t206 37q60 0 119 -12q-15 48 -33 89.5t-36 78.5q-56 2 -103 6t-82 7.5t-55.5 6.5t-21.5 4q-20 4 -33 18.5t-13 33.5q0 21 17.5 37t36.5 16h4q2 0 4 -2q22 -2 50 -6q24 -3 57 -6.5t73 -6.5q-26 38 -50 65.5t-42.5 45.5 t-29.5 27t-11 10q-23 16 -23 43q0 25 16.5 38t35.5 13h6q3 0 32 -5.5t75 -23t104 -49.5t119 -84q20 -18 41 -40t43 -48q54 6 98.5 12t89.5 15q3 2 6 2h4q22 0 37.5 -16.5t15.5 -36.5q0 -19 -12 -33t-31 -19q-32 -6 -67 -11.5t-72 -8.5q84 -140 125 -289.5t41 -304.5 q0 -118 -38.5 -225.5t-109 -189t-169 -129.5t-218.5 -48q-122 0 -220.5 35.5t-168.5 102.5t-107.5 164t-37.5 220zM188 485q0 -87 25 -160.5t67.5 -126.5t99.5 -82.5t122 -29.5q80 0 137.5 41t95 107t55 150t17.5 171q0 49 -2.5 89t-7.5 75.5t-11.5 69t-15.5 71.5 q-35 11 -73 17t-79 6q-80 0 -157 -19.5t-137.5 -66t-98 -122.5t-37.5 -190z" />
<glyph unicode="&#xf1;" horiz-adv-x="1354" d="M27 924q0 24 17 38.5t36 14.5q4 0 6 -2q1 0 23 -2t57.5 -5t80.5 -5t93 -2t94 2.5t84 11.5q2 0 4.5 1t5.5 1q23 0 38.5 -16.5t15.5 -36.5v-103q58 85 138.5 128.5t182.5 43.5q60 0 104.5 -20.5t77 -55.5t53 -80.5t33 -95.5t17 -101.5t4.5 -96.5q0 -50 -5 -109.5 t-12.5 -118.5t-17 -112t-18.5 -90q38 -2 78.5 -4t82.5 -7q23 -2 35.5 -19.5t12.5 -37.5q-2 -20 -18 -33.5t-36 -13.5h-4q-48 5 -92.5 7.5t-87.5 2.5q-63 0 -120.5 -5.5t-112.5 -14.5q-2 0 -4.5 -1t-4.5 -1q-21 0 -37 16.5t-16 36.5q0 18 12.5 33t30.5 18q42 8 84.5 12.5 t87.5 8.5q9 31 19 84t18.5 114t14 123t5.5 111q0 51 -5.5 111t-25 112.5t-56 87.5t-97.5 35q-69 0 -128 -34t-101.5 -86.5t-67 -115.5t-24.5 -121v-2l-2 -440q18 -2 35 -3.5t34 -4.5q20 -2 33.5 -16.5t13.5 -34.5q0 -22 -16.5 -38t-36.5 -16q-4 0 -6 3q-60 6 -122.5 12 t-131.5 6q-62 0 -130.5 -6.5t-146.5 -20.5q-4 -2 -10 -2q-23 0 -37 17t-14 37q0 18 11 33t30 18q37 8 71 12.5t68 7.5v764q-63 3 -105.5 7.5t-47.5 6.5q-20 2 -32.5 17t-12.5 35zM299 1363q0 61 17.5 112.5t49 88.5t75 57.5t96.5 20.5q71 0 119 -21.5t80.5 -54.5t52 -71 t34.5 -71q19 -40 31.5 -58.5t26.5 -18.5q21 0 35 9.5t22.5 24.5t12 32.5t3.5 33.5q0 26 -7.5 51.5t-22.5 46.5q-7 6 -10 14.5t-3 16.5q0 23 17 38t37 15q12 0 22.5 -5.5t20.5 -14.5q37 -59 52 -124.5t15 -127.5q0 -58 -18.5 -110.5t-51.5 -92.5t-78 -64t-98 -24 q-52 0 -92 21.5t-71.5 55t-57 74t-47.5 78.5q-8 15 -16 32t-18.5 32t-24 25t-31.5 10q-27 0 -40.5 -14.5t-17.5 -37.5t-1 -50.5t10 -54t15.5 -48t15.5 -31.5q5 -8 7.5 -14t2.5 -14q0 -23 -16.5 -38.5t-36.5 -15.5q-25 0 -43 25q-21 28 -34.5 63t-21 70.5t-10 69t-2.5 59.5z " />
<glyph unicode="&#xf2;" d="M82 494q0 118 41 218t113 172.5t169.5 113t210.5 40.5q118 0 216.5 -43.5t169.5 -118t110 -173.5t39 -209q0 -120 -43 -220t-116 -171.5t-170.5 -111.5t-205.5 -40q-122 0 -220.5 38.5t-168.5 109.5t-107.5 171t-37.5 224zM434 504q0 -44 4 -93.5t14 -98t27 -93.5t44 -79 t65.5 -54t91.5 -20q87 0 155.5 36.5t115.5 96.5t71.5 137t24.5 158q0 49 -11 99t-32 97t-51 88t-67.5 71.5t-82 48t-94.5 17.5q-56 0 -97.5 -18.5t-72.5 -50t-51 -72.5t-32 -87t-17 -93t-5 -90zM109 1627q0 20 15 35.5t38 15.5h275q31 0 47 -26l254 -475q6 -11 6 -25 q0 -20 -15 -35.5t-38 -15.5q-20 0 -35 12l-529 473q-18 15 -18 41z" />
<glyph unicode="&#xf3;" d="M82 494q0 118 41 218t113 172.5t169.5 113t210.5 40.5q118 0 216.5 -43.5t169.5 -118t110 -173.5t39 -209q0 -120 -43 -220t-116 -171.5t-170.5 -111.5t-205.5 -40q-122 0 -220.5 38.5t-168.5 109.5t-107.5 171t-37.5 224zM434 504q0 -44 4 -93.5t14 -98t27 -93.5t44 -79 t65.5 -54t91.5 -20q87 0 155.5 36.5t115.5 96.5t71.5 137t24.5 158q0 49 -11 99t-32 97t-51 88t-67.5 71.5t-82 48t-94.5 17.5q-56 0 -97.5 -18.5t-72.5 -50t-51 -72.5t-32 -87t-17 -93t-5 -90zM506 1138q0 14 6 25l254 475q16 26 47 26h275q23 0 38 -15.5t15 -35.5 q0 -26 -19 -41l-528 -473q-15 -12 -35 -12q-23 0 -38 15.5t-15 35.5z" />
<glyph unicode="&#xf4;" d="M82 494q0 118 41 218t113 172.5t169.5 113t210.5 40.5q118 0 216.5 -43.5t169.5 -118t110 -173.5t39 -209q0 -120 -43 -220t-116 -171.5t-170.5 -111.5t-205.5 -40q-122 0 -220.5 38.5t-168.5 109.5t-107.5 171t-37.5 224zM434 504q0 -44 4 -93.5t14 -98t27 -93.5t44 -79 t65.5 -54t91.5 -20q87 0 155.5 36.5t115.5 96.5t71.5 137t24.5 158q0 49 -11 99t-32 97t-51 88t-67.5 71.5t-82 48t-94.5 17.5q-56 0 -97.5 -18.5t-72.5 -50t-51 -72.5t-32 -87t-17 -93t-5 -90zM223 1148q0 17 8 28l309 451q7 11 18 16.5t23 5.5q28 0 43 -18l373 -451 q12 -15 12 -32q0 -23 -17 -38.5t-36 -15.5h-250q-23 0 -39 19l-196 227l-152 -223q-16 -23 -43 -23q-23 0 -38 17t-15 37z" />
<glyph unicode="&#xf5;" d="M82 494q0 118 41 218t113 172.5t169.5 113t210.5 40.5q118 0 216.5 -43.5t169.5 -118t110 -173.5t39 -209q0 -120 -43 -220t-116 -171.5t-170.5 -111.5t-205.5 -40q-122 0 -220.5 38.5t-168.5 109.5t-107.5 171t-37.5 224zM434 504q0 -44 4 -93.5t14 -98t27 -93.5t44 -79 t65.5 -54t91.5 -20q87 0 155.5 36.5t115.5 96.5t71.5 137t24.5 158q0 49 -11 99t-32 97t-51 88t-67.5 71.5t-82 48t-94.5 17.5q-56 0 -97.5 -18.5t-72.5 -50t-51 -72.5t-32 -87t-17 -93t-5 -90zM227 1379q0 61 17.5 112.5t49 88.5t75 57.5t96.5 20.5q71 0 119 -21.5 t80.5 -54.5t52 -71t34.5 -71q19 -40 31.5 -58.5t26.5 -18.5q21 0 35 9.5t22.5 24.5t12 32.5t3.5 33.5q0 26 -7.5 51.5t-22.5 46.5q-7 6 -10 14.5t-3 16.5q0 23 17 38t37 15q12 0 22.5 -5.5t20.5 -14.5q37 -59 52 -124.5t15 -127.5q0 -58 -18.5 -110.5t-51.5 -92.5t-78 -64 t-98 -24q-52 0 -92 21.5t-71.5 55t-57 74t-47.5 78.5q-8 15 -16 32t-18.5 32t-24 25t-31.5 10q-27 0 -40.5 -14.5t-17.5 -37.5t-1 -50.5t10 -54t15.5 -48t15.5 -31.5q5 -8 7.5 -14t2.5 -14q0 -23 -16.5 -38.5t-36.5 -15.5q-25 0 -43 25q-21 28 -34.5 63t-21 70.5t-10 69 t-2.5 59.5z" />
<glyph unicode="&#xf6;" d="M82 494q0 118 41 218t113 172.5t169.5 113t210.5 40.5q118 0 216.5 -43.5t169.5 -118t110 -173.5t39 -209q0 -120 -43 -220t-116 -171.5t-170.5 -111.5t-205.5 -40q-122 0 -220.5 38.5t-168.5 109.5t-107.5 171t-37.5 224zM434 504q0 -44 4 -93.5t14 -98t27 -93.5t44 -79 t65.5 -54t91.5 -20q87 0 155.5 36.5t115.5 96.5t71.5 137t24.5 158q0 49 -11 99t-32 97t-51 88t-67.5 71.5t-82 48t-94.5 17.5q-56 0 -97.5 -18.5t-72.5 -50t-51 -72.5t-32 -87t-17 -93t-5 -90zM244 1236q0 31 12 59t33 49t49 33t60 12q31 0 59 -12t49 -33t33 -49t12 -59 q0 -32 -12 -60t-33 -49t-49 -33t-59 -12q-32 0 -60 12t-49 33t-33 49t-12 60zM682 1236q0 31 12 59t32.5 49t48 33t59.5 12t60 -12t48.5 -33t32.5 -49t12 -59q0 -32 -12 -60t-32.5 -49t-48.5 -33t-60 -12t-59.5 12t-48 33t-32.5 49t-12 60z" />
<glyph unicode="&#xf7;" horiz-adv-x="1108" d="M76 750q0 21 15 37t38 16q2 0 3 -1t3 -1q129 -17 229.5 -26t192.5 -9q48 0 96.5 2t99 6.5t105 11t115.5 15.5q2 0 4 1t4 1q22 0 36.5 -16t14.5 -37q0 -20 -12.5 -35t-32.5 -17q-218 -30 -434 -30q-215 0 -432 30q-20 2 -32.5 17t-12.5 35zM401 422q0 31 12 59t33 48 t49 32t60 12t60 -12t49 -32t33 -48t12 -59q0 -32 -12 -60t-33 -49t-49 -33t-60 -12t-60 12t-49 33t-33 49t-12 60zM401 1016q0 31 12 59t33 48t49 32t60 12t60 -12t49 -32t33 -48t12 -59q0 -32 -12 -60t-33 -49t-49 -33t-60 -12t-60 12t-49 33t-33 49t-12 60z" />
<glyph unicode="&#xf8;" d="M82 494q0 118 41 218t113 172.5t169.5 113t210.5 40.5q56 0 106.5 -10t96.5 -29q17 29 33.5 54t32.5 47q11 22 41 22q24 0 38.5 -16.5t14.5 -36.5q0 -8 -4 -17.5t-4 -11.5l-60 -88q56 -37 100.5 -86.5t75.5 -108.5t47.5 -126t16.5 -137q0 -120 -43 -220t-116 -171.5 t-170.5 -111.5t-205.5 -40q-123 0 -223 41q-9 -23 -17.5 -45t-15.5 -43q0 -17 -15.5 -26t-31.5 -9q-18 0 -35.5 13.5t-17.5 35.5q0 5 1 9.5t3 9.5q6 23 15.5 47.5t21.5 52.5q-105 69 -162 185.5t-57 271.5zM434 504q0 -37 2 -77.5t8 -82.5q37 72 77.5 146.5t81.5 147t81 141 t78 130.5q-26 6 -53 6q-56 0 -97.5 -18.5t-72.5 -50t-51 -72.5t-32 -87t-17 -93t-5 -90zM487 199q28 -59 74.5 -96t118.5 -37q87 0 155.5 36.5t115.5 96.5t71.5 137t24.5 158q0 53 -13 107.5t-37.5 104.5t-59.5 92t-79 70q-46 -75 -95 -158t-97 -169.5t-93.5 -173 t-85.5 -168.5z" />
<glyph unicode="&#xf9;" horiz-adv-x="1411" d="M25 973q0 20 15 35.5t38 15.5l264 -6q22 -3 36.5 -17.5t14.5 -35.5q0 -8 -2.5 -14.5t-5.5 -12.5q-19 -19 -36 -57t-31 -86.5t-25 -103t-19 -106t-12 -95.5t-4 -72q0 -62 10.5 -125.5t36.5 -115t70 -84t112 -32.5q61 0 116 35.5t99.5 101.5t78 161t53.5 214l12 402 q0 22 17 35.5t36 13.5h6q34 -5 69 -6.5t73 -1.5q61 0 127.5 6t138.5 20q2 0 4 1t4 1q23 0 38 -16.5t15 -36.5q0 -18 -11.5 -33t-31.5 -18q-35 -8 -70 -12.5t-69 -9.5l-16 -828q35 0 71.5 -1t71.5 -7q22 -2 34.5 -17.5t12.5 -33.5q0 -25 -16.5 -39.5t-34.5 -14.5h-6 q-41 5 -80.5 7t-77.5 2q-69 0 -136.5 -7t-133.5 -22h-11q-21 0 -37 15.5t-16 35.5v2l6 183q-63 -115 -147 -175.5t-187 -60.5q-65 0 -114.5 21t-87 56.5t-63 82t-41 98t-22.5 104.5t-7 101q0 131 25.5 257t76.5 238l-180 5q-22 2 -36.5 16.5t-14.5 36.5zM43 1572 q0 20 15 35.5t38 15.5h275q31 0 47 -26l254 -475q6 -11 6 -25q0 -20 -15 -35.5t-38 -15.5q-20 0 -35 12l-529 473q-18 15 -18 41z" />
<glyph unicode="&#xfa;" horiz-adv-x="1411" d="M25 973q0 20 15 35.5t38 15.5l264 -6q22 -3 36.5 -17.5t14.5 -35.5q0 -8 -2.5 -14.5t-5.5 -12.5q-19 -19 -36 -57t-31 -86.5t-25 -103t-19 -106t-12 -95.5t-4 -72q0 -62 10.5 -125.5t36.5 -115t70 -84t112 -32.5q61 0 116 35.5t99.5 101.5t78 161t53.5 214l12 402 q0 22 17 35.5t36 13.5h6q34 -5 69 -6.5t73 -1.5q61 0 127.5 6t138.5 20q2 0 4 1t4 1q23 0 38 -16.5t15 -36.5q0 -18 -11.5 -33t-31.5 -18q-35 -8 -70 -12.5t-69 -9.5l-16 -828q35 0 71.5 -1t71.5 -7q22 -2 34.5 -17.5t12.5 -33.5q0 -25 -16.5 -39.5t-34.5 -14.5h-6 q-41 5 -80.5 7t-77.5 2q-69 0 -136.5 -7t-133.5 -22h-11q-21 0 -37 15.5t-16 35.5v2l6 183q-63 -115 -147 -175.5t-187 -60.5q-65 0 -114.5 21t-87 56.5t-63 82t-41 98t-22.5 104.5t-7 101q0 131 25.5 257t76.5 238l-180 5q-22 2 -36.5 16.5t-14.5 36.5zM559 1068q0 14 6 25 l254 475q16 26 47 26h275q23 0 38 -15.5t15 -35.5q0 -26 -19 -41l-528 -473q-15 -12 -35 -12q-23 0 -38 15.5t-15 35.5z" />
<glyph unicode="&#xfb;" horiz-adv-x="1411" d="M25 973q0 20 15 35.5t38 15.5l264 -6q22 -3 36.5 -17.5t14.5 -35.5q0 -8 -2.5 -14.5t-5.5 -12.5q-19 -19 -36 -57t-31 -86.5t-25 -103t-19 -106t-12 -95.5t-4 -72q0 -62 10.5 -125.5t36.5 -115t70 -84t112 -32.5q61 0 116 35.5t99.5 101.5t78 161t53.5 214l12 402 q0 22 17 35.5t36 13.5h6q34 -5 69 -6.5t73 -1.5q61 0 127.5 6t138.5 20q2 0 4 1t4 1q23 0 38 -16.5t15 -36.5q0 -18 -11.5 -33t-31.5 -18q-35 -8 -70 -12.5t-69 -9.5l-16 -828q35 0 71.5 -1t71.5 -7q22 -2 34.5 -17.5t12.5 -33.5q0 -25 -16.5 -39.5t-34.5 -14.5h-6 q-41 5 -80.5 7t-77.5 2q-69 0 -136.5 -7t-133.5 -22h-11q-21 0 -37 15.5t-16 35.5v2l6 183q-63 -115 -147 -175.5t-187 -60.5q-65 0 -114.5 21t-87 56.5t-63 82t-41 98t-22.5 104.5t-7 101q0 131 25.5 257t76.5 238l-180 5q-22 2 -36.5 16.5t-14.5 36.5zM305 1152q0 17 8 28 l309 451q7 11 18 16.5t23 5.5q28 0 43 -18l373 -451q12 -15 12 -32q0 -23 -17 -38.5t-36 -15.5h-250q-23 0 -39 19l-196 227l-152 -223q-16 -23 -43 -23q-23 0 -38 17t-15 37z" />
<glyph unicode="&#xfc;" horiz-adv-x="1411" d="M25 973q0 20 15 35.5t38 15.5l264 -6q22 -3 36.5 -17.5t14.5 -35.5q0 -8 -2.5 -14.5t-5.5 -12.5q-19 -19 -36 -57t-31 -86.5t-25 -103t-19 -106t-12 -95.5t-4 -72q0 -62 10.5 -125.5t36.5 -115t70 -84t112 -32.5q61 0 116 35.5t99.5 101.5t78 161t53.5 214l12 402 q0 22 17 35.5t36 13.5h6q34 -5 69 -6.5t73 -1.5q61 0 127.5 6t138.5 20q2 0 4 1t4 1q23 0 38 -16.5t15 -36.5q0 -18 -11.5 -33t-31.5 -18q-35 -8 -70 -12.5t-69 -9.5l-16 -828q35 0 71.5 -1t71.5 -7q22 -2 34.5 -17.5t12.5 -33.5q0 -25 -16.5 -39.5t-34.5 -14.5h-6 q-41 5 -80.5 7t-77.5 2q-69 0 -136.5 -7t-133.5 -22h-11q-21 0 -37 15.5t-16 35.5v2l6 183q-63 -115 -147 -175.5t-187 -60.5q-65 0 -114.5 21t-87 56.5t-63 82t-41 98t-22.5 104.5t-7 101q0 131 25.5 257t76.5 238l-180 5q-22 2 -36.5 16.5t-14.5 36.5zM328 1253 q0 31 12 59t33 49t49 33t60 12q31 0 59 -12t49 -33t33 -49t12 -59q0 -32 -12 -60t-33 -49t-49 -33t-59 -12q-32 0 -60 12t-49 33t-33 49t-12 60zM766 1253q0 31 12 59t32.5 49t48 33t59.5 12t60 -12t48.5 -33t32.5 -49t12 -59q0 -32 -12 -60t-32.5 -49t-48.5 -33t-60 -12 t-59.5 12t-48 33t-32.5 49t-12 60z" />
<glyph unicode="&#xfd;" horiz-adv-x="1237" d="M-104 -297q0 45 12.5 89.5t37 79t60.5 56t84 21.5q37 0 69.5 -14t56.5 -38t38 -56.5t14 -69.5t-14 -69.5t-38 -57t-56.5 -38.5t-69.5 -14q-17 0 -32 3t-29 8q23 -29 53 -46.5t65 -17.5q44 0 84 26.5t75.5 68.5t65.5 94t54.5 104t42.5 98t29 76q8 22 15.5 46.5t16.5 51.5 q-110 150 -176 280t-102.5 235t-49 182.5t-14.5 122.5q-38 0 -76.5 1.5t-76.5 6.5q-20 2 -33.5 16.5t-13.5 34.5q0 22 16.5 37.5t36.5 15.5h6q35 -5 71.5 -6.5t74.5 -1.5q58 0 117.5 4.5t121.5 14.5q4 2 8 2q23 0 38.5 -17t15.5 -37q0 -18 -12.5 -33t-32.5 -18 q-41 -6 -79.5 -10.5t-76.5 -7.5q1 -36 11.5 -101t40 -154t83 -200t141.5 -240q28 96 56.5 201.5t54 203.5t46 180t32.5 132q-20 2 -41.5 3.5t-42.5 4.5q-20 2 -33.5 17t-13.5 35q0 24 17 38.5t36 14.5h6q62 -8 123.5 -11t124.5 -3q62 0 124.5 3t125.5 11h6q23 0 38 -16.5 t15 -36.5t-13.5 -35t-33.5 -17q-19 -3 -37.5 -4.5t-38.5 -3.5q-7 -28 -19.5 -78.5t-29.5 -115.5t-36.5 -141t-40.5 -155t-43 -157t-42.5 -147.5t-39 -126t-33.5 -93.5q-41 -98 -97.5 -191.5t-130 -166.5t-164.5 -117.5t-200 -44.5q-68 0 -131 18.5t-111 55.5t-77 90.5 t-29 124.5zM526 1152q0 14 6 25l254 475q16 26 47 26h275q23 0 38 -15.5t15 -35.5q0 -26 -19 -41l-528 -473q-15 -12 -35 -12q-23 0 -38 15.5t-15 35.5z" />
<glyph unicode="&#xfe;" horiz-adv-x="1341" d="M-25 1393v8q4 18 19 31.5t35 13.5q4 0 6 -2q1 0 21 -2t52.5 -5t74.5 -5t87 -2q44 0 88 2.5t82 11.5q3 0 5 1t6 1q23 0 38 -16.5t15 -36.5v-602q23 48 58 89t80 72t97.5 48.5t110.5 17.5q95 0 170 -39.5t126.5 -106t80 -153.5t30.5 -182q0 -115 -28 -221.5t-86 -188.5 t-145.5 -131t-206.5 -49q-46 0 -88.5 8t-79.5 22t-67.5 32t-51.5 38v-471q23 -2 47 -4.5t47 -5.5t34 -21.5t11 -38.5q-3 -20 -18 -32.5t-35 -12.5h-6q-59 8 -121 13.5t-131 5.5q-63 0 -131.5 -5.5t-147.5 -21.5h-8q-23 0 -38 15.5t-15 35.5q0 19 11.5 33.5t31.5 18.5 q59 12 112 18v1753q-54 5 -88.5 8.5t-38.5 5.5q-20 2 -32.5 17t-12.5 35zM504 233q-2 -4 3.5 -18.5t19 -34.5t36 -42.5t55 -41t75.5 -31t98 -12.5q96 0 164 40.5t111.5 108t64 155t20.5 180.5q-1 73 -20.5 141t-58 120.5t-94 83.5t-128.5 31q-70 0 -123 -34t-91.5 -85 t-64 -111.5t-40.5 -113.5t-21 -90.5t-6 -42.5v-203z" />
<glyph unicode="&#xff;" horiz-adv-x="1237" d="M-104 -297q0 45 12.5 89.5t37 79t60.5 56t84 21.5q37 0 69.5 -14t56.5 -38t38 -56.5t14 -69.5t-14 -69.5t-38 -57t-56.5 -38.5t-69.5 -14q-17 0 -32 3t-29 8q23 -29 53 -46.5t65 -17.5q44 0 84 26.5t75.5 68.5t65.5 94t54.5 104t42.5 98t29 76q8 22 15.5 46.5t16.5 51.5 q-110 150 -176 280t-102.5 235t-49 182.5t-14.5 122.5q-38 0 -76.5 1.5t-76.5 6.5q-20 2 -33.5 16.5t-13.5 34.5q0 22 16.5 37.5t36.5 15.5h6q35 -5 71.5 -6.5t74.5 -1.5q58 0 117.5 4.5t121.5 14.5q4 2 8 2q23 0 38.5 -17t15.5 -37q0 -18 -12.5 -33t-32.5 -18 q-41 -6 -79.5 -10.5t-76.5 -7.5q1 -36 11.5 -101t40 -154t83 -200t141.5 -240q28 96 56.5 201.5t54 203.5t46 180t32.5 132q-20 2 -41.5 3.5t-42.5 4.5q-20 2 -33.5 17t-13.5 35q0 24 17 38.5t36 14.5h6q62 -8 123.5 -11t124.5 -3q62 0 124.5 3t125.5 11h6q23 0 38 -16.5 t15 -36.5t-13.5 -35t-33.5 -17q-19 -3 -37.5 -4.5t-38.5 -3.5q-7 -28 -19.5 -78.5t-29.5 -115.5t-36.5 -141t-40.5 -155t-43 -157t-42.5 -147.5t-39 -126t-33.5 -93.5q-41 -98 -97.5 -191.5t-130 -166.5t-164.5 -117.5t-200 -44.5q-68 0 -131 18.5t-111 55.5t-77 90.5 t-29 124.5zM197 1300q0 31 12 59t33 49t49 33t60 12q31 0 59 -12t49 -33t33 -49t12 -59q0 -32 -12 -60t-33 -49t-49 -33t-59 -12q-32 0 -60 12t-49 33t-33 49t-12 60zM635 1300q0 31 12 59t32.5 49t48 33t59.5 12t60 -12t48.5 -33t32.5 -49t12 -59q0 -32 -12 -60t-32.5 -49 t-48.5 -33t-60 -12t-59.5 12t-48 33t-32.5 49t-12 60z" />
<glyph unicode="&#x131;" horiz-adv-x="793" d="M39 934q0 25 18 38t35 13h6q1 0 23 -2.5t57.5 -5.5t80.5 -5.5t93 -2.5t94 3.5t84 12.5h11q23 0 38 -15.5t15 -35.5l-2 -832q35 -5 70.5 -9.5t72.5 -12.5q19 -3 31 -18t12 -33q0 -23 -17 -38.5t-36 -15.5q-2 0 -4.5 1t-5.5 1q-81 16 -154 23.5t-145 7.5q-73 0 -145 -7.5 t-152 -23.5q-3 0 -5 -1t-5 -1q-23 0 -37.5 17t-14.5 37q0 18 11.5 33t29.5 18q35 8 70.5 12.5t69.5 9.5v766q-63 3 -106 8t-48 5q-20 3 -32.5 18t-12.5 35z" />
<glyph unicode="&#x152;" horiz-adv-x="2515" d="M94 711q0 106 26 205t73 184.5t113.5 156t146.5 121t172.5 78t191.5 27.5q102 0 194.5 -28.5t171.5 -79.5t143.5 -121t111.5 -152v211q-32 2 -64 2h-63q-22 2 -36.5 16.5t-14.5 36.5t15.5 37.5t37.5 15.5q37 -2 73 -2h70q214 0 422.5 14t417.5 42h8q20 0 34 -13.5 t17 -31.5l43 -338v-7q0 -23 -16.5 -37t-36.5 -14q-19 0 -33.5 12.5t-17.5 32.5l-37 285q-116 -16 -232 -25.5t-235 -15.5v-659q24 1 64 3t86.5 6t95 9.5t90.5 13.5h10q22 0 37.5 -15.5t15.5 -35.5t-12 -34t-31 -19q-46 -9 -98.5 -15t-102 -9.5t-90.5 -5.5t-65 -3v-455h29 q118 0 238.5 -3t242.5 -11l37 268q3 20 17.5 32.5t33.5 12.5q25 0 39 -17t14 -34v-8l-43 -317q-3 -20 -18 -32.5t-35 -12.5h-2q-267 18 -524 18q-259 0 -502 -18h-4q-23 2 -38 16t-15 37q0 20 13.5 34.5t35.5 16.5q32 3 64.5 4.5t64.5 3.5v225q-48 -84 -114.5 -154 t-146.5 -120.5t-171.5 -78t-188.5 -27.5q-99 0 -191.5 27.5t-172.5 78t-146.5 121t-113.5 156t-73 184.5t-26 205zM446 727q0 -81 9.5 -162t32 -155.5t58 -139t87.5 -112t121.5 -74.5t158.5 -27q71 0 137.5 28t125 75.5t107 112t83 137t53.5 150t19 151.5q0 68 -18 142.5 t-50.5 146t-78 136t-100 113t-116.5 77t-127 28.5q-88 0 -159 -26t-126.5 -70.5t-96.5 -105.5t-67.5 -130.5t-39.5 -145t-13 -149.5z" />
<glyph unicode="&#x153;" horiz-adv-x="2114" d="M82 494q0 118 41 218t113 172.5t169.5 113t210.5 40.5q82 0 155 -21.5t134 -60t108 -92.5t79 -119q29 75 85.5 128.5t126.5 88.5t145 51.5t140 16.5q118 -5 204 -40t141 -97t81.5 -149.5t26.5 -196.5q0 -25 -1 -39.5t-1 -18.5q-3 -26 -28.5 -45t-63 -33.5t-83.5 -24 t-89.5 -15.5t-81 -8.5t-58.5 -2.5q-72 0 -133.5 10t-101.5 21q5 -62 22.5 -122t49.5 -107.5t80 -77t116 -29.5q25 0 57 6.5t62.5 19t56.5 30t41 39.5q8 9 19 14.5t22 5.5q22 0 37.5 -16.5t15.5 -36.5q0 -21 -12 -33q-24 -37 -67 -63t-93 -42.5t-101.5 -24t-92.5 -7.5 q-87 0 -165.5 22.5t-144.5 64t-117.5 98.5t-84.5 126q-32 -71 -82.5 -127.5t-113.5 -96.5t-137 -61.5t-153 -21.5q-122 0 -220.5 38.5t-168.5 109.5t-107.5 171t-37.5 224zM434 504q0 -44 4 -93.5t14 -98t27 -93.5t44 -79t65.5 -54t91.5 -20q87 0 155.5 36.5t115.5 96.5 t71.5 137t24.5 158q0 49 -11 99t-32 97t-51 88t-67.5 71.5t-82 48t-94.5 17.5q-56 0 -97.5 -18.5t-72.5 -50t-51 -72.5t-32 -87t-17 -93t-5 -90zM1399 502q16 -5 40.5 -11t55.5 -11.5t67 -9t76 -3.5q85 0 159.5 16t139.5 45v17q0 75 -16 139t-50.5 113.5t-88 81.5t-129.5 43 q-53 -6 -92 -29t-66.5 -56.5t-45.5 -75.5t-28.5 -86.5t-15 -89t-6.5 -83.5z" />
<glyph unicode="&#x178;" horiz-adv-x="1573" d="M-78 1389q0 26 18 39.5t35 13.5h7q88 -14 173.5 -20.5t170.5 -6.5t168.5 6.5t167.5 20.5h6q23 0 38 -16t15 -37q0 -19 -12.5 -34t-32.5 -18q-38 -6 -78 -10.5t-80 -7.5q26 -48 69.5 -121.5t100 -157t123.5 -168.5t141 -157q22 29 54 80.5t69 126.5t77 174.5t77 224.5 q-48 2 -95 5t-94 11q-20 3 -32.5 18t-12.5 34q0 24 17.5 38.5t34.5 14.5h8q59 -9 116.5 -14t116.5 -5t116 5t114 14h8q21 0 37 -16.5t16 -36.5q0 -19 -13 -34t-32 -18q-99 -15 -197 -18q-45 -160 -95 -281t-95.5 -207.5t-82 -138.5t-54.5 -74v-526q86 -3 174 -12 q20 -3 33.5 -18t13.5 -35q0 -25 -18 -38.5t-35 -13.5h-7q-61 8 -123.5 11.5t-125.5 3.5q-104 0 -205 -10.5t-201 -30.5h-10q-22 0 -37.5 15.5t-15.5 35.5q0 19 12 33.5t31 19.5q42 8 84 15t86 12v434q-69 65 -133.5 143.5t-121.5 159.5t-105.5 160.5t-86.5 147.5t-64.5 119 t-39.5 77q-37 3 -74 6.5t-74 9.5q-20 3 -32.5 18t-12.5 34zM469 1663q0 31 12 59t33 49t49 33t60 12q31 0 59 -12t49 -33t33 -49t12 -59q0 -32 -12 -60t-33 -49t-49 -33t-59 -12q-32 0 -60 12t-49 33t-33 49t-12 60zM907 1663q0 31 12 59t32.5 49t48 33t59.5 12t60 -12 t48.5 -33t32.5 -49t12 -59q0 -32 -12 -60t-32.5 -49t-48.5 -33t-60 -12t-59.5 12t-48 33t-32.5 49t-12 60z" />
<glyph unicode="&#x2c6;" horiz-adv-x="786" d="M0 1219q0 17 8 28l309 451q7 11 18 16.5t23 5.5q28 0 43 -18l373 -451q12 -15 12 -32q0 -23 -17 -38.5t-36 -15.5h-250q-23 0 -39 19l-196 227l-152 -223q-16 -23 -43 -23q-23 0 -38 17t-15 37z" />
<glyph unicode="&#x2da;" horiz-adv-x="621" d="M0 1436q0 67 24 125t66 100t98 66t121 24q69 0 126 -23t98.5 -64.5t64.5 -99.5t23 -128q0 -71 -22.5 -129t-63.5 -99.5t-98.5 -64.5t-127.5 -23q-68 0 -125 25.5t-98 69t-63.5 100.5t-22.5 121zM104 1436q0 -26 5.5 -53.5t17.5 -51t31.5 -38.5t48.5 -15q31 0 53 16.5 t36 41.5t20 53.5t6 52.5q0 26 -8.5 53.5t-24 50t-37.5 37t-49 14.5q-29 0 -48.5 -17t-30.5 -42t-15.5 -53t-4.5 -49z" />
<glyph unicode="&#x2dc;" horiz-adv-x="776" d="M0 1450q0 61 17.5 112.5t49 88.5t75 57.5t96.5 20.5q71 0 119 -21.5t80.5 -54.5t52 -71t34.5 -71q19 -40 31.5 -58.5t26.5 -18.5q21 0 35 9.5t22.5 24.5t12 32.5t3.5 33.5q0 26 -7.5 51.5t-22.5 46.5q-7 6 -10 14.5t-3 16.5q0 23 17 38t37 15q12 0 22.5 -5.5t20.5 -14.5 q37 -59 52 -124.5t15 -127.5q0 -58 -18.5 -110.5t-51.5 -92.5t-78 -64t-98 -24q-52 0 -92 21.5t-71.5 55t-57 74t-47.5 78.5q-8 15 -16 32t-18.5 32t-24 25t-31.5 10q-27 0 -40.5 -14.5t-17.5 -37.5t-1 -50.5t10 -54t15.5 -48t15.5 -31.5q5 -8 7.5 -14t2.5 -14 q0 -23 -16.5 -38.5t-36.5 -15.5q-25 0 -43 25q-21 28 -34.5 63t-21 70.5t-10 69t-2.5 59.5z" />
<glyph unicode="&#x2000;" horiz-adv-x="1065" />
<glyph unicode="&#x2001;" horiz-adv-x="2130" />
<glyph unicode="&#x2002;" horiz-adv-x="1065" />
<glyph unicode="&#x2003;" horiz-adv-x="2130" />
<glyph unicode="&#x2004;" horiz-adv-x="710" />
<glyph unicode="&#x2005;" horiz-adv-x="532" />
<glyph unicode="&#x2006;" horiz-adv-x="355" />
<glyph unicode="&#x2007;" horiz-adv-x="355" />
<glyph unicode="&#x2008;" horiz-adv-x="266" />
<glyph unicode="&#x2009;" horiz-adv-x="426" />
<glyph unicode="&#x200a;" horiz-adv-x="118" />
<glyph unicode="&#x2010;" horiz-adv-x="1235" d="M139 750q0 21 15.5 37t38.5 16q2 0 3 -1t3 -1q129 -17 229.5 -26t192.5 -9q48 0 96.5 2t99 6.5t104.5 11t115 15.5q2 0 4 1t4 1q22 0 37 -16t15 -37q0 -20 -12.5 -35t-32.5 -17q-110 -15 -217.5 -22.5t-217.5 -7.5q-213 0 -432 30q-20 2 -32.5 17t-12.5 35z" />
<glyph unicode="&#x2011;" horiz-adv-x="1235" d="M139 750q0 21 15.5 37t38.5 16q2 0 3 -1t3 -1q129 -17 229.5 -26t192.5 -9q48 0 96.5 2t99 6.5t104.5 11t115 15.5q2 0 4 1t4 1q22 0 37 -16t15 -37q0 -20 -12.5 -35t-32.5 -17q-110 -15 -217.5 -22.5t-217.5 -7.5q-213 0 -432 30q-20 2 -32.5 17t-12.5 35z" />
<glyph unicode="&#x2012;" horiz-adv-x="1235" d="M139 750q0 21 15.5 37t38.5 16q2 0 3 -1t3 -1q129 -17 229.5 -26t192.5 -9q48 0 96.5 2t99 6.5t104.5 11t115 15.5q2 0 4 1t4 1q22 0 37 -16t15 -37q0 -20 -12.5 -35t-32.5 -17q-110 -15 -217.5 -22.5t-217.5 -7.5q-213 0 -432 30q-20 2 -32.5 17t-12.5 35z" />
<glyph unicode="&#x2013;" horiz-adv-x="889" d="M137 750q0 21 15 37t38 16q2 0 3.5 -1t3.5 -1q37 -5 105 -16t153 -13q55 -2 115 3.5t122 25.5q2 0 4 1t4 1q22 0 37 -16t15 -37q0 -20 -12.5 -32.5t-32.5 -19.5q-27 -8 -59 -13.5t-66.5 -10t-69.5 -6.5t-68 -2q-69 0 -131.5 7.5t-130.5 24.5q-20 5 -32.5 18.5t-12.5 33.5 z" />
<glyph unicode="&#x2014;" horiz-adv-x="1511" d="M141 750q0 21 15.5 37t38.5 16q2 0 3 -1t3 -1q64 -9 142.5 -15.5t155.5 -11t146 -6.5t115 -2q48 0 117.5 2t145.5 6.5t151.5 11t136.5 15.5q2 0 4 1t4 1q22 0 36.5 -16t14.5 -37q0 -20 -12.5 -35t-32.5 -17q-54 -8 -129.5 -13.5t-155 -9t-155 -5.5t-129.5 -2t-129.5 2 t-155 5.5t-155 9t-130.5 13.5q-20 2 -32.5 17t-12.5 35z" />
<glyph unicode="&#x2018;" horiz-adv-x="489" d="M86 1133q0 43 11.5 86.5t37 83t65.5 73t97 56.5q5 2 9 3t9 1q23 0 38.5 -17t15.5 -37q0 -15 -10 -29t-25 -20q-45 -17 -72.5 -42t-44.5 -54q8 2 15 2h14q31 0 59 -12t49 -33t33 -49t12 -60t-12 -59.5t-33 -47.5t-49 -32t-59 -12q-41 0 -71 16t-50 43.5t-29.5 63.5 t-9.5 76z" />
<glyph unicode="&#x2019;" horiz-adv-x="487" d="M96 1284q0 31 12 59t33 48.5t49 32.5t60 12q40 0 70.5 -16t50 -43.5t29.5 -63.5t10 -76q0 -43 -11.5 -87t-37 -83.5t-65.5 -73t-97 -55.5q-5 -2 -9.5 -3t-9.5 -1q-23 0 -38 16.5t-15 36.5q0 16 9.5 29.5t25.5 19.5q45 17 72.5 42.5t44.5 54.5q-8 -2 -14.5 -2.5 t-14.5 -0.5q-32 0 -60 12t-49 33t-33 49t-12 60z" />
<glyph unicode="&#x201a;" horiz-adv-x="500" d="M94 88q0 31 12 59t33 48.5t49 32.5t60 12q40 0 70.5 -16t50 -43.5t29.5 -63.5t10 -76q0 -43 -11.5 -87t-37 -83.5t-65.5 -73t-97 -55.5q-5 -2 -9.5 -3t-9.5 -1q-23 0 -38 16.5t-15 36.5q0 16 9.5 29.5t25.5 19.5q45 17 72 42.5t44 54.5q-8 -2 -14 -2.5t-14 -0.5 q-32 0 -60 12t-49 33t-33 49t-12 60z" />
<glyph unicode="&#x201c;" horiz-adv-x="858" d="M86 1133q0 43 11.5 86.5t37 83t65.5 73t97 56.5q5 2 9 3t9 1q23 0 38.5 -17t15.5 -37q0 -15 -10 -29t-25 -20q-45 -17 -72.5 -42t-44.5 -54q8 2 15 2h14q31 0 59 -12t49 -33t33 -49t12 -60t-12 -59.5t-33 -47.5t-49 -32t-59 -12q-41 0 -71 16t-50 43.5t-29.5 63.5 t-9.5 76zM455 1133q0 43 11.5 86.5t37 83t65.5 73t97 56.5q5 2 9 3t9 1q23 0 38 -17t15 -37q0 -15 -9.5 -29t-25.5 -20q-45 -17 -72 -42t-44 -54q8 2 14 2h14q31 0 59 -12t49 -33t33.5 -49t12.5 -60t-12.5 -59.5t-33.5 -47.5t-49 -32t-59 -12q-41 0 -70.5 16t-49.5 43.5 t-29.5 63.5t-9.5 76z" />
<glyph unicode="&#x201d;" horiz-adv-x="856" d="M96 1284q0 31 12 59t33 48.5t49 32.5t60 12q40 0 70.5 -16t50 -43.5t29.5 -63.5t10 -76q0 -43 -11.5 -87t-37 -83.5t-65.5 -73t-97 -55.5q-5 -2 -9.5 -3t-9.5 -1q-23 0 -38 16.5t-15 36.5q0 16 9.5 29.5t25.5 19.5q45 17 72.5 42.5t44.5 54.5q-8 -2 -14.5 -2.5 t-14.5 -0.5q-32 0 -60 12t-49 33t-33 49t-12 60zM465 1284q0 31 12 59t33 48.5t49 32.5t59 12q41 0 71 -16t50 -43.5t29.5 -63.5t9.5 -76q0 -43 -11.5 -87t-37 -83.5t-65.5 -73t-97 -55.5q-5 -2 -9 -3t-9 -1q-23 0 -38 16.5t-15 36.5q0 16 9.5 29.5t24.5 19.5 q45 17 72.5 42.5t44.5 54.5q-8 -2 -14.5 -2.5t-14.5 -0.5q-31 0 -59 12t-49 33t-33 49t-12 60z" />
<glyph unicode="&#x201e;" horiz-adv-x="868" d="M94 88q0 31 12 59t33 48.5t49 32.5t60 12q40 0 70.5 -16t50 -43.5t29.5 -63.5t10 -76q0 -43 -11.5 -87t-37 -83.5t-65.5 -73t-97 -55.5q-5 -2 -9.5 -3t-9.5 -1q-23 0 -38 16.5t-15 36.5q0 16 9.5 29.5t25.5 19.5q45 17 72 42.5t44 54.5q-8 -2 -14 -2.5t-14 -0.5 q-32 0 -60 12t-49 33t-33 49t-12 60zM463 88q0 31 12 59t33 48.5t48.5 32.5t59.5 12q41 0 71 -16t50 -43.5t29.5 -63.5t9.5 -76q0 -43 -11.5 -87t-37 -83.5t-65.5 -73t-97 -55.5q-5 -2 -9 -3t-9 -1q-23 0 -38 16.5t-15 36.5q0 16 9.5 29.5t24.5 19.5q45 17 72.5 42.5 t44.5 54.5q-8 -2 -14.5 -2.5t-14.5 -0.5q-32 0 -59.5 12t-48.5 33t-33 49t-12 60z" />
<glyph unicode="&#x2022;" horiz-adv-x="815" d="M154 719q0 53 20 99.5t54.5 81.5t80.5 55t99 20t99 -20t80.5 -55t54.5 -81.5t20 -99.5q0 -52 -20 -98.5t-54.5 -81t-80.5 -54.5t-99 -20t-99 20t-80.5 54.5t-54.5 81t-20 98.5z" />
<glyph unicode="&#x2026;" horiz-adv-x="1499" d="M96 109q0 31 12 59t33 48t49 32t60 12t60 -12t48.5 -32t32.5 -48t12 -59q0 -32 -12 -60t-32.5 -49t-48.5 -33t-60 -12t-60 12t-49 33t-33 49t-12 60zM596 109q0 31 12 59t33 48t49 32t60 12t60 -12t48.5 -32t32.5 -48t12 -59q0 -32 -12 -60t-32.5 -49t-48.5 -33t-60 -12 t-60 12t-49 33t-33 49t-12 60zM1096 109q0 31 12 59t33 48t48.5 32t59.5 12t60 -12t49 -32t33 -48t12 -59q0 -32 -12 -60t-33 -49t-49 -33t-60 -12t-59.5 12t-48.5 33t-33 49t-12 60z" />
<glyph unicode="&#x202f;" horiz-adv-x="426" />
<glyph unicode="&#x2039;" horiz-adv-x="717" d="M63 461q0 1 1.5 6.5t4.5 12.5t6.5 14t8.5 10q63 48 126.5 109.5t121 125t106 123t82.5 103.5q8 11 19 16.5t22 5.5q22 0 37.5 -16.5t15.5 -36.5q0 -16 -10 -33q-32 -42 -76.5 -96.5t-97.5 -114.5v-418q53 -51 96.5 -99t75.5 -83q12 -15 12 -35q0 -21 -16.5 -37t-36.5 -16 q-11 0 -21 4.5t-18 13.5q-34 39 -82 91t-105 106.5t-120 107.5t-127 93q-11 8 -18 18.5t-7 24.5z" />
<glyph unicode="&#x203a;" horiz-adv-x="717" d="M102 55q0 21 13 35q31 35 75 83t97 99v418q-54 60 -98 114.5t-76 96.5q-7 8 -9 16t-2 17q0 22 16 37.5t36 15.5q26 0 43 -22q34 -44 82.5 -103.5t105.5 -123t120 -125t126 -109.5q11 -6 16.5 -17.5t5.5 -23.5q0 -14 -7.5 -25.5t-16.5 -19.5q-65 -40 -128.5 -93 t-120.5 -107.5t-104.5 -106.5t-80.5 -91q-8 -9 -19 -13.5t-22 -4.5q-22 0 -37 17.5t-15 35.5z" />
<glyph unicode="&#x205f;" horiz-adv-x="532" />
<glyph unicode="&#x20ac;" horiz-adv-x="1778" d="M72 565q0 26 18 39.5t35 13.5q4 0 6 -2q51 -6 102.5 -11.5t102.5 -8.5q-2 22 -3 43.5t-1 44.5t1 45.5t3 44.5q-56 5 -110.5 10t-108.5 13q-20 3 -32.5 18t-12.5 35q0 25 18 38t35 13h6q54 -8 108.5 -13.5t108.5 -8.5q19 115 60.5 205t98.5 157.5t127 114t146.5 76 t157 42.5t158.5 13q87 0 157.5 -18.5t125 -46.5t94.5 -62.5t67 -65.5l53 158q7 16 20.5 25.5t28.5 9.5q25 0 39.5 -17.5t14.5 -35.5v-8q0 -4 -2 -9l-162 -465q-5 -15 -18.5 -24.5t-30.5 -9.5q-25 0 -38 17t-13 36v7q0 4 2 9l63 187q-24 39 -60 75.5t-78.5 64.5t-89.5 45 t-93 17q-107 0 -190.5 -43.5t-143.5 -114.5t-96 -161t-48 -183q68 5 135.5 11.5t135.5 15.5h8q22 0 36.5 -15.5t14.5 -35.5t-12.5 -35t-32.5 -18q-72 -10 -145.5 -17t-147.5 -10v-49q0 -34 1 -66t3 -63q69 3 138 9t137 15q2 2 4 2h4q23 0 37 -16.5t14 -36.5q0 -18 -12.5 -33 t-32.5 -18q-69 -11 -138 -17t-138 -10q13 -72 41.5 -144t72.5 -131.5t104.5 -98.5t137.5 -45q72 -2 132 12.5t109 39t86.5 56.5t66.5 65q67 78 104 179q5 18 18.5 29.5t32.5 11.5q23 0 37 -16.5t14 -36.5v-13q-1 -2 -6.5 -20t-18 -46.5t-33 -65t-51.5 -75.5q-35 -44 -83 -85 t-111 -72t-142 -49.5t-174 -18.5q-129 0 -245.5 38t-209 107.5t-156 166.5t-85.5 214q-59 4 -116.5 10t-114.5 15q-20 3 -32.5 18t-12.5 33z" />
<glyph unicode="&#x2122;" horiz-adv-x="2839" d="M117 1065q0 23 17 37t36 14h4l86 -6l86 -6v213q0 17 11 31.5t28 19.5l250 68q3 2 7 2h7q23 0 37 -17t14 -37v-282q62 2 124.5 5.5t125.5 8.5h4q22 0 37 -15.5t15 -35.5t-14 -35.5t-34 -17.5q-65 -5 -129 -9t-129 -6v-350q0 -20 8.5 -37t22.5 -29t31 -19t35 -7 q27 0 44.5 14.5t29.5 36t19.5 45.5t12.5 43q3 19 18 30t33 11q23 0 37.5 -17t14.5 -36v-10q-29 -133 -114 -206t-210 -73q-39 0 -78.5 6.5t-77 22t-70.5 42.5t-57.5 68.5t-38.5 99t-14 134.5v233q-45 4 -90.5 7t-91.5 6q-20 3 -33.5 18t-13.5 35zM1094 1069q0 25 18 38 t35 13h6q1 0 23 -2.5t57.5 -5.5t80.5 -5.5t93 -2.5t94 3.5t84 12.5h10q23 0 38.5 -15.5t15.5 -35.5v-131q18 49 40 86.5t51.5 63t69.5 38.5t95 13q48 0 83.5 -14t62.5 -39.5t45.5 -60.5t31.5 -77q15 37 38.5 71.5t57.5 61t80 42.5t106 16q56 0 95.5 -18t66 -48t41.5 -70 t23 -83t10 -87.5t2 -84.5q0 -27 -3 -53.5t-7 -46.5q-4 -25 -10 -46q13 -1 27 -2q12 -1 28 -2.5t33 -3.5q20 -2 33.5 -16.5t13.5 -34.5q0 -22 -16.5 -38t-36.5 -16h-7q-18 3 -28.5 4.5t-20 2.5t-20.5 1.5t-31 0.5h-39q-14 0 -29 -1.5t-35.5 -4.5t-54.5 -9h-8q-22 0 -36.5 16 t-14.5 36t12 35t31 18q22 3 39 5t28 4q13 2 23 3q6 22 11 47q5 21 8.5 46.5t3.5 51.5q0 17 0.5 45.5t-2 60.5t-9.5 64.5t-22 59t-38.5 43t-60.5 16.5q-70 0 -114.5 -29t-73 -71.5t-45 -91t-29.5 -88.5q0 -20 -3 -46.5t-6 -50.5q-4 -28 -9 -57q12 -1 27 -2q13 -1 29 -1.5 t34 -2.5q22 -2 34.5 -16.5t12.5 -34.5q0 -25 -16 -39.5t-35 -14.5h-6q-21 3 -34.5 4t-24.5 2t-23 1h-29q-14 0 -35 -1t-43 -3t-43 -4.5t-34 -4.5h-9q-21 0 -36 16t-15 36t12.5 35t32.5 18q44 6 69 9t25 1q0 -1 3.5 18.5t7 46t7 53.5t3.5 42q0 48 -2 97t-14.5 88.5t-41 65 t-81.5 25.5q-50 0 -88 -26t-65 -65.5t-45.5 -87t-30.5 -90.5t-18 -76t-9 -44l-2 -63q18 -2 35 -4.5t34 -4.5q20 -3 33.5 -18t13.5 -35q0 -21 -16.5 -36t-36.5 -15h-6q-60 8 -122.5 13t-131.5 5q-62 0 -130.5 -5.5t-145.5 -20.5q-4 0 -6 -1t-5 -1q-23 0 -37 16.5t-14 36.5 q0 19 11 33.5t30 17.5q37 8 71 13t68 8v420q-63 3 -105.5 7.5t-47.5 4.5q-20 3 -32.5 18t-12.5 35z" />
<glyph unicode="&#xe000;" horiz-adv-x="1060" d="M0 1060h1060v-1060h-1060v1060z" />
<glyph unicode="&#xfb01;" horiz-adv-x="1597" d="M43 948q0 22 16 37.5t37 15.5h2q42 -3 84 -3.5t84 -2.5v37q0 110 42 202t121.5 158t195 103t262.5 37q90 0 178 -19t157.5 -56.5t112.5 -94t43 -131.5q0 -35 -14.5 -66t-39 -53.5t-57 -35.5t-67.5 -13q-37 0 -69.5 14t-56.5 38t-38 56.5t-14 69.5q0 51 26.5 93.5 t69.5 64.5q-46 18 -103.5 29.5t-123.5 11.5q-68 0 -114 -23.5t-76.5 -61.5t-47 -86t-24.5 -97t-9.5 -94t-1.5 -77v-6q67 0 134 -3.5t135 -8t137.5 -9t140.5 -5.5q48 0 95 3.5t94 12.5q23 0 38 -15.5t15 -35.5l-2 -832q35 -5 70.5 -9.5t72.5 -12.5q19 -3 31 -18t12 -33 q0 -23 -17 -38.5t-36 -15.5q-2 0 -4.5 1t-5.5 1q-81 16 -154 23.5t-145 7.5t-144.5 -7.5t-152.5 -23.5q-3 0 -5 -1t-5 -1q-23 0 -37.5 17t-14.5 37q0 18 11.5 33t29.5 18q35 8 70.5 12.5t69.5 9.5v766q-23 0 -60 1.5t-80.5 4.5t-89.5 5.5t-86.5 5.5t-72 4.5t-44.5 1.5v-766 q41 -5 81.5 -11t82.5 -14q19 -3 30 -17.5t11 -33.5q0 -26 -17 -39.5t-34 -13.5q-3 0 -5 1t-5 1q-79 15 -158 23t-160 8q-78 0 -156 -8t-157 -23q-3 0 -5.5 -1t-4.5 -1q-23 0 -38 16.5t-15 36.5q0 19 11.5 33.5t31.5 17.5q38 8 76.5 14t78.5 9v768q-84 0 -174 6 q-20 0 -34.5 15t-14.5 36z" />
<glyph unicode="&#xfb02;" horiz-adv-x="1597" d="M43 948q0 22 16 37.5t37 15.5h2q42 -3 84 -3.5t84 -2.5v37q0 110 40 202t119 158t196 103t272 37h461q28 0 44.5 -13.5t16.5 -39.5v-23q0 -21 0.5 -76.5t0.5 -152.5v-249q0 -153 -0.5 -368t-0.5 -506q17 -2 27 -3t19 -2t19.5 -2.5t28.5 -4.5q19 -5 31 -18.5t12 -32.5 q0 -23 -16.5 -38t-36.5 -15h-10q-40 7 -71.5 11.5t-60.5 7t-58 3t-64 0.5q-71 0 -141.5 -7.5t-151.5 -22.5h-10q-25 0 -38 15.5t-13 37.5q0 18 11 32t30 19q37 6 71 11.5t68 8.5v1332h-160q-62 0 -107 -23.5t-76.5 -61t-51 -85t-30.5 -95.5t-14.5 -93t-3.5 -77v-6 q42 2 84 2.5t84 3.5h2q22 0 37 -14.5t17 -36.5q0 -23 -15 -38t-36 -15q-87 -6 -173 -6v-766q41 -5 81.5 -11t82.5 -14q19 -3 30 -17.5t11 -33.5q0 -26 -17 -39.5t-34 -13.5q-3 0 -5 1t-5 1q-79 15 -158 23t-160 8q-78 0 -156 -8t-157 -23q-3 0 -5.5 -1t-4.5 -1 q-23 0 -38 16.5t-15 36.5q0 19 11.5 33.5t31.5 17.5q38 8 76.5 14t78.5 9v768q-84 0 -174 6q-20 0 -34.5 15t-14.5 36z" />
<glyph unicode="&#xfb03;" horiz-adv-x="2571" d="M1817 934q0 25 18 38t35 13h6q1 0 23 -2.5t57.5 -5.5t80.5 -5.5t93 -2.5t94 3.5t84 12.5h11q23 0 38 -15.5t15 -35.5l-2 -832q35 -5 70.5 -9.5t72.5 -12.5q19 -3 31 -18t12 -33q0 -23 -17 -38.5t-36 -15.5q-2 0 -4.5 1t-5.5 1q-81 16 -154 23.5t-145 7.5q-73 0 -145 -7.5 t-152 -23.5q-3 0 -5 -1t-5 -1q-23 0 -37.5 17t-14.5 37q0 18 11.5 33t29.5 18q35 8 70.5 12.5t69.5 9.5v766q-63 3 -106 8t-48 5q-20 3 -32.5 18t-12.5 35zM2001 1290q0 37 14 69.5t38 56.5t56.5 38t69.5 14t69.5 -14t57 -38t38.5 -56.5t14 -69.5t-14 -69.5t-38.5 -56.5 t-57 -38t-69.5 -14t-69.5 14t-56.5 38t-38 56.5t-14 69.5zM932 948q0 22 16 37.5t37 15.5h2q42 -3 84 -3.5t84 -2.5v37q0 110 31.5 202t90.5 158t144 103t193 37q93 0 167 -31.5t125 -83.5t77 -117q24 -61 24 -125v-10v-2q0 -21 -15.5 -36t-37.5 -15t-36.5 15t-16.5 36 q-3 40 -15.5 81t-35.5 74t-56 54t-78 21q-47 0 -80.5 -20t-56.5 -53t-37 -74.5t-22 -85.5t-10.5 -85.5t-2.5 -73.5v-6q42 2 84 2.5t84 3.5h2q22 0 37 -14.5t17 -36.5q0 -23 -15 -38t-36 -15q-87 -6 -173 -6v-766q41 -5 81.5 -11t82.5 -14q19 -3 30 -17.5t11 -33.5 q0 -26 -17 -39.5t-34 -13.5q-3 0 -5 1t-5 1q-79 15 -158 23t-160 8q-78 0 -156 -8t-157 -23q-3 0 -5.5 -1t-4.5 -1q-23 0 -38 16.5t-15 36.5q0 19 11.5 33.5t31.5 17.5q38 8 76.5 14t78.5 9v768q-84 0 -174 6q-20 0 -34.5 15t-14.5 36zM43 948q0 22 16 37.5t37 15.5h2 q42 -3 84 -3.5t84 -2.5v37q0 110 31.5 202t90.5 158t144 103t193 37q93 0 167 -31.5t125 -83.5t77 -117q24 -61 24 -125v-10v-2q0 -21 -15.5 -36t-37.5 -15t-36.5 15t-16.5 36q-3 40 -15.5 81t-35.5 74t-56 54t-78 21q-47 0 -80.5 -20t-56.5 -53t-37 -74.5t-22 -85.5 t-10.5 -85.5t-2.5 -73.5v-6q42 2 84 2.5t84 3.5h2q22 0 37 -14.5t17 -36.5q0 -23 -15 -38t-36 -15q-87 -6 -173 -6v-766q41 -5 81.5 -11t82.5 -14q19 -3 30 -17.5t11 -33.5q0 -26 -17 -39.5t-34 -13.5q-3 0 -5 1t-5 1q-79 15 -158 23t-160 8q-78 0 -156 -8t-157 -23 q-3 0 -5.5 -1t-4.5 -1q-23 0 -38 16.5t-15 36.5q0 19 11.5 33.5t31.5 17.5q38 8 76.5 14t78.5 9v768q-84 0 -174 6q-20 0 -34.5 15t-14.5 36z" />
<glyph unicode="&#xfb04;" horiz-adv-x="2513" d="M1803 37q0 18 11 32t30 19q37 6 67 9.5t64 6.5v1221q-63 5 -90.5 9.5t-32.5 4.5q-20 3 -32.5 18t-12.5 34q0 26 18 39.5t35 13.5h6q1 0 18 -2.5t46.5 -6t70 -6t88.5 -2.5t94 3.5t84 11.5q3 2 11 2q23 0 38 -16.5t15 -36.5l-2 -1287q17 -2 28.5 -3.5t22 -3t22 -3 t29.5 -4.5q19 -5 31 -19t12 -32q0 -23 -16.5 -38t-36.5 -15h-10q-40 7 -73 12t-63 7.5t-60.5 3.5t-65.5 1q-71 0 -138 -5.5t-147 -20.5h-10q-25 0 -38 15.5t-13 37.5zM932 948q0 22 16 37.5t37 15.5h2q42 -3 84 -3.5t84 -2.5v37q0 110 31.5 202t90.5 158t144 103t193 37 q93 0 167 -31.5t125 -83.5t77 -117q24 -61 24 -125v-10v-2q0 -21 -15.5 -36t-37.5 -15t-36.5 15t-16.5 36q-3 40 -15.5 81t-35.5 74t-56 54t-78 21q-47 0 -80.5 -20t-56.5 -53t-37 -74.5t-22 -85.5t-10.5 -85.5t-2.5 -73.5v-6q42 2 84 2.5t84 3.5h2q22 0 37 -14.5t17 -36.5 q0 -23 -15 -38t-36 -15q-87 -6 -173 -6v-766q41 -5 81.5 -11t82.5 -14q19 -3 30 -17.5t11 -33.5q0 -26 -17 -39.5t-34 -13.5q-3 0 -5 1t-5 1q-79 15 -158 23t-160 8q-78 0 -156 -8t-157 -23q-3 0 -5.5 -1t-4.5 -1q-23 0 -38 16.5t-15 36.5q0 19 11.5 33.5t31.5 17.5 q38 8 76.5 14t78.5 9v768q-84 0 -174 6q-20 0 -34.5 15t-14.5 36zM43 948q0 22 16 37.5t37 15.5h2q42 -3 84 -3.5t84 -2.5v37q0 110 31.5 202t90.5 158t144 103t193 37q93 0 167 -31.5t125 -83.5t77 -117q24 -61 24 -125v-10v-2q0 -21 -15.5 -36t-37.5 -15t-36.5 15 t-16.5 36q-3 40 -15.5 81t-35.5 74t-56 54t-78 21q-47 0 -80.5 -20t-56.5 -53t-37 -74.5t-22 -85.5t-10.5 -85.5t-2.5 -73.5v-6q42 2 84 2.5t84 3.5h2q22 0 37 -14.5t17 -36.5q0 -23 -15 -38t-36 -15q-87 -6 -173 -6v-766q41 -5 81.5 -11t82.5 -14q19 -3 30 -17.5t11 -33.5 q0 -26 -17 -39.5t-34 -13.5q-3 0 -5 1t-5 1q-79 15 -158 23t-160 8q-78 0 -156 -8t-157 -23q-3 0 -5.5 -1t-4.5 -1q-23 0 -38 16.5t-15 36.5q0 19 11.5 33.5t31.5 17.5q38 8 76.5 14t78.5 9v768q-84 0 -174 6q-20 0 -34.5 15t-14.5 36z" />
</font>
</defs>
</svg>
