<?xml version="1.0" standalone="no"?>
<!DOCTYPE svg PUBLIC "-//W3C//DTD SVG 1.1//EN" "http://www.w3.org/Graphics/SVG/1.1/DTD/svg11.dtd" >
<svg xmlns="http://www.w3.org/2000/svg">
<metadata>
This is a custom SVG webfont generated by Font Squirrel.
Copyright   : Copyright c 2011 Cyreal wwwcyrealorgwith Reserved Font Name BaumansThis Font Software is licensed under the SIL Open Font LicenseVersion 11 This license is available with a FAQ athttpscriptssilorgOFL
Designer    : Henadij Zarechnjuk
Foundry     : Cyreal wwwcyrealorg
Foundry URL : httpcyrealorg
</metadata>
<defs>
<font id="BaumansRegular" horiz-adv-x="1187" >
<font-face units-per-em="2048" ascent="1638" descent="-410" />
<missing-glyph horiz-adv-x="477" />
<glyph unicode=" "  horiz-adv-x="477" />
<glyph unicode="&#x09;" horiz-adv-x="477" />
<glyph unicode="&#xa0;" horiz-adv-x="477" />
<glyph unicode="!" horiz-adv-x="561" d="M154 106q0 53 36.5 90t90.5 37q53 0 90 -36.5t37 -90.5q0 -53 -37 -89.5t-90 -36.5t-91 36q-36 37 -36 90zM164 1350q0 106 116.5 106t116.5 -106q0 -12 -6 -124t-13 -339.5t-7 -515.5h-172q0 289 -9.5 516t-17.5 339t-8 124z" />
<glyph unicode="&#x22;" horiz-adv-x="610" d="M72 1434h180l-21 -451h-139zM358 1434h181l-21 -451h-139z" />
<glyph unicode="#" horiz-adv-x="1232" d="M113 438l6 131h217l41 295h-205l6 131h217l62 439h147l-61 -439h243l62 439h147l-61 -439h186l-6 -131h-199l-41 -295h187l-6 -131h-199l-61 -438h-148l62 438h-244l-62 -438h-147l61 438h-204zM483 569h244l41 295h-244z" />
<glyph unicode="$" horiz-adv-x="1046" d="M92 1092q0 172 111 256q104 82 270 86v102h123v-102h270v-181h-270v-426l39 -14q70 -27 119 -54.5t98 -72.5t73.5 -115.5t24.5 -162.5q0 -102 -43 -183.5t-110.5 -127.5t-139.5 -70q-31 -10 -61 -17v-133h-123v123h-354v180h354v488q-14 6 -31 12q-18 6 -28 10 q-322 123 -322 402zM297 1085q0 -90 90 -153q37 -25 86 -49v368q-176 -12 -176 -166zM596 207q35 12 63 31q88 59 89 172q0 55 -25 97t-72 73q-27 18 -55 32v-405z" />
<glyph unicode="%" horiz-adv-x="1839" d="M154 1122q0 72 27.5 133.5t73.5 106.5t106.5 70.5t127.5 25.5q68 0 128.5 -26.5t106.5 -72.5t73.5 -106.5t27.5 -130.5t-26.5 -130t-72.5 -106t-106.5 -73t-130.5 -27q-135 0 -237 97q-98 98 -98 239zM313 1122q0 -78 51.5 -127t124.5 -49q74 0 125.5 49t51.5 127 q0 76 -52.5 126t-126.5 50q-72 0 -123 -50t-51 -126zM471 0l678 1434h166l-674 -1434h-170zM1014 344q0 72 27.5 133.5t73.5 106.5t106.5 70.5t128.5 25.5t128 -26.5t106 -72.5t74 -106.5t28 -130.5t-27 -130t-73 -106.5t-106.5 -73t-129.5 -26.5q-135 0 -238 96 q-98 99 -98 240zM1174 344q0 -78 51 -127t125 -49t125 49t51 127q0 76 -52.5 126t-125.5 50q-72 0 -123 -50t-51 -126z" />
<glyph unicode="&#x26;" horiz-adv-x="1210" d="M113 408q0 125 66.5 221t199.5 133v8q-219 76 -219 342q0 152 96 244q66 61 147.5 79.5t200.5 18.5q377 0 393 -342h-194q-18 160 -225 162q-225 0 -226 -189q0 -137 84 -185t193 -48h530v-180h-115v-264q-6 -127 -46 -207t-89 -121t-116.5 -65.5t-114.5 -29.5t-98 -5 q-248 0 -373 143q-94 105 -94 285zM305 422q0 -131 74 -196.5t213 -65.5q106 0 179 57t81 205h2v250h-201q-178 0 -263 -55.5t-85 -194.5z" />
<glyph unicode="'" horiz-adv-x="323" d="M72 1434h180l-21 -451h-139z" />
<glyph unicode="(" horiz-adv-x="790" d="M154 645q0 248 104 494.5t338 421.5l102 -111q-365 -279 -364 -795q0 -524 364 -815l-94 -123q-240 178 -345 426t-105 502z" />
<glyph unicode=")" horiz-adv-x="790" d="M92 -172q365 291 365 795q0 524 -365 815l94 123q238 -178 344.5 -427t106.5 -501q0 -248 -104.5 -495t-337.5 -421z" />
<glyph unicode="*" horiz-adv-x="954" d="M92 893l270 145l-270 142l78 127l254 -172l-25 299h156l-25 -299l254 172l78 -127l-270 -142l270 -145l-78 -127l-254 164l25 -287h-156l25 287l-254 -164z" />
<glyph unicode="+" d="M102 412v159h412v412h160v-412h411v-159h-411v-412h-160v412h-412z" />
<glyph unicode="," horiz-adv-x="442" d="M20 0l82 172h269q0 -287 -199 -489l-102 65q78 152 90 252h-140z" />
<glyph unicode="-" horiz-adv-x="593" d="M68 410v163h458v-163h-458z" />
<glyph unicode="." horiz-adv-x="346" d="M20 106q0 53 37 90t90 37t90 -36.5t37 -90.5q0 -53 -36.5 -89.5t-90.5 -36.5q-53 0 -90 36q-37 37 -37 90z" />
<glyph unicode="/" horiz-adv-x="720" d="M-61 -20l663 1474h180l-663 -1474h-180z" />
<glyph unicode="0" horiz-adv-x="1212" d="M113 723q0 135 17 267t69.5 234.5t149.5 166t257 63.5q166 0 264.5 -65.5t148.5 -170t65.5 -235.5t15.5 -260q0 -135 -16.5 -268t-68.5 -238.5t-149.5 -171t-259.5 -65.5q-135 0 -223 44t-142.5 117.5t-81 169t-38.5 195.5q-4 47 -6 102.5t-2 114.5zM309 723 q0 -336 62 -449q66 -115 235 -114q86 0 142.5 24.5t91 87t49 172t14.5 279.5q0 168 -14.5 277.5t-49 173t-91 88t-142.5 24.5t-142 -23.5t-91 -87t-49.5 -172t-14.5 -280.5z" />
<glyph unicode="1" horiz-adv-x="651" d="M51 1241l86 193h371v-1434h-193v1241h-264z" />
<glyph unicode="2" horiz-adv-x="1089" d="M66 1171q154 281 442 281q215 0 337 -106.5t122 -298.5q0 -137 -49.5 -226.5t-163 -181.5t-159.5 -129t-113.5 -95.5t-121 -120t-67.5 -101.5h661v-193h-868v90q0 43 9 86t41 109.5t101.5 155.5t360.5 311q162 125 162 305q0 88 -63.5 148.5t-182.5 60.5 q-190 0 -297 -222z" />
<glyph unicode="3" horiz-adv-x="1089" d="M66 260l151 150q23 -117 101.5 -183.5t203.5 -66.5q281 0 281 291q0 260 -318 260h-114v192q125 39 221 128t139 210h-598v193h791v-43q0 -344 -265 -506q172 -39 262.5 -151.5t90.5 -282.5q0 -221 -132 -346t-352 -125q-190 0 -309.5 71.5t-152.5 208.5z" />
<glyph unicode="4" horiz-adv-x="1159" d="M92 326v90q0 260 246 573l373 445h192v-928h164v-180h-164v-326h-192v326h-619zM285 506h426v657l-228 -262q-178 -243 -198 -395z" />
<glyph unicode="5" horiz-adv-x="1089" d="M66 260l161 88q55 -100 118 -144t177 -44q131 0 206 73.5t75 227.5q0 156 -70.5 223.5t-206.5 67.5h-358v682h786v-193h-606v-309h178q238 0 362 -122t124 -349q0 -223 -133.5 -352t-350.5 -129q-190 0 -309.5 71.5t-152.5 208.5z" />
<glyph unicode="6" horiz-adv-x="1165" d="M92 717q0 328 189.5 522.5t517.5 194.5h119v-181h-144q-233 0 -360 -135t-127 -401q0 -301 76.5 -433t242.5 -132q113 0 178.5 77.5t65.5 231.5q0 270 -232 270q-98 0 -188 -24v165q98 37 201 37q195 0 308.5 -119.5t113.5 -328.5q0 -223 -121 -352t-320 -129 q-272 0 -396 176t-124 561z" />
<glyph unicode="7" horiz-adv-x="919" d="M31 1253v181h817v-43q0 -156 -42 -291t-102.5 -239.5t-122 -211t-103.5 -250t-42 -309.5v-90h-200v90q0 160 35.5 299t90 243.5t110.5 198t107.5 204t69.5 218.5h-618z" />
<glyph unicode="8" horiz-adv-x="1142" d="M113 377q0 291 223 366v9q-193 88 -193 317q0 78 27 148.5t81 123t134 83t186 30.5t186.5 -30.5t134.5 -83t80.5 -123t26.5 -148.5q0 -229 -192 -317v-9q223 -76 223 -366q0 -84 -27.5 -157t-85 -126t-143.5 -83.5t-203 -30.5t-202.5 30.5t-143 83.5t-85 126t-27.5 157z M311 401q0 -117 64.5 -189.5t195.5 -72.5q260 0 260 262q0 127 -67.5 199t-192.5 72q-127 0 -193.5 -72t-66.5 -199zM336 1044q0 -113 65.5 -173t169.5 -60t170 60.5t66 172.5q0 106 -55.5 178t-180.5 72t-180 -72t-55 -178z" />
<glyph unicode="9" horiz-adv-x="1165" d="M92 973q0 223 121 352t319 129q272 0 396.5 -176t124.5 -561q0 -328 -189.5 -522.5t-517.5 -194.5h-119v180h144q233 0 360 135.5t127 401.5q0 301 -76.5 433t-242.5 132q-113 0 -178.5 -78t-65.5 -231q0 -270 231 -271q98 0 189 25v-166q-98 -37 -201 -37 q-195 0 -308.5 120t-113.5 329z" />
<glyph unicode=":" horiz-adv-x="346" d="M20 106.5q0 53.5 37 90t90.5 36.5t90 -36.5t36.5 -90t-36.5 -90t-90 -36.5t-90.5 36q-37 37 -37 90.5zM20 864.5q0 53.5 37 90t90.5 36.5t90 -36.5t36.5 -90t-36.5 -90.5t-90 -37t-90.5 37t-37 90.5z" />
<glyph unicode=";" horiz-adv-x="526" d="M20 0l82 172h269q0 -287 -199 -489l-102 65q78 152 90 252h-140zM96 864.5q0 53.5 37 90t90 36.5t90 -36.5t37 -90t-37 -90.5t-90 -37t-90 37t-37 90.5z" />
<glyph unicode="&#x3c;" horiz-adv-x="946" d="M72 420v143l741 328v-164l-543 -235l543 -236v-164z" />
<glyph unicode="=" d="M102 209v160h983v-160h-983zM102 614v160h983v-160h-983z" />
<glyph unicode="&#x3e;" horiz-adv-x="946" d="M133 92v164l543 236l-543 235v164l741 -328v-143z" />
<glyph unicode="?" horiz-adv-x="1081" d="M154 1030q0 82 30.5 148.5t84 113.5t123 73t149.5 26q78 0 147.5 -25t122.5 -72t85 -116.5t32 -159.5q0 -66 -22.5 -124t-56.5 -111.5t-74 -101.5t-73.5 -93t-56 -89t-22.5 -87h-199q0 41 6 68.5t21.5 55t43 60.5t68.5 84l68 84q109 135 108 231q0 51 -17 92t-46 69 t-67 43t-81 15q-80 0 -138 -50t-58 -142q0 -80 63 -141l-119 -121q-122 88 -122 270zM401 106q0 53 37 90t90 37t90 -36.5t37 -90.5q0 -53 -36.5 -89.5t-90.5 -36.5q-53 0 -90 36q-37 37 -37 90z" />
<glyph unicode="@" horiz-adv-x="1605" d="M113 713q0 225 113.5 392t287.5 259q152 80 336 80q164 0 299 -64q143 -72 243.5 -210t100.5 -334q0 -199 -95 -340.5t-222 -141.5q-154 0 -154 199v98q0 272 -201 273q-90 0 -142 -62.5t-52 -152.5q0 -88 59 -143.5t145 -55.5q76 0 134 45v-160q-61 -41 -150 -41 q-147 0 -248.5 98.5t-101.5 260.5q0 223 197 325q74 41 172 41q176 0 274 -131q76 -100 76 -303v-82q0 -45 28 -45q43 0 80 92t37 207q0 279 -227 412h2q-117 61 -270 61q-145 0 -277 -73q-125 -74 -204 -209.5t-79 -302.5q0 -248 164 -411t414 -163q139 0 227 34t197 116 v-166q-182 -139 -416 -140q-311 0 -529 214.5t-218 523.5z" />
<glyph unicode="A" horiz-adv-x="1245" d="M123 0v901q0 221 142.5 377t367.5 156h469v-1434h-193v1253h-276q-150 0 -239 -88t-89 -280v-174q115 121 328 120h186v-180h-186q-119 0 -193.5 -28.5t-134.5 -98.5v-524h-182z" />
<glyph unicode="B" horiz-adv-x="1214" d="M133 0v977q0 211 136.5 344t336.5 133q221 0 333 -111.5t112 -273.5q0 -207 -193 -297v-8q264 -76 264 -367q0 -397 -469 -397h-256v180h254q141 0 207 57.5t66 184.5q0 111 -71 170t-191 59h-203v170h131q111 0 189.5 60.5t78.5 162.5q0 98 -60.5 164t-195.5 66 q-123 0 -200.5 -77t-77.5 -224v-973h-191z" />
<glyph unicode="C" horiz-adv-x="1075" d="M123 717q2 342 189.5 529.5t516.5 187.5h134v-181h-158q-227 0 -349 -150.5t-126 -385.5q4 -236 126 -386.5t349 -150.5h158v-180h-134q-330 0 -517 187.5t-189 529.5z" />
<glyph unicode="D" horiz-adv-x="1251" d="M143 0v1434h279q330 0 517 -187.5t189 -529.5q-2 -342 -189 -529.5t-517 -187.5h-279zM336 180h110q227 0 349.5 150.5t126.5 386.5q-4 236 -126 386t-350 150h-110v-1073z" />
<glyph unicode="E" horiz-adv-x="1040" d="M133 0v1092q0 152 96 243q66 61 148 80t201 19h370v-181h-397q-225 0 -225 -188v-234h473v-180h-473v-471h622v-180h-815z" />
<glyph unicode="F" horiz-adv-x="835" d="M133 0v1092q0 152 96 243q66 61 148 80t201 19h217v-181h-244q-225 0 -225 -188v-274h381v-181h-381v-610h-193z" />
<glyph unicode="G" horiz-adv-x="1257" d="M123 717q2 342 189.5 529.5t516.5 187.5h236v-181h-260q-227 0 -349 -150.5t-126 -385.5q4 -236 126 -386.5t349 -150.5h147v430h-211v181h404v-791h-316q-330 0 -517 187.5t-189 529.5z" />
<glyph unicode="H" horiz-adv-x="1294" d="M143 0v1434h193v-603h622v603h193v-1434h-193v651h-622v-651h-193z" />
<glyph unicode="I" horiz-adv-x="479" d="M143 0v1434h193v-1434h-193z" />
<glyph unicode="J" horiz-adv-x="784" d="M72 0v180h161q225 0 226 189v884h-381v181h573v-1092q0 -152 -96 -244q-66 -61 -147.5 -79.5t-200.5 -18.5h-135z" />
<glyph unicode="K" horiz-adv-x="1122" d="M143 0v1434h193v-584q152 -4 180 -8l289 592h209l-324 -637q330 -121 330 -541v-256h-197v256q0 231 -101 326.5t-386 97.5v-680h-193z" />
<glyph unicode="L" horiz-adv-x="987" d="M143 487v947h193v-942q0 -119 26 -187q53 -125 224 -125h350v-180h-299q-84 0 -132 3t-120 24.5t-121 64.5q-76 70 -98.5 167t-22.5 228z" />
<glyph unicode="M" horiz-adv-x="1630" d="M143 0v1434q223 0 333 -77t165 -280l168 -633h12l168 633q53 205 164 281t334 76v-1434h-193v1217q-53 -23 -80.5 -64t-52.5 -123l-256 -878h-180l-258 878q-25 84 -51.5 124t-79.5 63v-1217h-193z" />
<glyph unicode="N" horiz-adv-x="1286" d="M143 0v1434h506q254 0 379 -114t125 -357v-963h-192v989q0 139 -85 201.5t-225 62.5h-315v-1253h-193z" />
<glyph unicode="O" horiz-adv-x="1593" d="M123 711q2 170 51 307t137 234.5t211 149.5t275 52q150 0 273.5 -52t211.5 -149.5t137 -234.5t51 -307q-2 -170 -50 -305.5t-136 -229.5t-212 -145t-275 -51q-152 0 -276 51t-212 145t-136 229.5t-50 305.5zM330 711q2 -117 33.5 -217.5t92 -174t146.5 -116.5t195 -43 t194.5 43t146 116.5t92.5 174t34 217.5q-2 115 -34 217t-92.5 179t-146.5 122t-194 45q-109 0 -195 -45t-146.5 -122t-92 -179t-33.5 -217z" />
<glyph unicode="P" horiz-adv-x="1161" d="M133 0v942q0 242 130 377t345 135q229 0 355.5 -131t126.5 -334q0 -127 -46.5 -221t-124 -145.5t-165.5 -76t-185 -24.5h-153v180h176q137 0 216 83t79 208q0 123 -73 202t-208 79q-131 0 -205.5 -89t-74.5 -235v-950h-193z" />
<glyph unicode="Q" horiz-adv-x="1593" d="M123 711q2 170 51 307t137 234.5t211 149.5t275 52q150 0 273.5 -52t211.5 -149.5t137 -234.5t51 -307q-2 -264 -112.5 -441.5t-308.5 -249.5q63 -53 129.5 -98t158.5 -45h142v-182h-146q-109 0 -185.5 44t-138 98t-117.5 98.5t-124 44.5l-2 2q-145 4 -264 57t-202 147.5 t-129 227.5t-48 297zM330 711q2 -117 33.5 -217.5t92 -174t146.5 -116.5t195 -43t194.5 43t146 116.5t92.5 174t34 217.5q-2 115 -34 217t-92.5 179t-146.5 122t-194 45q-109 0 -195 -45t-146.5 -122t-92 -179t-33.5 -217z" />
<glyph unicode="R" horiz-adv-x="1175" d="M133 0v932q0 248 122 385t347 137q227 0 349 -110.5t122 -311.5q0 -129 -61.5 -211t-208.5 -129v-8q154 -59 206 -168.5t52 -361.5v-154h-193v262q0 156 -88 243t-254 87h-110v180h116q197 0 273 80t76 190q0 104 -75 168t-198 64q-141 0 -211.5 -80t-70.5 -262v-932 h-193z" />
<glyph unicode="S" horiz-adv-x="1032" d="M92 1092q0 172 110.5 257t289.5 85h374v-181h-362q-207 0 -207 -168q0 -90 91 -152.5t247 -119.5q70 -27 119 -54.5t98 -72.5t73.5 -115.5t24.5 -162.5q0 -102 -43 -183.5t-110.5 -127.5t-138 -69.5t-138.5 -25.5q-29 -2 -82 -2h-319v180h313q139 0 227.5 58.5 t88.5 171.5q0 55 -25 97t-71 72.5t-94 53t-116 47.5q-18 6 -28 10q-322 123 -322 402z" />
<glyph unicode="T" horiz-adv-x="1003" d="M51 1253v181h901v-181h-354v-1253h-192v1253h-355z" />
<glyph unicode="U" horiz-adv-x="1275" d="M133 451v983h193v-1010q0 -139 85 -201.5t224 -62.5q143 0 229 62.5t86 201.5v1010h193v-983q0 -244 -126 -357.5t-380 -113.5t-379 113.5t-125 357.5z" />
<glyph unicode="V" horiz-adv-x="1234" d="M113 725v709h196v-684q0 -205 67.5 -344.5t244.5 -235.5q172 98 240.5 237.5t68.5 342.5v684h192v-691q0 -276 -127 -480t-377 -304q-248 98 -376.5 297t-128.5 469z" />
<glyph unicode="W" horiz-adv-x="1691" d="M113 1434h184l41 -762q18 -332 174 -488q100 86 149.5 257t92.5 542h184q57 -319 104.5 -495.5t73 -223.5t64.5 -80q156 156 174 488l41 762h184l-41 -770q-14 -270 -95 -430t-267 -275q-164 117 -227.5 288t-98.5 464h-8q-16 -305 -79 -455t-247 -297 q-186 115 -267 274.5t-95 430.5z" />
<glyph unicode="X" horiz-adv-x="1153" d="M92 0v90q0 438 316 660q-315 217 -316 659v25h193v-25q0 -410 288 -575q162 90 226.5 233t64.5 342v25h197v-43q0 -426 -316 -641q315 -219 316 -641v-109h-197v90q0 199 -64.5 342t-226.5 234q-289 -166 -288 -576v-90h-193z" />
<glyph unicode="Y" horiz-adv-x="1112" d="M92 1313v121h197v-103q0 -211 60.5 -361.5t209.5 -246.5q268 178 268 608v103h193v-103q0 -250 -93 -457.5t-272 -316.5v-557h-192v553q-178 106 -274.5 310t-96.5 450z" />
<glyph unicode="Z" horiz-adv-x="1067" d="M92 0v90q0 211 85 361.5t241 298.5q98 92 152.5 150t114.5 155.5t83 197.5h-676v181h879q0 -225 -39 -332q-88 -242 -361 -477q-129 -109 -195.5 -210.5t-82.5 -234.5h682v-180h-883z" />
<glyph unicode="[" horiz-adv-x="602" d="M154 -258v1794h356v-123h-172v-1548h172v-123h-356z" />
<glyph unicode="\" horiz-adv-x="720" d="M-61 1454h180l663 -1474h-180z" />
<glyph unicode="]" horiz-adv-x="602" d="M92 -135h172v1548h-172v123h357v-1794h-357v123z" />
<glyph unicode="^" horiz-adv-x="1183" d="M92 668l422 766h156l422 -766h-172l-328 589l-328 -589h-172z" />
<glyph unicode="_" horiz-adv-x="1159" d="M68 -113h1024v-143h-1024v143z" />
<glyph unicode="`" horiz-adv-x="512" d="M72 1337l127 127l241 -303l-106 -86z" />
<glyph unicode="a" horiz-adv-x="1030" d="M92 305.5q0 149.5 108.5 227t272.5 77.5q92 0 197 -32v-185q-78 59 -191 60q-96 0 -149.5 -38t-53.5 -108q0 -135 201 -135h271v391q0 248 -242 248h-328v172h338q199 0 305.5 -98.5t106.5 -282.5v-602h-457q-174 0 -276.5 78t-102.5 227.5z" />
<glyph unicode="b" horiz-adv-x="1218" d="M123 492v942h184v-942q0 -162 83 -251t228 -89q152 0 238 87t86 253q0 158 -93 248.5t-245 90.5q-129 0 -223 -73v184q113 61 244 62q217 0 359 -140.5t142 -371.5q0 -244 -148.5 -378t-373.5 -134q-215 0 -348 139.5t-133 372.5z" />
<glyph unicode="c" horiz-adv-x="968" d="M92 492q0 215 144.5 363.5t357.5 148.5q182 0 324 -115l-121 -123q-86 66 -203 65q-141 0 -224 -93t-83 -246.5t83 -246.5t224 -93q119 0 201 63l123 -121q-141 -115 -324 -114q-227 0 -364.5 146.5t-137.5 365.5z" />
<glyph unicode="d" horiz-adv-x="1198" d="M92 502q0 213 144.5 357.5t343.5 144.5q127 0 237 -62v-184q-102 74 -237 73q-123 0 -208 -91t-85 -238q0 -150 81 -240t226 -90h297v1262h184v-1434h-481q-223 0 -362.5 142.5t-139.5 359.5z" />
<glyph unicode="e" horiz-adv-x="1034" d="M92 471q0 242 137 391q130 142 351 142h24q348 -14 348 -289q0 -342 -448 -342h-84v157h98q137 0 190.5 42t53.5 141q0 63 -47 95t-121 32q-145 0 -228 -102.5t-83 -245.5q0 -152 89 -246t232 -94q129 0 211 63l123 -121q-141 -115 -334 -114q-233 0 -372.5 137 t-139.5 354z" />
<glyph unicode="f" horiz-adv-x="647" d="M47 811l82 172h57q0 209 141.5 331t360.5 122v-172q-317 0 -317 -281h235v-172h-235v-811h-185v811h-139z" />
<glyph unicode="g" horiz-adv-x="1208" d="M92 481q0 213 144.5 357.5t357.5 144.5h481v-954q0 -92 -23.5 -166t-66.5 -125t-78 -80t-84 -59q-127 -66 -309 -66h-229v172h211q180 0 256 45q139 78 139 258v803h-297q-145 0 -231.5 -90t-86.5 -240q0 -143 89.5 -226t214.5 -83q135 0 237 74v-185q-111 -61 -237 -61 q-201 0 -344.5 135t-143.5 346z" />
<glyph unicode="h" horiz-adv-x="1060" d="M123 0v1434h180v-451h174q227 0 326 -68q88 -59 111.5 -142t23.5 -218v-555h-180v553q0 37 -2 62.5t-14.5 65.5t-35 65.5t-65.5 45t-104 19.5h-234v-811h-180z" />
<glyph unicode="i" horiz-adv-x="540" d="M41 811l82 172h266v-983h-180v811h-168zM174 1264q0 41 26.5 74.5t82 33.5t82 -33.5t26.5 -74.5t-26.5 -75t-82 -34t-81.5 33q-27 35 -27 76z" />
<glyph unicode="j" horiz-adv-x="487" d="M-82 -295q57 0 93 6t73 25.5t54.5 65.5t17.5 120v889h-168l82 172h266v-1061q0 -213 -94.5 -301t-323.5 -88v172zM121 1264q0 41 26.5 74.5t82 33.5t82 -33.5t26.5 -74.5t-26.5 -75t-82 -34t-82.5 33q-26 35 -26 76z" />
<glyph unicode="k" horiz-adv-x="983" d="M123 0v1434h180v-842q43 6 86 6l86 -6l213 391h199l-248 -428q252 -68 252 -408v-147h-180v150q0 137 -81 211.5t-231 74.5q-47 0 -96 -6v-430h-180z" />
<glyph unicode="l" horiz-adv-x="552" d="M123 389v1045h184v-1045q0 -74 17.5 -120t54.5 -65.5t71.5 -25.5t92.5 -6v-172q-229 0 -324.5 88t-95.5 301z" />
<glyph unicode="m" horiz-adv-x="1533" d="M133 0v983h903q145 0 232 -55q88 -55 115.5 -143.5t27.5 -211.5v-573h-180v573q0 160 -96 211q-49 27 -199 27h-84v-811h-180v811h-359v-811h-180z" />
<glyph unicode="n" horiz-adv-x="1071" d="M133 0v983h354q227 0 326 -68q88 -59 111.5 -142t23.5 -218v-555h-180v553q0 37 -2 62.5t-14.5 65.5t-35 65.5t-65.5 45t-104 19.5h-234v-811h-180z" />
<glyph unicode="o" d="M92 492q0 217 144 362q143 150 358 150q104 0 195.5 -40t160 -110t107.5 -163t39 -199t-38 -199.5t-105.5 -163.5t-160 -109.5t-198.5 -39.5q-109 0 -200 39.5t-158.5 109.5t-105.5 163.5t-38 199.5zM276 491.5q0 -151.5 87.5 -245.5t230.5 -94q145 0 231 95t86 244.5 t-86 244.5t-231 95q-143 0 -230.5 -94t-87.5 -245.5z" />
<glyph unicode="p" horiz-adv-x="1218" d="M123 -467v959q0 106 39 200t106.5 163t159.5 109t197 40q104 0 195 -40t160 -110t107.5 -163t38.5 -199t-37.5 -199.5t-105.5 -163.5t-160 -109.5t-198 -39.5q-131 0 -244 61v184q100 -74 237 -73q74 0 134.5 25.5t102.5 70.5t64.5 107.5t22.5 136.5t-22.5 136t-63.5 107 t-99.5 70.5t-131.5 25.5q-72 0 -130.5 -24.5t-100.5 -69.5t-64.5 -107.5t-22.5 -137.5v-959h-184z" />
<glyph unicode="q" horiz-adv-x="1189" d="M92 492q0 106 39 200t106.5 163t159.5 109t197 40q111 0 203 -32t158.5 -96.5t103.5 -161t37 -222.5v-959h-185v959q0 340 -317 339q-74 0 -132.5 -25.5t-99 -70.5t-63.5 -107.5t-23 -135.5q0 -74 23 -136.5t63.5 -107.5t99 -70.5t132.5 -25.5q135 0 237 73v-184 q-111 -61 -237 -61q-109 0 -200 39.5t-158.5 109.5t-105.5 163.5t-38 199.5z" />
<glyph unicode="r" horiz-adv-x="708" d="M92 0v559q0 236 88 326q43 45 104.5 67.5t107.5 26.5t126 4h180v-172h-217q-41 0 -63.5 -2t-53 -14.5t-53.5 -38.5q-39 -49 -39 -197v-559h-180z" />
<glyph unicode="s" horiz-adv-x="927" d="M113 725q0 125 96 191.5t233 66.5h363v-172h-363q-59 0 -102 -22.5t-43 -63.5q0 -25 10 -44t23.5 -31.5t41 -26t43 -18.5t130 -42t170 -61.5t85 -66.5t38 -82t8.5 -79q0 -274 -377 -274h-354v172h354q193 0 193 102q0 49 -56.5 82t-137.5 55.5t-162 52.5t-137 96.5 t-56 164.5z" />
<glyph unicode="t" horiz-adv-x="735" d="M20 811l367 367v-195h277v-172h-277v-422q0 -72 23.5 -119t68.5 -66.5t85 -25.5t100 -6v-172q-236 0 -348.5 90t-112.5 299v422h-183z" />
<glyph unicode="u" horiz-adv-x="1071" d="M123 428v555h180v-553q0 -37 2 -62.5t14.5 -65.5t35 -65.5t65.5 -45t104 -19.5h234v811h180v-983h-354q-227 0 -326 68q-88 59 -111.5 142t-23.5 218z" />
<glyph unicode="v" horiz-adv-x="950" d="M51 983h189q80 -494 235 -747q156 254 236 747h188q-82 -438 -165 -639t-259 -367q-176 166 -259 367t-165 639z" />
<glyph unicode="w" horiz-adv-x="1392" d="M72 983h182l16 -293q18 -336 133 -487q31 35 57.5 78t45 95t32 92t24.5 102.5t15.5 91t11.5 92t9 71.5h197q2 -8 9 -71.5t11 -92t15.5 -91t24.5 -102.5t31.5 -92t45 -95t57.5 -78q115 152 133 487l17 293h182l-14 -301q-14 -268 -97.5 -450.5t-224.5 -251.5 q-152 117 -203 235.5t-75 349.5h-21q-25 -231 -76 -350t-202 -235q-141 70 -224.5 252t-97.5 450z" />
<glyph unicode="x" horiz-adv-x="952" d="M72 0v61q0 287 221 451q-221 166 -221 455v16h180v-16q0 -117 56.5 -213.5t162.5 -149.5q219 102 219 350v29h180v-29q0 -276 -221 -442q106 -78 163.5 -193.5t57.5 -244.5v-74h-180v74q0 115 -55 207t-164 141q-106 -51 -162.5 -147.5t-56.5 -213.5v-61h-180z" />
<glyph unicode="y" horiz-adv-x="1019" d="M92 477v506h180v-514q0 -166 51.5 -231.5t188.5 -65.5h215v811h180v-934q0 -256 -134 -386t-421 -130h-147v172h129q375 0 393 295h-172q-268 0 -365.5 94t-97.5 383z" />
<glyph unicode="z" horiz-adv-x="872" d="M72 0v82q0 98 44 187t110.5 157t135 127t131 124.5t85.5 125.5h-504v180h712v-100q0 -90 -44 -172t-111.5 -147.5t-138 -125t-135 -127t-91.5 -131.5h535v-180h-729z" />
<glyph unicode="{" horiz-adv-x="774" d="M154 578v122q78 8 119.5 74t41.5 158v354q0 119 62.5 184.5t167.5 65.5h137v-94h-88q-29 0 -46.5 -6t-34.5 -44t-17 -114v-381q0 -182 -162 -258q72 -20 117 -88t45 -172v-379q0 -57 9 -93t26.5 -50.5t28.5 -17.5t28 -3h94v-94h-162q-88 0 -146.5 73.5t-58.5 176.5v356 q0 88 -41.5 154t-119.5 76z" />
<glyph unicode="|" horiz-adv-x="450" d="M154 0v1434h143v-1434h-143z" />
<glyph unicode="}" horiz-adv-x="833" d="M92 -164h94q16 0 27.5 3t29 17.5t27 50.5t9.5 93v371q0 90 32.5 156.5t128.5 111.5q-162 49 -161 276v363q0 57 -9.5 93t-27 50.5t-28.5 17.5t-28 3h-94v94h162q88 0 146.5 -73.5t58.5 -176.5v-356q0 -88 42 -153.5t120 -76.5v-122q-78 -8 -120 -73t-42 -151v-362 q0 -102 -58.5 -176t-146.5 -74h-162v94z" />
<glyph unicode="~" horiz-adv-x="1253" d="M154 463q82 176 256 176q80 0 258 -80q137 -59 174 -59q59 0 108 46t76 101l74 -127q-111 -176 -258 -176q-76 0 -203 66q-143 74 -231 73q-121 0 -181 -147z" />
<glyph unicode="&#xa1;" horiz-adv-x="561" d="M154 858q0 53 36.5 90t90.5 37q53 0 90 -37t37 -90t-37 -90t-90 -37t-91 37q-36 37 -36 90zM164 -385q0 12 8 123.5t17.5 339t9.5 516.5h172q0 -289 7 -516.5t13 -339t6 -123.5q0 -106 -116.5 -106t-116.5 106z" />
<glyph unicode="&#xa2;" horiz-adv-x="968" d="M92 491.5q0 178.5 102.5 314.5t266.5 179v244h164v-228q164 -8 293 -112l-121 -123q-78 57 -172 63v-677q100 10 170 63l123 -121q-129 -104 -293 -112v-187h-164v203q-164 43 -266.5 179t-102.5 314.5zM287 491.5q0 -112.5 46 -194.5t128 -119v627q-82 -37 -128 -119 t-46 -194.5z" />
<glyph unicode="&#xa3;" horiz-adv-x="1122" d="M90 0v180h31q76 0 103.5 52.5t27.5 154.5v272h-135v181h135v161q0 205 114.5 331t313.5 126q135 0 248 -49l-64 -174q-104 43 -180 43q-104 0 -172 -65.5t-68 -194.5v-178h344v-181h-344v-256q0 -53 -1 -76.5t-17 -68.5t-51 -78h293q113 0 183.5 67.5t70.5 176.5v151h192 v-137q0 -197 -106.5 -317.5t-282.5 -120.5h-635z" />
<glyph unicode="&#xa4;" horiz-adv-x="1218" d="M188 377l93 96q-84 102 -84 243.5t84 244.5l-93 96l80 80l92 -99q102 90 248 90t248 -90l92 99l80 -80l-92 -96q84 -102 84 -244t-84 -244l92 -96l-80 -80l-92 98q-102 -90 -247.5 -90t-248.5 90l-92 -98zM360 716.5q0 -104.5 73 -180t175.5 -75.5t175 75.5t72.5 180 t-72.5 180.5t-175 76t-176.5 -76q-72 -76 -72 -180.5z" />
<glyph unicode="&#xa5;" horiz-adv-x="1112" d="M92 1313v121h197v-103q0 -211 60.5 -361.5t209.5 -246.5q268 178 268 608v103h193v-103q0 -393 -209 -639h195v-160h-351v-102h351v-160h-351v-270h-192v270h-359v160h359v102h-359v160h195q-207 242 -207 621z" />
<glyph unicode="&#xa6;" horiz-adv-x="450" d="M154 0v578h143v-578h-143zM154 856v578h143v-578h-143z" />
<glyph unicode="&#xa7;" horiz-adv-x="1009" d="M113 59h446q111 0 111 82q0 29 -12.5 51.5t-40 44t-51 35t-68.5 35.5l-70 35q-57 33 -99 62.5t-90.5 75.5t-74 103.5t-25.5 123.5q0 104 64.5 171.5t165.5 69.5q-94 55 -138.5 116.5t-44.5 147.5q0 104 78 175t244 71h354v-172h-379q-113 0 -112 -76q0 -27 12 -49 t40 -43.5t52.5 -36t68.5 -37t68 -36.5q137 -78 211 -165t74 -210q0 -96 -52 -166t-149 -86q74 -41 116 -105.5t42 -138.5q0 -43 -13.5 -82t-46 -78.5t-101 -64.5t-163.5 -25h-417v172zM309 719q0 -88 97.5 -165t173.5 -77q55 0 99 37t44 107q0 76 -66.5 143t-142.5 90 q-37 10 -61 10q-66 0 -105 -41t-39 -104z" />
<glyph unicode="&#xa8;" horiz-adv-x="741" d="M72 1278q0 49 32.5 82t82 33t82 -33t32.5 -82t-32.5 -82t-82 -33t-82.5 33q-32 33 -32 82zM440 1278q0 49 33 82t82 33t82 -33t33 -82t-33 -82t-82 -33t-82 33t-33 82z" />
<glyph unicode="&#xa9;" horiz-adv-x="1675" d="M113 717q0 160 57 295t155.5 234.5t230.5 155.5t282 56t281.5 -56t230 -155.5t156 -236t57.5 -293.5q0 -158 -57.5 -294t-156 -235.5t-230.5 -156t-281 -56.5q-303 0 -514 211q-211 212 -211 531zM256 717q0 -125 43 -236.5t120 -194.5t184.5 -131.5t234.5 -48.5 q125 0 232.5 49.5t184 132.5t120.5 193.5t44 235.5t-43 235.5t-120.5 193.5t-184 132t-233.5 49t-233.5 -49t-184.5 -132t-121 -193.5t-43 -235.5zM444 690q0 106 48.5 200.5t136.5 153.5q70 49 140.5 62.5t168.5 13.5h90v-151h-90q-152 0 -225 -58q-102 -76 -103 -221 q0 -115 81 -197.5t227 -82.5h110v-152h-115q-223 0 -346 129t-123 303z" />
<glyph unicode="&#xaa;" horiz-adv-x="731" d="M80 981q0 100 72.5 152.5t181.5 52.5q49 0 88 -17v-112q-49 16 -88 16q-119 0 -119 -92q0 -68 119 -68h168v267q0 119 -140 118h-225v136h225q133 0 204 -65.5t71 -188.5v-402h-303q-117 0 -185.5 52.5t-68.5 150.5z" />
<glyph unicode="&#xab;" horiz-adv-x="985" d="M113 492l256 315h196l-256 -315l256 -316h-196zM502 492l256 315h196l-256 -315l256 -316h-196z" />
<glyph unicode="&#xac;" d="M102 512v160h983v-443h-159v283h-824z" />
<glyph unicode="&#xad;" horiz-adv-x="593" d="M68 410v163h458v-163h-458z" />
<glyph unicode="&#xae;" horiz-adv-x="1669" d="M113 717q0 160 57 295t155.5 234.5t230.5 155.5t282 56t281.5 -56t230 -155.5t156 -236t57.5 -293.5q0 -158 -57.5 -294t-156 -235.5t-230.5 -156t-281 -56.5q-303 0 -514 211q-211 212 -211 531zM256 717q0 -125 43 -236.5t120 -194.5t184.5 -131.5t234.5 -48.5 q125 0 232.5 49.5t184 132.5t120.5 193.5t44 235.5t-43 235.5t-120.5 193.5t-184 132t-233.5 49t-233.5 -49t-184.5 -132t-121 -193.5t-43 -235.5zM545 289v536q0 45 4 78t15 76t40 79t74 60q82 37 149 37q104 0 172 -47q106 -74 107 -213q0 -102 -78 -168q92 -47 92 -176 v-262h-149v229q0 41 -11.5 68.5t-33 39t-40 15.5t-44.5 4h-84v141h51q78 0 112.5 34t34.5 83t-35.5 80t-95.5 31q-131 0 -131 -168v-557h-149z" />
<glyph unicode="&#xaf;" horiz-adv-x="593" d="M-20 1171v140h634v-140h-634z" />
<glyph unicode="&#xb0;" horiz-adv-x="694" d="M113 1243q0 102 66.5 169t166.5 67q49 0 92 -18.5t75 -50.5t50.5 -75t18.5 -92q0 -100 -66.5 -166.5t-169.5 -66.5q-98 0 -168 65q-65 70 -65 168zM246 1243q0 -43 28.5 -71.5t71.5 -28.5q45 0 74 28.5t29 71.5q0 45 -29 74t-74 29q-43 0 -71.5 -29t-28.5 -74z" />
<glyph unicode="&#xb1;" d="M102 0v160h983v-160h-983zM102 526v160h412v297h160v-297h411v-160h-411v-297h-160v297h-412z" />
<glyph unicode="&#xb2;" horiz-adv-x="595" d="M66 1325q82 129 239 129q98 0 153.5 -58.5t55.5 -152.5q0 -53 -22.5 -92t-85.5 -102q-41 -41 -91.5 -86t-60.5 -56h274v-129h-436v41q0 51 34 104.5t64.5 82t128.5 116.5q41 37 51.5 60.5t10.5 64.5q0 37 -20.5 61.5t-63.5 24.5q-80 0 -117 -76z" />
<glyph unicode="&#xb3;" horiz-adv-x="577" d="M45 903l109 53q10 -37 42.5 -60.5t75.5 -23.5q117 0 117 103q0 106 -133 106h-53v105q98 33 147 119h-260v129h399v-21q0 -147 -118 -242q150 -41 149 -196q0 -100 -70.5 -159.5t-175.5 -59.5q-86 0 -149.5 40.5t-79.5 106.5z" />
<glyph unicode="&#xb4;" horiz-adv-x="512" d="M72 1161l241 303l127 -127l-262 -262z" />
<glyph unicode="&#xb5;" horiz-adv-x="1019" d="M96 -465v1448h180v-512q0 -299 222 -299q70 0 113.5 28.5t67 69.5t32 88.5t8.5 83.5v541h180v-985h-180v119q-86 -117 -221 -117t-222 117v-582h-180z" />
<glyph unicode="&#xb6;" horiz-adv-x="1220" d="M92 1069q0 365 490 365h485v-1434h-172v1253h-137v-1253h-172v709h-31q-119 0 -208 28.5t-136 67.5t-76 93t-36 93t-7 78z" />
<glyph unicode="&#xb7;" horiz-adv-x="397" d="M71 741q0 53 37 90t90 37t90 -36.5t37 -90.5q0 -53 -36.5 -89.5t-90.5 -36.5q-53 0 -90 36q-37 37 -37 90z" />
<glyph unicode="&#xb8;" horiz-adv-x="444" d="M72 -418l39 84q76 -33 143 -33q119 0 119 91q0 35 -27 60.5t-76 25.5q-45 0 -82 -17l-38 43l73 184h125l-57 -135q33 6 65 6q102 0 141.5 -49t39.5 -110q0 -86 -67 -142.5t-185 -56.5q-98 0 -213 49z" />
<glyph unicode="&#xb9;" horiz-adv-x="501" d="M113 1305l39 129h227v-656h-146v527h-120z" />
<glyph unicode="&#xba;" horiz-adv-x="870" d="M113 1104q0 143 98 246q98 102 242 102q72 0 133 -27.5t107 -76t73 -111.5t27 -133q0 -72 -26 -134.5t-72 -109.5t-108.5 -74.5t-133.5 -27.5q-72 0 -134.5 27.5t-108.5 74.5t-71.5 109.5t-25.5 134.5zM264 1104q0 -39 14.5 -75t40 -62.5t59.5 -42t75 -15.5t75.5 16.5 t59 43t39 62.5t14.5 73q0 78 -55 137q-53 59 -133 59q-41 0 -75 -16t-59.5 -44t-40 -62.5t-14.5 -73.5z" />
<glyph unicode="&#xbb;" horiz-adv-x="985" d="M31 176l256 316l-256 315h196l256 -315l-256 -316h-196zM420 176l256 316l-256 315h196l256 -315l-256 -316h-196z" />
<glyph unicode="&#xbc;" horiz-adv-x="1370" d="M242 0l678 1434h166l-674 -1434h-170zM113 1305l39 129h227v-656h-146v527h-120zM725 154v41q0 41 21.5 86t44 76.5t71.5 91.5l176 213h136v-404h83v-104h-83v-148h-136v148h-313zM870 258h168v230l-71 -86q-79 -91 -97 -144z" />
<glyph unicode="&#xbd;" horiz-adv-x="1380" d="M113 1305l39 129h227v-656h-146v527h-120zM805 549q82 129 239 129q98 0 153.5 -58.5t55.5 -152.5q0 -53 -22.5 -92t-85.5 -102q-41 -41 -91.5 -86t-60.5 -56h274v-129h-436v41q0 51 34 104.5t64.5 82t128.5 116.5q41 37 51.5 60.5t10.5 64.5q0 37 -20.5 61.5t-63.5 24.5 q-80 0 -117 -76zM242 0l678 1434h166l-674 -1434h-170z" />
<glyph unicode="&#xbe;" horiz-adv-x="1384" d="M113 903l109 53q10 -37 42.5 -60.5t75.5 -23.5q117 0 117 103q0 106 -133 106h-53v105q98 33 147 119h-260v129h399v-21q0 -147 -118 -242q150 -41 149 -196q0 -100 -70.5 -159.5t-175.5 -59.5q-86 0 -149.5 40.5t-79.5 106.5zM739 154v41q0 41 21.5 86t44 76.5 t71.5 91.5l176 213h136v-404h83v-104h-83v-148h-136v148h-313zM884 258h168v230l-71 -86q-79 -91 -97 -144zM274 0l678 1434h166l-674 -1434h-170z" />
<glyph unicode="&#xbf;" horiz-adv-x="1081" d="M154 -70q0 180 122 271l119 -121q-63 -61 -63 -141q0 -92 58.5 -142.5t137.5 -50.5q43 0 81 15.5t67 43t46 68.5t17 92q0 49 -28.5 106.5t-79.5 123.5l-68 86q-23 29 -39 48t-24 29l-43 58q-14 18 -22.5 55t-10.5 78h199q0 -43 22.5 -87t56 -90t73.5 -95.5t74 -101.5 t56.5 -110.5t22.5 -121.5q0 -90 -32 -160t-85 -117t-123 -71.5t-147 -24.5q-80 0 -149.5 25.5t-123 72.5t-84 113.5t-30.5 148.5zM401 874q0 53 37 90t90 37t90 -36.5t37 -90.5q0 -53 -36.5 -89.5t-90.5 -36.5q-53 0 -90 36q-37 37 -37 90z" />
<glyph unicode="&#xc0;" horiz-adv-x="1245" d="M123 0v901q0 221 142.5 377t367.5 156h469v-1434h-193v1253h-276q-150 0 -239 -88t-89 -280v-174q115 121 328 120h186v-180h-186q-119 0 -193.5 -28.5t-134.5 -98.5v-524h-182zM459 1788l127 127l241 -303l-106 -86z" />
<glyph unicode="&#xc1;" horiz-adv-x="1245" d="M123 0v901q0 221 142.5 377t367.5 156h469v-1434h-193v1253h-276q-150 0 -239 -88t-89 -280v-174q115 121 328 120h186v-180h-186q-119 0 -193.5 -28.5t-134.5 -98.5v-524h-182zM561 1612l241 303l127 -127l-262 -262z" />
<glyph unicode="&#xc2;" horiz-adv-x="1245" d="M123 0v901q0 221 142.5 377t367.5 156h469v-1434h-193v1253h-276q-150 0 -239 -88t-89 -280v-174q115 121 328 120h186v-180h-186q-119 0 -193.5 -28.5t-134.5 -98.5v-524h-182zM333 1594l226 291h207l225 -291h-166l-164 192l-162 -192h-166z" />
<glyph unicode="&#xc3;" horiz-adv-x="1245" d="M123 0v901q0 221 142.5 377t367.5 156h469v-1434h-193v1253h-276q-150 0 -239 -88t-89 -280v-174q115 121 328 120h186v-180h-186q-119 0 -193.5 -28.5t-134.5 -98.5v-524h-182zM301 1586q6 92 57 163.5t158 71.5q61 0 166 -39q100 -43 147 -43q45 0 72.5 29t27.5 67h105 q-4 -98 -68.5 -166.5t-152.5 -68.5q-86 0 -191 49q-90 33 -119 33q-82 0 -98 -96h-104z" />
<glyph unicode="&#xc4;" horiz-adv-x="1245" d="M123 0v901q0 221 142.5 377t367.5 156h469v-1434h-193v1253h-276q-150 0 -239 -88t-89 -280v-174q115 121 328 120h186v-180h-186q-119 0 -193.5 -28.5t-134.5 -98.5v-524h-182zM426 1729q0 49 32.5 82t82 33t82 -33t32.5 -82t-32.5 -82t-82 -33t-82.5 33q-32 33 -32 82z M794 1729q0 49 33 82t82 33t82 -33t33 -82t-33 -82t-82 -33t-82 33t-33 82z" />
<glyph unicode="&#xc5;" horiz-adv-x="1245" d="M123 0v901q0 221 142.5 377t367.5 156h469v-1434h-193v1253h-276q-150 0 -239 -88t-89 -280v-174q115 121 328 120h186v-180h-186q-119 0 -193.5 -28.5t-134.5 -98.5v-524h-182zM484 1729q0 86 57 143.5t143 57.5t143.5 -57.5t57.5 -143.5t-57.5 -143.5t-143.5 -57.5 t-143 58q-57 57 -57 143zM586 1729q0 -41 28.5 -69.5t69.5 -28.5t69 28.5t28 69.5t-28 68.5t-69 27.5t-69 -28q-29 -27 -29 -68z" />
<glyph unicode="&#xc6;" horiz-adv-x="1818" d="M123 0v901q0 221 142.5 377t367.5 156h461v-72q84 72 217 72h405v-181h-397q-225 0 -225 -188v-234h473v-180h-473v-471h622v-180h-807v1253h-276q-150 0 -239 -88t-89 -280v-207q115 121 328 121h207v-181h-207q-119 0 -193.5 -28.5t-134.5 -97.5v-492h-182z" />
<glyph unicode="&#xc7;" horiz-adv-x="1118" d="M123 717q2 342 189.5 529.5t516.5 187.5h134v-181h-158q-227 0 -349 -150.5t-126 -385.5q4 -236 126 -386.5t349 -150.5h158v-180h-154l-49 -115q35 6 65 6q102 0 141.5 -49t39.5 -110q0 -86 -67 -142.5t-185 -56.5q-98 0 -213 49l39 84q76 -33 143 -33q119 0 119 91 q0 35 -27 60.5t-76 25.5q-45 0 -82 -17l-39 43l70 174q-266 39 -414.5 221.5t-150.5 485.5z" />
<glyph unicode="&#xc8;" horiz-adv-x="1040" d="M133 0v1092q0 152 96 243q66 61 148 80t201 19h370v-181h-397q-225 0 -225 -188v-234h473v-180h-473v-471h622v-180h-815zM353 1788l127 127l241 -303l-106 -86z" />
<glyph unicode="&#xc9;" horiz-adv-x="1040" d="M133 0v1092q0 152 96 243q66 61 148 80t201 19h370v-181h-397q-225 0 -225 -188v-234h473v-180h-473v-471h622v-180h-815zM516 1612l241 303l127 -127l-262 -262z" />
<glyph unicode="&#xca;" horiz-adv-x="1040" d="M133 0v1092q0 152 96 243q66 61 148 80t201 19h370v-181h-397q-225 0 -225 -188v-234h473v-180h-473v-471h622v-180h-815zM290 1594l226 291h207l225 -291h-166l-164 192l-162 -192h-166z" />
<glyph unicode="&#xcb;" horiz-adv-x="1040" d="M133 0v1092q0 152 96 243q66 61 148 80t201 19h370v-181h-397q-225 0 -225 -188v-234h473v-180h-473v-471h622v-180h-815zM299 1729q0 49 32.5 82t82 33t82 -33t32.5 -82t-32.5 -82t-82 -33t-82.5 33q-32 33 -32 82zM667 1729q0 49 33 82t82 33t82 -33t33 -82t-33 -82 t-82 -33t-82 33t-33 82z" />
<glyph unicode="&#xcc;" horiz-adv-x="479" d="M143 0v1434h193v-1434h-193zM-4 1788l127 127l241 -303l-106 -86z" />
<glyph unicode="&#xcd;" horiz-adv-x="479" d="M143 0v1434h193v-1434h-193zM138 1612l241 303l127 -127l-262 -262z" />
<glyph unicode="&#xce;" horiz-adv-x="479" d="M143 0v1434h193v-1434h-193zM-87 1594l226 291h207l225 -291h-166l-164 192l-162 -192h-166z" />
<glyph unicode="&#xcf;" horiz-adv-x="479" d="M143 0v1434h193v-1434h-193zM-57 1729q0 49 32.5 82t82 33t82 -33t32.5 -82t-32.5 -82t-82 -33t-82.5 33q-32 33 -32 82zM311 1729q0 49 33 82t82 33t82 -33t33 -82t-33 -82t-82 -33t-82 33t-33 82z" />
<glyph unicode="&#xd0;" horiz-adv-x="1251" d="M-12 651v180h155v603h256q147 0 272.5 -37t231 -116t165.5 -221t60 -335q0 -324 -201.5 -524.5t-504.5 -200.5h-279v651h-155zM336 180h110q197 0 336.5 145.5t139.5 403.5q0 250 -136.5 387t-379.5 137h-70v-422h274v-180h-274v-471z" />
<glyph unicode="&#xd1;" horiz-adv-x="1275" d="M135 0v1434h506q254 0 379 -114t125 -357v-963h-192v989q0 139 -85 201.5t-225 62.5h-315v-1253h-193zM250 1586q6 92 57 163.5t158 71.5q61 0 166 -39q100 -43 147 -43q45 0 72.5 29t27.5 67h105q-4 -98 -68.5 -166.5t-152.5 -68.5q-86 0 -191 49q-90 33 -119 33 q-82 0 -98 -96h-104z" />
<glyph unicode="&#xd2;" horiz-adv-x="1593" d="M123 711q2 170 51 307t137 234.5t211 149.5t275 52q150 0 273.5 -52t211.5 -149.5t137 -234.5t51 -307q-2 -170 -50 -305.5t-136 -229.5t-212 -145t-275 -51q-152 0 -276 51t-212 145t-136 229.5t-50 305.5zM330 711q2 -117 33.5 -217.5t92 -174t146.5 -116.5t195 -43 t194.5 43t146 116.5t92.5 174t34 217.5q-2 115 -34 217t-92.5 179t-146.5 122t-194 45q-109 0 -195 -45t-146.5 -122t-92 -179t-33.5 -217zM531 1788l127 127l241 -303l-106 -86z" />
<glyph unicode="&#xd3;" horiz-adv-x="1593" d="M123 711q2 170 51 307t137 234.5t211 149.5t275 52q150 0 273.5 -52t211.5 -149.5t137 -234.5t51 -307q-2 -170 -50 -305.5t-136 -229.5t-212 -145t-275 -51q-152 0 -276 51t-212 145t-136 229.5t-50 305.5zM330 711q2 -117 33.5 -217.5t92 -174t146.5 -116.5t195 -43 t194.5 43t146 116.5t92.5 174t34 217.5q-2 115 -34 217t-92.5 179t-146.5 122t-194 45q-109 0 -195 -45t-146.5 -122t-92 -179t-33.5 -217zM674 1612l241 303l127 -127l-262 -262z" />
<glyph unicode="&#xd4;" horiz-adv-x="1593" d="M123 711q2 170 51 307t137 234.5t211 149.5t275 52q150 0 273.5 -52t211.5 -149.5t137 -234.5t51 -307q-2 -170 -50 -305.5t-136 -229.5t-212 -145t-275 -51q-152 0 -276 51t-212 145t-136 229.5t-50 305.5zM330 711q2 -117 33.5 -217.5t92 -174t146.5 -116.5t195 -43 t194.5 43t146 116.5t92.5 174t34 217.5q-2 115 -34 217t-92.5 179t-146.5 122t-194 45q-109 0 -195 -45t-146.5 -122t-92 -179t-33.5 -217zM466 1594l226 291h207l225 -291h-166l-164 192l-162 -192h-166z" />
<glyph unicode="&#xd5;" horiz-adv-x="1593" d="M123 711q2 170 51 307t137 234.5t211 149.5t275 52q150 0 273.5 -52t211.5 -149.5t137 -234.5t51 -307q-2 -170 -50 -305.5t-136 -229.5t-212 -145t-275 -51q-152 0 -276 51t-212 145t-136 229.5t-50 305.5zM330 711q2 -117 33.5 -217.5t92 -174t146.5 -116.5t195 -43 t194.5 43t146 116.5t92.5 174t34 217.5q-2 115 -34 217t-92.5 179t-146.5 122t-194 45q-109 0 -195 -45t-146.5 -122t-92 -179t-33.5 -217zM430 1586q6 92 57 163.5t158 71.5q61 0 166 -39q100 -43 147 -43q45 0 72.5 29t27.5 67h105q-4 -98 -68.5 -166.5t-152.5 -68.5 q-86 0 -191 49q-90 33 -119 33q-82 0 -98 -96h-104z" />
<glyph unicode="&#xd6;" horiz-adv-x="1593" d="M123 711q2 170 51 307t137 234.5t211 149.5t275 52q150 0 273.5 -52t211.5 -149.5t137 -234.5t51 -307q-2 -170 -50 -305.5t-136 -229.5t-212 -145t-275 -51q-152 0 -276 51t-212 145t-136 229.5t-50 305.5zM330 711q2 -117 33.5 -217.5t92 -174t146.5 -116.5t195 -43 t194.5 43t146 116.5t92.5 174t34 217.5q-2 115 -34 217t-92.5 179t-146.5 122t-194 45q-109 0 -195 -45t-146.5 -122t-92 -179t-33.5 -217zM498 1729q0 49 32.5 82t82 33t82 -33t32.5 -82t-32.5 -82t-82 -33t-82.5 33q-32 33 -32 82zM866 1729q0 49 33 82t82 33t82 -33 t33 -82t-33 -82t-82 -33t-82 33t-33 82z" />
<glyph unicode="&#xd7;" d="M102 113l379 379l-379 378l113 113l379 -379l379 379l112 -113l-378 -378l378 -379l-112 -113l-379 379l-379 -379z" />
<glyph unicode="&#xd8;" horiz-adv-x="1695" d="M119 0l194 227q-141 190 -143 484q2 340 186.5 541.5t487.5 201.5q258 0 430 -147l106 127h195l-199 -238q139 -197 142 -485q-2 -340 -186.5 -535.5t-487.5 -195.5q-254 0 -428 139l-101 -119h-196zM377 711q4 -197 84 -334l672 788q-119 109 -289 109 q-217 0 -340 -162.5t-127 -400.5zM557 260q117 -100 287 -100q217 0 340 157.5t127 393.5q-4 190 -84 336z" />
<glyph unicode="&#xd9;" horiz-adv-x="1275" d="M133 451v983h193v-1010q0 -139 85 -201.5t224 -62.5q143 0 229 62.5t86 201.5v1010h193v-983q0 -244 -126 -357.5t-380 -113.5t-379 113.5t-125 357.5zM394 1788l127 127l241 -303l-106 -86z" />
<glyph unicode="&#xda;" horiz-adv-x="1275" d="M133 451v983h193v-1010q0 -139 85 -201.5t224 -62.5q143 0 229 62.5t86 201.5v1010h193v-983q0 -244 -126 -357.5t-380 -113.5t-379 113.5t-125 357.5zM494 1612l241 303l127 -127l-262 -262z" />
<glyph unicode="&#xdb;" horiz-adv-x="1275" d="M133 451v983h193v-1010q0 -139 85 -201.5t224 -62.5q143 0 229 62.5t86 201.5v1010h193v-983q0 -244 -126 -357.5t-380 -113.5t-379 113.5t-125 357.5zM329 1594l226 291h207l225 -291h-166l-164 192l-162 -192h-166z" />
<glyph unicode="&#xdc;" horiz-adv-x="1275" d="M133 451v983h193v-1010q0 -139 85 -201.5t224 -62.5q143 0 229 62.5t86 201.5v1010h193v-983q0 -244 -126 -357.5t-380 -113.5t-379 113.5t-125 357.5zM359 1729q0 49 32.5 82t82 33t82 -33t32.5 -82t-32.5 -82t-82 -33t-82.5 33q-32 33 -32 82zM727 1729q0 49 33 82 t82 33t82 -33t33 -82t-33 -82t-82 -33t-82 33t-33 82z" />
<glyph unicode="&#xdd;" horiz-adv-x="1112" d="M92 1313v121h197v-103q0 -211 60.5 -361.5t209.5 -246.5q268 178 268 608v103h193v-103q0 -250 -93 -457.5t-272 -316.5v-557h-192v553q-178 106 -274.5 310t-96.5 450zM432 1612l241 303l127 -127l-262 -262z" />
<glyph unicode="&#xde;" horiz-adv-x="1120" d="M92 0v1434h193v-177h284q229 0 355.5 -131t126.5 -333q0 -127 -46.5 -221.5t-124 -145.5t-165.5 -75.5t-185 -24.5h-153v180h176q137 0 216 83t79 208q0 123 -73 201.5t-208 78.5h-282v-1077h-193z" />
<glyph unicode="&#xdf;" horiz-adv-x="1048" d="M-2 811l82 172h57q0 207 123 329t315 122q147 0 233.5 -89.5t86.5 -214.5q0 -80 -41 -148.5t-207 -199.5q-35 -29 -35 -65q0 -29 27 -50.5t114 -55t128 -66.5t67.5 -91.5t26.5 -138.5q0 -63 -11.5 -111t-44 -98.5t-103.5 -78t-177 -27.5h-190v172h190q152 0 152 143 q0 53 -37 89t-90.5 60.5t-107.5 51.5t-91 77t-37 124q0 90 100 184q18 16 81 68.5t82.5 87.5t19.5 73q0 53 -36 92.5t-100 39.5q-254 0 -253 -344v-918h-185v811h-139z" />
<glyph unicode="&#xe0;" horiz-adv-x="1030" d="M92 305.5q0 149.5 108.5 227t272.5 77.5q92 0 197 -32v-185q-78 59 -191 60q-96 0 -149.5 -38t-53.5 -108q0 -135 201 -135h271v391q0 248 -242 248h-328v172h338q199 0 305.5 -98.5t106.5 -282.5v-602h-457q-174 0 -276.5 78t-102.5 227.5zM310 1337l127 127l241 -303 l-106 -86z" />
<glyph unicode="&#xe1;" horiz-adv-x="1030" d="M92 305.5q0 149.5 108.5 227t272.5 77.5q92 0 197 -32v-185q-78 59 -191 60q-96 0 -149.5 -38t-53.5 -108q0 -135 201 -135h271v391q0 248 -242 248h-328v172h338q199 0 305.5 -98.5t106.5 -282.5v-602h-457q-174 0 -276.5 78t-102.5 227.5zM412 1161l241 303l127 -127 l-262 -262z" />
<glyph unicode="&#xe2;" horiz-adv-x="1030" d="M92 305.5q0 149.5 108.5 227t272.5 77.5q92 0 197 -32v-185q-78 59 -191 60q-96 0 -149.5 -38t-53.5 -108q0 -135 201 -135h271v391q0 248 -242 248h-328v172h338q199 0 305.5 -98.5t106.5 -282.5v-602h-457q-174 0 -276.5 78t-102.5 227.5zM186 1143l226 291h207 l225 -291h-166l-164 192l-162 -192h-166z" />
<glyph unicode="&#xe3;" horiz-adv-x="1030" d="M92 305.5q0 149.5 108.5 227t272.5 77.5q92 0 197 -32v-185q-78 59 -191 60q-96 0 -149.5 -38t-53.5 -108q0 -135 201 -135h271v391q0 248 -242 248h-328v172h338q199 0 305.5 -98.5t106.5 -282.5v-602h-457q-174 0 -276.5 78t-102.5 227.5zM148 1135q6 92 57 163.5 t158 71.5q61 0 166 -39q100 -43 147 -43q45 0 72.5 29t27.5 67h105q-4 -98 -68.5 -166.5t-152.5 -68.5q-86 0 -191 49q-90 33 -119 33q-82 0 -98 -96h-104z" />
<glyph unicode="&#xe4;" horiz-adv-x="1030" d="M92 305.5q0 149.5 108.5 227t272.5 77.5q92 0 197 -32v-185q-78 59 -191 60q-96 0 -149.5 -38t-53.5 -108q0 -135 201 -135h271v391q0 248 -242 248h-328v172h338q199 0 305.5 -98.5t106.5 -282.5v-602h-457q-174 0 -276.5 78t-102.5 227.5zM195 1278q0 49 32.5 82t82 33 t82 -33t32.5 -82t-32.5 -82t-82 -33t-82.5 33q-32 33 -32 82zM563 1278q0 49 33 82t82 33t82 -33t33 -82t-33 -82t-82 -33t-82 33t-33 82z" />
<glyph unicode="&#xe5;" horiz-adv-x="1030" d="M92 305.5q0 149.5 108.5 227t272.5 77.5q92 0 197 -32v-185q-78 59 -191 60q-96 0 -149.5 -38t-53.5 -108q0 -135 201 -135h271v391q0 248 -242 248h-328v172h338q199 0 305.5 -98.5t106.5 -282.5v-602h-457q-174 0 -276.5 78t-102.5 227.5zM312 1278q0 86 57 143.5 t143 57.5t143.5 -57.5t57.5 -143.5t-57.5 -143.5t-143.5 -57.5t-143 58q-57 57 -57 143zM414 1278q0 -41 28.5 -69.5t69.5 -28.5t69 28.5t28 69.5t-28 68.5t-69 27.5t-69 -28q-29 -27 -29 -68z" />
<glyph unicode="&#xe6;" horiz-adv-x="1662" d="M92 309.5q0 149.5 107.5 225t273.5 75.5q84 0 158 -20l2 -172q-63 35 -154 35q-96 0 -149.5 -38t-53.5 -107.5t54.5 -108.5t148.5 -39q158 0 305 114q-35 92 -34 197q0 4 1 32.5t1 59.5q0 248 -246 248h-328v172h338q242 0 346 -147q137 168 400 168q348 0 348 -289 q0 -342 -449 -342h-84v157h99q137 0 190 42t53 141q0 63 -47 95t-121 32q-145 0 -228 -102.5t-83 -245.5q0 -152 89 -246t233 -94q129 0 211 63l122 -121q-141 -115 -333 -114q-256 0 -396 161q-190 -139 -393 -139q-164 0 -272.5 79t-108.5 228.5z" />
<glyph unicode="&#xe7;" horiz-adv-x="968" d="M92 492q0 215 144.5 363.5t357.5 148.5q182 0 324 -115l-121 -123q-86 66 -203 65q-141 0 -224 -93t-83 -246.5t83 -246.5t224 -93q119 0 201 63l123 -121q-131 -104 -304 -114l-39 -95q35 6 66 6q102 0 141 -49t39 -110q0 -86 -66.5 -142.5t-185.5 -56.5q-98 0 -213 49 l39 84q76 -33 144 -33q119 0 118 91q0 35 -26.5 60.5t-75.5 25.5q-45 0 -82 -17l-39 43l60 152q-184 33 -293 172t-109 332z" />
<glyph unicode="&#xe8;" horiz-adv-x="1034" d="M92 471q0 242 137 391q130 142 351 142h24q348 -14 348 -289q0 -342 -448 -342h-84v157h98q137 0 190.5 42t53.5 141q0 63 -47 95t-121 32q-145 0 -228 -102.5t-83 -245.5q0 -152 89 -246t232 -94q129 0 211 63l123 -121q-141 -115 -334 -114q-233 0 -372.5 137 t-139.5 354zM312 1337l127 127l241 -303l-106 -86z" />
<glyph unicode="&#xe9;" horiz-adv-x="1034" d="M92 471q0 242 137 391q130 142 351 142h24q348 -14 348 -289q0 -342 -448 -342h-84v157h98q137 0 190.5 42t53.5 141q0 63 -47 95t-121 32q-145 0 -228 -102.5t-83 -245.5q0 -152 89 -246t232 -94q129 0 211 63l123 -121q-141 -115 -334 -114q-233 0 -372.5 137 t-139.5 354zM455 1161l241 303l127 -127l-262 -262z" />
<glyph unicode="&#xea;" horiz-adv-x="1034" d="M92 471q0 242 137 391q130 142 351 142h24q348 -14 348 -289q0 -342 -448 -342h-84v157h98q137 0 190.5 42t53.5 141q0 63 -47 95t-121 32q-145 0 -228 -102.5t-83 -245.5q0 -152 89 -246t232 -94q129 0 211 63l123 -121q-141 -115 -334 -114q-233 0 -372.5 137 t-139.5 354zM251 1143l226 291h207l225 -291h-166l-164 192l-162 -192h-166z" />
<glyph unicode="&#xeb;" horiz-adv-x="1034" d="M92 471q0 242 137 391q130 142 351 142h24q348 -14 348 -289q0 -342 -448 -342h-84v157h98q137 0 190.5 42t53.5 141q0 63 -47 95t-121 32q-145 0 -228 -102.5t-83 -245.5q0 -152 89 -246t232 -94q129 0 211 63l123 -121q-141 -115 -334 -114q-233 0 -372.5 137 t-139.5 354zM238 1278q0 49 32.5 82t82 33t82 -33t32.5 -82t-32.5 -82t-82 -33t-82.5 33q-32 33 -32 82zM606 1278q0 49 33 82t82 33t82 -33t33 -82t-33 -82t-82 -33t-82 33t-33 82z" />
<glyph unicode="&#xec;" horiz-adv-x="540" d="M41 811l82 172h266v-983h-180v811h-168zM6 1337l127 127l241 -303l-106 -86z" />
<glyph unicode="&#xed;" horiz-adv-x="540" d="M41 811l82 172h266v-983h-180v811h-168zM148 1161l241 303l127 -127l-262 -262z" />
<glyph unicode="&#xee;" horiz-adv-x="540" d="M41 811l82 172h266v-983h-180v811h-168zM-56 1143l226 291h207l225 -291h-166l-164 192l-162 -192h-166z" />
<glyph unicode="&#xef;" horiz-adv-x="540" d="M41 811l82 172h266v-983h-180v811h-168zM-26 1278q0 49 32.5 82t82 33t82 -33t32.5 -82t-32.5 -82t-82 -33t-82.5 33q-32 33 -32 82zM342 1278q0 49 33 82t82 33t82 -33t33 -82t-33 -82t-82 -33t-82 33t-33 82z" />
<glyph unicode="&#xf0;" horiz-adv-x="1200" d="M90 492q0 201 142.5 336t357.5 135q68 0 102 -9l37 -190q-66 27 -137 27q-150 0 -235 -82t-85 -217q0 -152 87 -246t231 -94q158 0 244 92t86 305q0 162 -76 319.5t-207 280.5l-217 -113l-98 119l186 96q-92 59 -170 92l111 115q104 -39 215 -123l210 113l101 -119 l-187 -100q137 -129 224.5 -310.5t87.5 -369.5q0 -238 -135.5 -403.5t-370.5 -165.5q-219 0 -361.5 148.5t-142.5 363.5z" />
<glyph unicode="&#xf1;" horiz-adv-x="1071" d="M133 0v983h354q227 0 326 -68q88 -59 111.5 -142t23.5 -218v-555h-180v553q0 37 -2 62.5t-14.5 65.5t-35 65.5t-65.5 45t-104 19.5h-234v-811h-180zM168 1135q6 92 57 163.5t158 71.5q61 0 166 -39q100 -43 147 -43q45 0 72.5 29t27.5 67h105q-4 -98 -68.5 -166.5 t-152.5 -68.5q-86 0 -191 49q-90 33 -119 33q-82 0 -98 -96h-104z" />
<glyph unicode="&#xf2;" d="M92 492q0 217 144 362q143 150 358 150q104 0 195.5 -40t160 -110t107.5 -163t39 -199t-38 -199.5t-105.5 -163.5t-160 -109.5t-198.5 -39.5q-109 0 -200 39.5t-158.5 109.5t-105.5 163.5t-38 199.5zM276 491.5q0 -151.5 87.5 -245.5t230.5 -94q145 0 231 95t86 244.5 t-86 244.5t-231 95q-143 0 -230.5 -94t-87.5 -245.5zM328 1337l127 127l241 -303l-106 -86z" />
<glyph unicode="&#xf3;" d="M92 492q0 217 144 362q143 150 358 150q104 0 195.5 -40t160 -110t107.5 -163t39 -199t-38 -199.5t-105.5 -163.5t-160 -109.5t-198.5 -39.5q-109 0 -200 39.5t-158.5 109.5t-105.5 163.5t-38 199.5zM276 491.5q0 -151.5 87.5 -245.5t230.5 -94q145 0 231 95t86 244.5 t-86 244.5t-231 95q-143 0 -230.5 -94t-87.5 -245.5zM512 1161l241 303l127 -127l-262 -262z" />
<glyph unicode="&#xf4;" d="M92 492q0 217 144 362q143 150 358 150q104 0 195.5 -40t160 -110t107.5 -163t39 -199t-38 -199.5t-105.5 -163.5t-160 -109.5t-198.5 -39.5q-109 0 -200 39.5t-158.5 109.5t-105.5 163.5t-38 199.5zM276 491.5q0 -151.5 87.5 -245.5t230.5 -94q145 0 231 95t86 244.5 t-86 244.5t-231 95q-143 0 -230.5 -94t-87.5 -245.5zM264 1143l226 291h207l225 -291h-166l-164 192l-162 -192h-166z" />
<glyph unicode="&#xf5;" d="M92 492q0 217 144 362q143 150 358 150q104 0 195.5 -40t160 -110t107.5 -163t39 -199t-38 -199.5t-105.5 -163.5t-160 -109.5t-198.5 -39.5q-109 0 -200 39.5t-158.5 109.5t-105.5 163.5t-38 199.5zM276 491.5q0 -151.5 87.5 -245.5t230.5 -94q145 0 231 95t86 244.5 t-86 244.5t-231 95q-143 0 -230.5 -94t-87.5 -245.5zM228 1135q6 92 57 163.5t158 71.5q61 0 166 -39q100 -43 147 -43q45 0 72.5 29t27.5 67h105q-4 -98 -68.5 -166.5t-152.5 -68.5q-86 0 -191 49q-90 33 -119 33q-82 0 -98 -96h-104z" />
<glyph unicode="&#xf6;" d="M92 492q0 217 144 362q143 150 358 150q104 0 195.5 -40t160 -110t107.5 -163t39 -199t-38 -199.5t-105.5 -163.5t-160 -109.5t-198.5 -39.5q-109 0 -200 39.5t-158.5 109.5t-105.5 163.5t-38 199.5zM276 491.5q0 -151.5 87.5 -245.5t230.5 -94q145 0 231 95t86 244.5 t-86 244.5t-231 95q-143 0 -230.5 -94t-87.5 -245.5zM295 1278q0 49 32.5 82t82 33t82 -33t32.5 -82t-32.5 -82t-82 -33t-82.5 33q-32 33 -32 82zM663 1278q0 49 33 82t82 33t82 -33t33 -82t-33 -82t-82 -33t-82 33t-33 82z" />
<glyph unicode="&#xf7;" d="M102 412v159h983v-159h-983zM467 106q0 53 37 90t90 37t90 -36.5t37 -90.5q0 -53 -37 -89.5t-90 -36.5t-90 36q-37 37 -37 90zM467 864q0 53 37 90t90 37t90 -36.5t37 -90.5q0 -53 -37 -90t-90 -37t-90 37t-37 90z" />
<glyph unicode="&#xf8;" horiz-adv-x="1159" d="M59 -31l140 185q-121 143 -121 338q0 215 144.5 363.5t357.5 148.5q141 0 256 -70l82 104h182l-152 -198q133 -143 133 -348q0 -215 -144 -363.5t-357 -148.5q-150 0 -271 75l-65 -86h-185zM262 492q0 -121 57 -207l398 518q-63 29 -137 28q-143 0 -230.5 -93.5 t-87.5 -245.5zM428 184q63 -33 152 -32q145 0 231 95t86 245q0 129 -68 219z" />
<glyph unicode="&#xf9;" horiz-adv-x="1071" d="M123 428v555h180v-553q0 -37 2 -62.5t14.5 -65.5t35 -65.5t65.5 -45t104 -19.5h234v811h180v-983h-354q-227 0 -326 68q-88 59 -111.5 142t-23.5 218zM248 1337l127 127l241 -303l-106 -86z" />
<glyph unicode="&#xfa;" horiz-adv-x="1071" d="M123 428v555h180v-553q0 -37 2 -62.5t14.5 -65.5t35 -65.5t65.5 -45t104 -19.5h234v811h180v-983h-354q-227 0 -326 68q-88 59 -111.5 142t-23.5 218zM432 1161l241 303l127 -127l-262 -262z" />
<glyph unicode="&#xfb;" horiz-adv-x="1071" d="M123 428v555h180v-553q0 -37 2 -62.5t14.5 -65.5t35 -65.5t65.5 -45t104 -19.5h234v811h180v-983h-354q-227 0 -326 68q-88 59 -111.5 142t-23.5 218zM206 1143l226 291h207l225 -291h-166l-164 192l-162 -192h-166z" />
<glyph unicode="&#xfc;" horiz-adv-x="1071" d="M123 428v555h180v-553q0 -37 2 -62.5t14.5 -65.5t35 -65.5t65.5 -45t104 -19.5h234v811h180v-983h-354q-227 0 -326 68q-88 59 -111.5 142t-23.5 218zM236 1278q0 49 32.5 82t82 33t82 -33t32.5 -82t-32.5 -82t-82 -33t-82.5 33q-32 33 -32 82zM604 1278q0 49 33 82 t82 33t82 -33t33 -82t-33 -82t-82 -33t-82 33t-33 82z" />
<glyph unicode="&#xfd;" horiz-adv-x="1019" d="M92 477v506h180v-514q0 -166 51.5 -231.5t188.5 -65.5h215v811h180v-934q0 -256 -134 -386t-421 -130h-147v172h129q375 0 393 295h-172q-268 0 -365.5 94t-97.5 383zM408 1161l241 303l127 -127l-262 -262z" />
<glyph unicode="&#xfe;" d="M113 -469v1905h184v-432h297q236 0 380 -142.5t144 -369.5q0 -217 -147.5 -364.5t-362.5 -147.5q-127 0 -237 61v184q102 -74 237 -73q143 0 235.5 95t92.5 245q0 152 -89 245.5t-253 93.5h-297v-1300h-184z" />
<glyph unicode="&#xff;" horiz-adv-x="1019" d="M92 477v506h180v-514q0 -166 51.5 -231.5t188.5 -65.5h215v811h180v-934q0 -256 -134 -386t-421 -130h-147v172h129q375 0 393 295h-172q-268 0 -365.5 94t-97.5 383zM217 1278q0 49 32.5 82t82 33t82 -33t32.5 -82t-32.5 -82t-82 -33t-82.5 33q-32 33 -32 82zM585 1278 q0 49 33 82t82 33t82 -33t33 -82t-33 -82t-82 -33t-82 33t-33 82z" />
<glyph unicode="&#x131;" horiz-adv-x="540" d="M41 811l82 172h266v-983h-180v811h-168z" />
<glyph unicode="&#x152;" horiz-adv-x="2248" d="M170 711q2 340 186.5 541.5t487.5 201.5q315 0 491 -225q25 63 72 106q66 61 147.5 80t200.5 19h371v-181h-397q-225 0 -226 -188v-234h473v-180h-473v-471h623v-180h-815v168q-170 -188 -467 -188q-303 0 -487.5 195.5t-186.5 535.5zM377 711q2 -117 33.5 -217.5 t92 -174t146.5 -116.5t195 -43t194.5 43t146 116.5t92.5 174t34 217.5q-2 115 -34 217t-92.5 179t-146.5 122t-194 45q-109 0 -195 -45t-146.5 -122t-92 -179t-33.5 -217z" />
<glyph unicode="&#x153;" horiz-adv-x="1830" d="M78 491.5q0 215.5 144.5 364t357.5 148.5q244 0 393 -193q141 201 416 193q348 -14 348 -289q0 -342 -449 -342h-84v157h99q137 0 190 42t53 141q0 63 -47 95t-121 32q-145 0 -228 -102.5t-83 -245.5q0 -152 89 -246t233 -94q129 0 210 63l123 -121q-141 -115 -333 -114 q-279 0 -418 188q-147 -188 -391 -188q-213 0 -357.5 148t-144.5 363.5zM262 491.5q0 -151.5 87 -245.5t231 -94q145 0 231 95t86 244.5t-86 244.5t-231 95q-143 0 -230.5 -94t-87.5 -245.5z" />
<glyph unicode="&#x178;" horiz-adv-x="1112" d="M256 1692q0 49 32.5 82t82 33t82 -33t32.5 -82t-32.5 -82t-82 -33t-82.5 33q-32 33 -32 82zM624 1692q0 49 33 82t82 33t82 -33t33 -82t-33 -82t-82 -33t-82 33t-33 82zM92 1313v121h197v-103q0 -211 60.5 -361.5t209.5 -246.5q268 178 268 608v103h193v-103 q0 -250 -93 -457.5t-272 -316.5v-557h-192v553q-178 106 -274.5 310t-96.5 450z" />
<glyph unicode="&#x2c6;" horiz-adv-x="782" d="M63 1143l226 291h207l225 -291h-166l-164 192l-162 -192h-166z" />
<glyph unicode="&#x2da;" horiz-adv-x="544" d="M72 1278q0 86 57 143.5t143 57.5t143.5 -57.5t57.5 -143.5t-57.5 -143.5t-143.5 -57.5t-143 58q-57 57 -57 143zM174 1278q0 -41 28.5 -69.5t69.5 -28.5t69 28.5t28 69.5t-28 68.5t-69 27.5t-69 -28q-29 -27 -29 -68z" />
<glyph unicode="&#x2dc;" horiz-adv-x="876" d="M72 1135q6 92 57 163.5t158 71.5q61 0 166 -39q100 -43 147 -43q45 0 72.5 29t27.5 67h105q-4 -98 -68.5 -166.5t-152.5 -68.5q-86 0 -191 49q-90 33 -119 33q-82 0 -98 -96h-104z" />
<glyph unicode="&#x2000;" horiz-adv-x="964" />
<glyph unicode="&#x2001;" horiz-adv-x="1929" />
<glyph unicode="&#x2002;" horiz-adv-x="964" />
<glyph unicode="&#x2003;" horiz-adv-x="1929" />
<glyph unicode="&#x2004;" horiz-adv-x="643" />
<glyph unicode="&#x2005;" horiz-adv-x="481" />
<glyph unicode="&#x2006;" horiz-adv-x="321" />
<glyph unicode="&#x2007;" horiz-adv-x="321" />
<glyph unicode="&#x2008;" horiz-adv-x="239" />
<glyph unicode="&#x2009;" horiz-adv-x="385" />
<glyph unicode="&#x200a;" horiz-adv-x="106" />
<glyph unicode="&#x2010;" horiz-adv-x="593" d="M68 410v163h458v-163h-458z" />
<glyph unicode="&#x2011;" horiz-adv-x="593" d="M68 410v163h458v-163h-458z" />
<glyph unicode="&#x2012;" horiz-adv-x="593" d="M68 410v163h458v-163h-458z" />
<glyph unicode="&#x2013;" horiz-adv-x="1159" d="M68 426v152h1024v-152h-1024z" />
<glyph unicode="&#x2014;" horiz-adv-x="1466" d="M68 426v152h1331v-152h-1331z" />
<glyph unicode="&#x2018;" horiz-adv-x="575" d="M113 1262q0 287 198 489l103 -65q-78 -152 -90 -252h139l-82 -172h-268z" />
<glyph unicode="&#x2019;" horiz-adv-x="575" d="M113 1434l82 172h268q0 -287 -199 -490l-102 66q78 152 90 252h-139z" />
<glyph unicode="&#x201a;" horiz-adv-x="442" d="M20 0l82 172h269q0 -287 -199 -489l-102 65q78 152 90 252h-140z" />
<glyph unicode="&#x201c;" horiz-adv-x="1005" d="M113 1262q0 287 198 489l103 -65q-78 -152 -90 -252h139l-82 -172h-268zM543 1262q0 287 198 489l103 -65q-78 -152 -90 -252h139l-82 -172h-268z" />
<glyph unicode="&#x201d;" horiz-adv-x="1005" d="M113 1434l82 172h268q0 -287 -199 -490l-102 66q78 152 90 252h-139zM543 1434l82 172h268q0 -287 -199 -490l-102 66q78 152 90 252h-139z" />
<glyph unicode="&#x201e;" horiz-adv-x="872" d="M20 0l82 172h269q0 -287 -199 -489l-102 65q78 152 90 252h-140zM451 0l81 172h269q0 -287 -199 -489l-102 65q78 152 90 252h-139z" />
<glyph unicode="&#x2022;" horiz-adv-x="843" d="M154 717q0 115 75 190q78 78 193 78q55 0 104 -20.5t86 -57.5t57.5 -86t20.5 -104q0 -57 -20.5 -106.5t-56 -85.5t-85 -56t-106.5 -20t-106.5 20t-85 56t-56 85.5t-20.5 106.5z" />
<glyph unicode="&#x2026;" horiz-adv-x="1038" d="M712 106q0 53 37 90t90 37t90 -36.5t37 -90.5q0 -53 -36.5 -89.5t-90.5 -36.5q-53 0 -90 36q-37 37 -37 90zM366 106q0 53 37 90t90 37t90 -36.5t37 -90.5q0 -53 -36.5 -89.5t-90.5 -36.5q-53 0 -90 36q-37 37 -37 90zM20 106q0 53 37 90t90 37t90 -36.5t37 -90.5 q0 -53 -36.5 -89.5t-90.5 -36.5q-53 0 -90 36q-37 37 -37 90z" />
<glyph unicode="&#x202f;" horiz-adv-x="385" />
<glyph unicode="&#x2039;" horiz-adv-x="595" d="M113 492l256 315h196l-256 -315l256 -316h-196z" />
<glyph unicode="&#x203a;" horiz-adv-x="595" d="M31 176l256 316l-256 315h196l256 -315l-256 -316h-196z" />
<glyph unicode="&#x2044;" horiz-adv-x="659" d="M-82 0l678 1434h166l-674 -1434h-170z" />
<glyph unicode="&#x205f;" horiz-adv-x="481" />
<glyph unicode="&#x2074;" horiz-adv-x="626" d="M43 926v41q0 41 21.5 86t44 76.5t71.5 91.5l176 213h136v-404h83v-104h-83v-148h-136v148h-313zM188 1030h168v230l-71 -86q-79 -91 -97 -144z" />
<glyph unicode="&#x20ac;" horiz-adv-x="1095" d="M-20 518v160h184v39q0 43 2 63h-146v160h168q57 238 234.5 366t447.5 128h134v-181h-158q-168 0 -279.5 -84t-160.5 -229h454v-160h-487q-2 -20 -2 -63q0 -27 2 -39h446v-160h-420q45 -156 159 -247t288 -91h158v-180h-134q-279 0 -456.5 134t-229.5 384h-204z" />
<glyph unicode="&#x2122;" horiz-adv-x="2633" d="M1147 0v1434q223 0 333 -77t165 -280l168 -633h12l168 633q53 205 164 281t334 76v-1434h-193v1217q-53 -23 -80.5 -64t-52.5 -123l-256 -878h-180l-258 878q-25 84 -51.5 124t-79.5 63v-1217h-193zM51 1253v181h901v-181h-354v-1253h-192v1253h-355z" />
<glyph unicode="&#xe000;" horiz-adv-x="985" d="M0 985h985v-985h-985v985z" />
<glyph unicode="&#xfb01;" d="M688 811l82 172h266v-983h-180v811h-168zM821 1264q0 41 26.5 74.5t82 33.5t82 -33.5t26.5 -74.5t-26.5 -75t-82 -34t-81.5 33q-27 35 -27 76zM47 811l82 172h57q0 209 141.5 331t360.5 122v-172q-317 0 -317 -281h235v-172h-235v-811h-185v811h-139z" />
<glyph unicode="&#xfb02;" horiz-adv-x="1200" d="M770 389v1045h184v-1045q0 -74 17.5 -120t54.5 -65.5t71.5 -25.5t92.5 -6v-172q-229 0 -324.5 88t-95.5 301zM47 811l82 172h57q0 209 141.5 331t360.5 122v-172q-317 0 -317 -281h235v-172h-235v-811h-185v811h-139z" />
<glyph unicode="&#xfb03;" horiz-adv-x="1835" d="M1335 811l82 172h266v-983h-180v811h-168zM1468 1264q0 41 26.5 74.5t82 33.5t82 -33.5t26.5 -74.5t-26.5 -75t-82 -34t-81.5 33q-27 35 -27 76zM694 811l82 172h57q0 209 141.5 331t360.5 122v-172q-317 0 -317 -281h235v-172h-235v-811h-185v811h-139zM47 811l82 172 h57q0 209 141.5 331t360.5 122v-172q-317 0 -317 -281h235v-172h-235v-811h-185v811h-139z" />
<glyph unicode="&#xfb04;" horiz-adv-x="1847" d="M1417 389v1045h184v-1045q0 -74 17.5 -120t54.5 -65.5t71.5 -25.5t92.5 -6v-172q-229 0 -324.5 88t-95.5 301zM694 811l82 172h57q0 209 141.5 331t360.5 122v-172q-317 0 -317 -281h235v-172h-235v-811h-185v811h-139zM47 811l82 172h57q0 209 141.5 331t360.5 122v-172 q-317 0 -317 -281h235v-172h-235v-811h-185v811h-139z" />
</font>
</defs>
</svg>
